0
SECTION
2
HEADER
9
$ACADVER
1
AC1015
9
$INSUNITS
70
4
0
ENDSEC
0
SECTION
2
TABLES
0
TABLE
2
LAYER
70
5
0
LAYER
2
FOUNDATION
70
0
62
8
0
LAYER
2
WALLS
70
0
62
7
0
LAYER
2
ROOF
70
0
62
3
0
LAYER
2
OPENINGS
70
0
62
4
0
LAYER
2
STRUCTURE
70
0
62
2
0
ENDTAB
0
ENDSEC
0
SECTION
2
BLOCKS
0
ENDSEC
0
SECTION
2
ENTITIES
0
LWPOLYLINE
8
FOUNDATION
90
4
70
1
10
0.0000
20
0.0000
10
16000.0000
20
0.0000
10
16000.0000
20
10000.0000
10
0.0000
20
10000.0000
0
LINE
8
WALLS
10
0.0000
20
0.0000
30
0.0000
11
16000.0000
21
0.0000
31
0.0000
0
LINE
8
WALLS
10
16000.0000
20
0.0000
30
0.0000
11
16000.0000
21
10000.0000
31
0.0000
0
LINE
8
WALLS
10
16000.0000
20
10000.0000
30
0.0000
11
0.0000
21
10000.0000
31
0.0000
0
LINE
8
WALLS
10
0.0000
20
10000.0000
30
0.0000
11
0.0000
21
0.0000
31
0.0000
0
LINE
8
WALLS
10
0.0000
20
0.0000
30
3200.0000
11
16000.0000
21
0.0000
31
3200.0000
0
LINE
8
WALLS
10
16000.0000
20
0.0000
30
3200.0000
11
16000.0000
21
10000.0000
31
3200.0000
0
LINE
8
WALLS
10
16000.0000
20
10000.0000
30
3200.0000
11
0.0000
21
10000.0000
31
3200.0000
0
LINE
8
WALLS
10
0.0000
20
10000.0000
30
3200.0000
11
0.0000
21
0.0000
31
3200.0000
0
LINE
8
WALLS
10
0.0000
20
0.0000
30
6400.0000
11
16000.0000
21
0.0000
31
6400.0000
0
LINE
8
WALLS
10
16000.0000
20
0.0000
30
6400.0000
11
16000.0000
21
10000.0000
31
6400.0000
0
LINE
8
WALLS
10
16000.0000
20
10000.0000
30
6400.0000
11
0.0000
21
10000.0000
31
6400.0000
0
LINE
8
WALLS
10
0.0000
20
10000.0000
30
6400.0000
11
0.0000
21
0.0000
31
6400.0000
0
LINE
8
WALLS
10
0.0000
20
0.0000
30
0.0000
11
0.0000
21
0.0000
31
6400.0000
0
LINE
8
WALLS
10
16000.0000
20
0.0000
30
0.0000
11
16000.0000
21
0.0000
31
6400.0000
0
LINE
8
WALLS
10
16000.0000
20
10000.0000
30
0.0000
11
16000.0000
21
10000.0000
31
6400.0000
0
LINE
8
WALLS
10
0.0000
20
10000.0000
30
0.0000
11
0.0000
21
10000.0000
31
6400.0000
0
LINE
8
STRUCTURE
10
4000.0000
20
3333.3333
30
0.0000
11
4000.0000
21
3333.3333
31
6400.0000
0
LINE
8
STRUCTURE
10
3900.0000
20
3333.3333
30
0.0000
11
4100.0000
21
3333.3333
31
0.0000
0
LINE
8
STRUCTURE
10
4000.0000
20
3233.3333
30
0.0000
11
4000.0000
21
3433.3333
31
0.0000
0
LINE
8
STRUCTURE
10
3900.0000
20
3333.3333
30
3200.0000
11
4100.0000
21
3333.3333
31
3200.0000
0
LINE
8
STRUCTURE
10
4000.0000
20
3233.3333
30
3200.0000
11
4000.0000
21
3433.3333
31
3200.0000
0
LINE
8
STRUCTURE
10
3900.0000
20
3333.3333
30
6400.0000
11
4100.0000
21
3333.3333
31
6400.0000
0
LINE
8
STRUCTURE
10
4000.0000
20
3233.3333
30
6400.0000
11
4000.0000
21
3433.3333
31
6400.0000
0
LINE
8
STRUCTURE
10
4000.0000
20
6666.6667
30
0.0000
11
4000.0000
21
6666.6667
31
6400.0000
0
LINE
8
STRUCTURE
10
3900.0000
20
6666.6667
30
0.0000
11
4100.0000
21
6666.6667
31
0.0000
0
LINE
8
STRUCTURE
10
4000.0000
20
6566.6667
30
0.0000
11
4000.0000
21
6766.6667
31
0.0000
0
LINE
8
STRUCTURE
10
3900.0000
20
6666.6667
30
3200.0000
11
4100.0000
21
6666.6667
31
3200.0000
0
LINE
8
STRUCTURE
10
4000.0000
20
6566.6667
30
3200.0000
11
4000.0000
21
6766.6667
31
3200.0000
0
LINE
8
STRUCTURE
10
3900.0000
20
6666.6667
30
6400.0000
11
4100.0000
21
6666.6667
31
6400.0000
0
LINE
8
STRUCTURE
10
4000.0000
20
6566.6667
30
6400.0000
11
4000.0000
21
6766.6667
31
6400.0000
0
LINE
8
STRUCTURE
10
8000.0000
20
3333.3333
30
0.0000
11
8000.0000
21
3333.3333
31
6400.0000
0
LINE
8
STRUCTURE
10
7900.0000
20
3333.3333
30
0.0000
11
8100.0000
21
3333.3333
31
0.0000
0
LINE
8
STRUCTURE
10
8000.0000
20
3233.3333
30
0.0000
11
8000.0000
21
3433.3333
31
0.0000
0
LINE
8
STRUCTURE
10
7900.0000
20
3333.3333
30
3200.0000
11
8100.0000
21
3333.3333
31
3200.0000
0
LINE
8
STRUCTURE
10
8000.0000
20
3233.3333
30
3200.0000
11
8000.0000
21
3433.3333
31
3200.0000
0
LINE
8
STRUCTURE
10
7900.0000
20
3333.3333
30
6400.0000
11
8100.0000
21
3333.3333
31
6400.0000
0
LINE
8
STRUCTURE
10
8000.0000
20
3233.3333
30
6400.0000
11
8000.0000
21
3433.3333
31
6400.0000
0
LINE
8
STRUCTURE
10
8000.0000
20
6666.6667
30
0.0000
11
8000.0000
21
6666.6667
31
6400.0000
0
LINE
8
STRUCTURE
10
7900.0000
20
6666.6667
30
0.0000
11
8100.0000
21
6666.6667
31
0.0000
0
LINE
8
STRUCTURE
10
8000.0000
20
6566.6667
30
0.0000
11
8000.0000
21
6766.6667
31
0.0000
0
LINE
8
STRUCTURE
10
7900.0000
20
6666.6667
30
3200.0000
11
8100.0000
21
6666.6667
31
3200.0000
0
LINE
8
STRUCTURE
10
8000.0000
20
6566.6667
30
3200.0000
11
8000.0000
21
6766.6667
31
3200.0000
0
LINE
8
STRUCTURE
10
7900.0000
20
6666.6667
30
6400.0000
11
8100.0000
21
6666.6667
31
6400.0000
0
LINE
8
STRUCTURE
10
8000.0000
20
6566.6667
30
6400.0000
11
8000.0000
21
6766.6667
31
6400.0000
0
LINE
8
STRUCTURE
10
12000.0000
20
3333.3333
30
0.0000
11
12000.0000
21
3333.3333
31
6400.0000
0
LINE
8
STRUCTURE
10
11900.0000
20
3333.3333
30
0.0000
11
12100.0000
21
3333.3333
31
0.0000
0
LINE
8
STRUCTURE
10
12000.0000
20
3233.3333
30
0.0000
11
12000.0000
21
3433.3333
31
0.0000
0
LINE
8
STRUCTURE
10
11900.0000
20
3333.3333
30
3200.0000
11
12100.0000
21
3333.3333
31
3200.0000
0
LINE
8
STRUCTURE
10
12000.0000
20
3233.3333
30
3200.0000
11
12000.0000
21
3433.3333
31
3200.0000
0
LINE
8
STRUCTURE
10
11900.0000
20
3333.3333
30
6400.0000
11
12100.0000
21
3333.3333
31
6400.0000
0
LINE
8
STRUCTURE
10
12000.0000
20
3233.3333
30
6400.0000
11
12000.0000
21
3433.3333
31
6400.0000
0
LINE
8
STRUCTURE
10
12000.0000
20
6666.6667
30
0.0000
11
12000.0000
21
6666.6667
31
6400.0000
0
LINE
8
STRUCTURE
10
11900.0000
20
6666.6667
30
0.0000
11
12100.0000
21
6666.6667
31
0.0000
0
LINE
8
STRUCTURE
10
12000.0000
20
6566.6667
30
0.0000
11
12000.0000
21
6766.6667
31
0.0000
0
LINE
8
STRUCTURE
10
11900.0000
20
6666.6667
30
3200.0000
11
12100.0000
21
6666.6667
31
3200.0000
0
LINE
8
STRUCTURE
10
12000.0000
20
6566.6667
30
3200.0000
11
12000.0000
21
6766.6667
31
3200.0000
0
LINE
8
STRUCTURE
10
11900.0000
20
6666.6667
30
6400.0000
11
12100.0000
21
6666.6667
31
6400.0000
0
LINE
8
STRUCTURE
10
12000.0000
20
6566.6667
30
6400.0000
11
12000.0000
21
6766.6667
31
6400.0000
0
LINE
8
STRUCTURE
10
4000.0000
20
0.0000
30
3200.0000
11
4000.0000
21
10000.0000
31
3200.0000
0
LINE
8
STRUCTURE
10
8000.0000
20
0.0000
30
3200.0000
11
8000.0000
21
10000.0000
31
3200.0000
0
LINE
8
STRUCTURE
10
12000.0000
20
0.0000
30
3200.0000
11
12000.0000
21
10000.0000
31
3200.0000
0
LINE
8
STRUCTURE
10
0.0000
20
3333.3333
30
3200.0000
11
16000.0000
21
3333.3333
31
3200.0000
0
LINE
8
STRUCTURE
10
0.0000
20
6666.6667
30
3200.0000
11
16000.0000
21
6666.6667
31
3200.0000
0
LINE
8
ROOF
10
0.0000
20
5000.0000
30
8900.0000
11
16000.0000
21
5000.0000
31
8900.0000
0
LINE
8
ROOF
10
0.0000
20
0.0000
30
6400.0000
11
8000.0000
21
5000.0000
31
8900.0000
0
LINE
8
ROOF
10
16000.0000
20
0.0000
30
6400.0000
11
8000.0000
21
5000.0000
31
8900.0000
0
LINE
8
ROOF
10
16000.0000
20
10000.0000
30
6400.0000
11
8000.0000
21
5000.0000
31
8900.0000
0
LINE
8
ROOF
10
0.0000
20
10000.0000
30
6400.0000
11
8000.0000
21
5000.0000
31
8900.0000
0
LINE
8
ROOF
10
0.0000
20
0.0000
30
6400.0000
11
16000.0000
21
0.0000
31
6400.0000
0
LINE
8
ROOF
10
0.0000
20
10000.0000
30
6400.0000
11
16000.0000
21
10000.0000
31
6400.0000
0
LINE
8
ROOF
10
0.0000
20
0.0000
30
6400.0000
11
8000.0000
21
0.0000
31
8900.0000
0
LINE
8
ROOF
10
16000.0000
20
0.0000
30
6400.0000
11
8000.0000
21
0.0000
31
8900.0000
0
LINE
8
ROOF
10
0.0000
20
10000.0000
30
6400.0000
11
8000.0000
21
10000.0000
31
8900.0000
0
LINE
8
ROOF
10
16000.0000
20
10000.0000
30
6400.0000
11
8000.0000
21
10000.0000
31
8900.0000
0
3DFACE
8
ROOF
10
0.0000
20
0.0000
30
6400.0000
11
8000.0000
21
0.0000
31
8900.0000
12
8000.0000
22
5000.0000
32
8900.0000
13
0.0000
23
5000.0000
33
6400.0000
0
3DFACE
8
ROOF
10
16000.0000
20
0.0000
30
6400.0000
11
8000.0000
21
0.0000
31
8900.0000
12
8000.0000
22
5000.0000
32
8900.0000
13
16000.0000
23
5000.0000
33
6400.0000
0
3DFACE
8
ROOF
10
0.0000
20
10000.0000
30
6400.0000
11
8000.0000
21
10000.0000
31
8900.0000
12
8000.0000
22
5000.0000
32
8900.0000
13
0.0000
23
5000.0000
33
6400.0000
0
3DFACE
8
ROOF
10
16000.0000
20
10000.0000
30
6400.0000
11
8000.0000
21
10000.0000
31
8900.0000
12
8000.0000
22
5000.0000
32
8900.0000
13
16000.0000
23
5000.0000
33
6400.0000
0
LWPOLYLINE
8
OPENINGS
90
4
70
1
10
1500.0000
20
0.0000
10
3100.0000
20
0.0000
10
3100.0000
20
0.0000
10
1500.0000
20
0.0000
0
LINE
8
OPENINGS
10
1500.0000
20
0.0000
30
800.0000
11
3100.0000
21
0.0000
31
800.0000
0
LINE
8
OPENINGS
10
1500.0000
20
0.0000
30
2400.0000
11
3100.0000
21
0.0000
31
2400.0000
0
LINE
8
OPENINGS
10
1500.0000
20
0.0000
30
800.0000
11
1500.0000
21
0.0000
31
2400.0000
0
LINE
8
OPENINGS
10
3100.0000
20
0.0000
30
800.0000
11
3100.0000
21
0.0000
31
2400.0000
0
LINE
8
OPENINGS
10
2300.0000
20
0.0000
30
800.0000
11
2300.0000
21
0.0000
31
2400.0000
0
LINE
8
OPENINGS
10
1500.0000
20
0.0000
30
1600.0000
11
3100.0000
21
0.0000
31
1600.0000
0
LWPOLYLINE
8
OPENINGS
90
4
70
1
10
4500.0000
20
0.0000
10
6100.0000
20
0.0000
10
6100.0000
20
0.0000
10
4500.0000
20
0.0000
0
LINE
8
OPENINGS
10
4500.0000
20
0.0000
30
800.0000
11
6100.0000
21
0.0000
31
800.0000
0
LINE
8
OPENINGS
10
4500.0000
20
0.0000
30
2400.0000
11
6100.0000
21
0.0000
31
2400.0000
0
LINE
8
OPENINGS
10
4500.0000
20
0.0000
30
800.0000
11
4500.0000
21
0.0000
31
2400.0000
0
LINE
8
OPENINGS
10
6100.0000
20
0.0000
30
800.0000
11
6100.0000
21
0.0000
31
2400.0000
0
LINE
8
OPENINGS
10
5300.0000
20
0.0000
30
800.0000
11
5300.0000
21
0.0000
31
2400.0000
0
LINE
8
OPENINGS
10
4500.0000
20
0.0000
30
1600.0000
11
6100.0000
21
0.0000
31
1600.0000
0
LWPOLYLINE
8
OPENINGS
90
4
70
1
10
7500.0000
20
0.0000
10
9100.0000
20
0.0000
10
9100.0000
20
0.0000
10
7500.0000
20
0.0000
0
LINE
8
OPENINGS
10
7500.0000
20
0.0000
30
800.0000
11
9100.0000
21
0.0000
31
800.0000
0
LINE
8
OPENINGS
10
7500.0000
20
0.0000
30
2400.0000
11
9100.0000
21
0.0000
31
2400.0000
0
LINE
8
OPENINGS
10
7500.0000
20
0.0000
30
800.0000
11
7500.0000
21
0.0000
31
2400.0000
0
LINE
8
OPENINGS
10
9100.0000
20
0.0000
30
800.0000
11
9100.0000
21
0.0000
31
2400.0000
0
LINE
8
OPENINGS
10
8300.0000
20
0.0000
30
800.0000
11
8300.0000
21
0.0000
31
2400.0000
0
LINE
8
OPENINGS
10
7500.0000
20
0.0000
30
1600.0000
11
9100.0000
21
0.0000
31
1600.0000
0
LWPOLYLINE
8
OPENINGS
90
4
70
1
10
10000.0000
20
0.0000
10
11600.0000
20
0.0000
10
11600.0000
20
0.0000
10
10000.0000
20
0.0000
0
LINE
8
OPENINGS
10
10000.0000
20
0.0000
30
800.0000
11
11600.0000
21
0.0000
31
800.0000
0
LINE
8
OPENINGS
10
10000.0000
20
0.0000
30
2400.0000
11
11600.0000
21
0.0000
31
2400.0000
0
LINE
8
OPENINGS
10
10000.0000
20
0.0000
30
800.0000
11
10000.0000
21
0.0000
31
2400.0000
0
LINE
8
OPENINGS
10
11600.0000
20
0.0000
30
800.0000
11
11600.0000
21
0.0000
31
2400.0000
0
LINE
8
OPENINGS
10
10800.0000
20
0.0000
30
800.0000
11
10800.0000
21
0.0000
31
2400.0000
0
LINE
8
OPENINGS
10
10000.0000
20
0.0000
30
1600.0000
11
11600.0000
21
0.0000
31
1600.0000
0
LWPOLYLINE
8
OPENINGS
90
4
70
1
10
13000.0000
20
0.0000
10
14600.0000
20
0.0000
10
14600.0000
20
0.0000
10
13000.0000
20
0.0000
0
LINE
8
OPENINGS
10
13000.0000
20
0.0000
30
800.0000
11
14600.0000
21
0.0000
31
800.0000
0
LINE
8
OPENINGS
10
13000.0000
20
0.0000
30
2400.0000
11
14600.0000
21
0.0000
31
2400.0000
0
LINE
8
OPENINGS
10
13000.0000
20
0.0000
30
800.0000
11
13000.0000
21
0.0000
31
2400.0000
0
LINE
8
OPENINGS
10
14600.0000
20
0.0000
30
800.0000
11
14600.0000
21
0.0000
31
2400.0000
0
LINE
8
OPENINGS
10
13800.0000
20
0.0000
30
800.0000
11
13800.0000
21
0.0000
31
2400.0000
0
LINE
8
OPENINGS
10
13000.0000
20
0.0000
30
1600.0000
11
14600.0000
21
0.0000
31
1600.0000
0
LINE
8
OPENINGS
10
1500.0000
20
0.0000
30
4000.0000
11
3100.0000
21
0.0000
31
4000.0000
0
LINE
8
OPENINGS
10
1500.0000
20
0.0000
30
5600.0000
11
3100.0000
21
0.0000
31
5600.0000
0
LINE
8
OPENINGS
10
1500.0000
20
0.0000
30
4000.0000
11
1500.0000
21
0.0000
31
5600.0000
0
LINE
8
OPENINGS
10
3100.0000
20
0.0000
30
4000.0000
11
3100.0000
21
0.0000
31
5600.0000
0
LINE
8
OPENINGS
10
4500.0000
20
0.0000
30
4000.0000
11
6100.0000
21
0.0000
31
4000.0000
0
LINE
8
OPENINGS
10
4500.0000
20
0.0000
30
5600.0000
11
6100.0000
21
0.0000
31
5600.0000
0
LINE
8
OPENINGS
10
4500.0000
20
0.0000
30
4000.0000
11
4500.0000
21
0.0000
31
5600.0000
0
LINE
8
OPENINGS
10
6100.0000
20
0.0000
30
4000.0000
11
6100.0000
21
0.0000
31
5600.0000
0
LINE
8
OPENINGS
10
8500.0000
20
0.0000
30
4000.0000
11
10100.0000
21
0.0000
31
4000.0000
0
LINE
8
OPENINGS
10
8500.0000
20
0.0000
30
5600.0000
11
10100.0000
21
0.0000
31
5600.0000
0
LINE
8
OPENINGS
10
8500.0000
20
0.0000
30
4000.0000
11
8500.0000
21
0.0000
31
5600.0000
0
LINE
8
OPENINGS
10
10100.0000
20
0.0000
30
4000.0000
11
10100.0000
21
0.0000
31
5600.0000
0
LINE
8
OPENINGS
10
12000.0000
20
0.0000
30
4000.0000
11
13600.0000
21
0.0000
31
4000.0000
0
LINE
8
OPENINGS
10
12000.0000
20
0.0000
30
5600.0000
11
13600.0000
21
0.0000
31
5600.0000
0
LINE
8
OPENINGS
10
12000.0000
20
0.0000
30
4000.0000
11
12000.0000
21
0.0000
31
5600.0000
0
LINE
8
OPENINGS
10
13600.0000
20
0.0000
30
4000.0000
11
13600.0000
21
0.0000
31
5600.0000
0
LINE
8
OPENINGS
10
6800.0000
20
0.0000
30
0.0000
11
9200.0000
21
0.0000
31
0.0000
0
LINE
8
OPENINGS
10
6800.0000
20
0.0000
30
0.0000
11
6800.0000
21
0.0000
31
2800.0000
0
LINE
8
OPENINGS
10
9200.0000
20
0.0000
30
0.0000
11
9200.0000
21
0.0000
31
2800.0000
0
LINE
8
OPENINGS
10
6800.0000
20
0.0000
30
2800.0000
11
9200.0000
21
0.0000
31
2800.0000
0
ENDSEC
0
EOF
