0
SECTION
2
HEADER
9
$ACADVER
1
AC1015
9
$INSUNITS
70
4
0
ENDSEC
0
SECTION
2
TABLES
0
TABLE
2
LAYER
70
5
0
LAYER
2
BODY
70
0
62
7
0
LAYER
2
EDGES
70
0
62
2
0
LAYER
2
HOLES
70
0
62
4
0
LAYER
2
CENTERLINE
70
0
62
1
0
LAYER
2
HIDDEN
70
0
62
8
0
ENDTAB
0
ENDSEC
0
SECTION
2
BLOCKS
0
ENDSEC
0
SECTION
2
ENTITIES
0
3DFACE
8
BODY
10
60.0000
20
0.0000
30
0.0000
11
57.9555
21
15.5291
31
0.0000
12
57.9555
22
15.5291
32
20.0000
13
60.0000
23
0.0000
33
20.0000
0
3DFACE
8
BODY
10
57.9555
20
15.5291
30
0.0000
11
51.9615
21
30.0000
31
0.0000
12
51.9615
22
30.0000
32
20.0000
13
57.9555
23
15.5291
33
20.0000
0
3DFACE
8
BODY
10
51.9615
20
30.0000
30
0.0000
11
42.4264
21
42.4264
31
0.0000
12
42.4264
22
42.4264
32
20.0000
13
51.9615
23
30.0000
33
20.0000
0
3DFACE
8
BODY
10
42.4264
20
42.4264
30
0.0000
11
30.0000
21
51.9615
31
0.0000
12
30.0000
22
51.9615
32
20.0000
13
42.4264
23
42.4264
33
20.0000
0
3DFACE
8
BODY
10
30.0000
20
51.9615
30
0.0000
11
15.5291
21
57.9555
31
0.0000
12
15.5291
22
57.9555
32
20.0000
13
30.0000
23
51.9615
33
20.0000
0
3DFACE
8
BODY
10
15.5291
20
57.9555
30
0.0000
11
0.0000
21
60.0000
31
0.0000
12
0.0000
22
60.0000
32
20.0000
13
15.5291
23
57.9555
33
20.0000
0
3DFACE
8
BODY
10
0.0000
20
60.0000
30
0.0000
11
-15.5291
21
57.9555
31
0.0000
12
-15.5291
22
57.9555
32
20.0000
13
0.0000
23
60.0000
33
20.0000
0
3DFACE
8
BODY
10
-15.5291
20
57.9555
30
0.0000
11
-30.0000
21
51.9615
31
0.0000
12
-30.0000
22
51.9615
32
20.0000
13
-15.5291
23
57.9555
33
20.0000
0
3DFACE
8
BODY
10
-30.0000
20
51.9615
30
0.0000
11
-42.4264
21
42.4264
31
0.0000
12
-42.4264
22
42.4264
32
20.0000
13
-30.0000
23
51.9615
33
20.0000
0
3DFACE
8
BODY
10
-42.4264
20
42.4264
30
0.0000
11
-51.9615
21
30.0000
31
0.0000
12
-51.9615
22
30.0000
32
20.0000
13
-42.4264
23
42.4264
33
20.0000
0
3DFACE
8
BODY
10
-51.9615
20
30.0000
30
0.0000
11
-57.9555
21
15.5291
31
0.0000
12
-57.9555
22
15.5291
32
20.0000
13
-51.9615
23
30.0000
33
20.0000
0
3DFACE
8
BODY
10
-57.9555
20
15.5291
30
0.0000
11
-60.0000
21
0.0000
31
0.0000
12
-60.0000
22
0.0000
32
20.0000
13
-57.9555
23
15.5291
33
20.0000
0
3DFACE
8
BODY
10
-60.0000
20
0.0000
30
0.0000
11
-57.9555
21
-15.5291
31
0.0000
12
-57.9555
22
-15.5291
32
20.0000
13
-60.0000
23
0.0000
33
20.0000
0
3DFACE
8
BODY
10
-57.9555
20
-15.5291
30
0.0000
11
-51.9615
21
-30.0000
31
0.0000
12
-51.9615
22
-30.0000
32
20.0000
13
-57.9555
23
-15.5291
33
20.0000
0
3DFACE
8
BODY
10
-51.9615
20
-30.0000
30
0.0000
11
-42.4264
21
-42.4264
31
0.0000
12
-42.4264
22
-42.4264
32
20.0000
13
-51.9615
23
-30.0000
33
20.0000
0
3DFACE
8
BODY
10
-42.4264
20
-42.4264
30
0.0000
11
-30.0000
21
-51.9615
31
0.0000
12
-30.0000
22
-51.9615
32
20.0000
13
-42.4264
23
-42.4264
33
20.0000
0
3DFACE
8
BODY
10
-30.0000
20
-51.9615
30
0.0000
11
-15.5291
21
-57.9555
31
0.0000
12
-15.5291
22
-57.9555
32
20.0000
13
-30.0000
23
-51.9615
33
20.0000
0
3DFACE
8
BODY
10
-15.5291
20
-57.9555
30
0.0000
11
-0.0000
21
-60.0000
31
0.0000
12
-0.0000
22
-60.0000
32
20.0000
13
-15.5291
23
-57.9555
33
20.0000
0
3DFACE
8
BODY
10
-0.0000
20
-60.0000
30
0.0000
11
15.5291
21
-57.9555
31
0.0000
12
15.5291
22
-57.9555
32
20.0000
13
-0.0000
23
-60.0000
33
20.0000
0
3DFACE
8
BODY
10
15.5291
20
-57.9555
30
0.0000
11
30.0000
21
-51.9615
31
0.0000
12
30.0000
22
-51.9615
32
20.0000
13
15.5291
23
-57.9555
33
20.0000
0
3DFACE
8
BODY
10
30.0000
20
-51.9615
30
0.0000
11
42.4264
21
-42.4264
31
0.0000
12
42.4264
22
-42.4264
32
20.0000
13
30.0000
23
-51.9615
33
20.0000
0
3DFACE
8
BODY
10
42.4264
20
-42.4264
30
0.0000
11
51.9615
21
-30.0000
31
0.0000
12
51.9615
22
-30.0000
32
20.0000
13
42.4264
23
-42.4264
33
20.0000
0
3DFACE
8
BODY
10
51.9615
20
-30.0000
30
0.0000
11
57.9555
21
-15.5291
31
0.0000
12
57.9555
22
-15.5291
32
20.0000
13
51.9615
23
-30.0000
33
20.0000
0
3DFACE
8
BODY
10
57.9555
20
-15.5291
30
0.0000
11
60.0000
21
0.0000
31
0.0000
12
60.0000
22
0.0000
32
20.0000
13
57.9555
23
-15.5291
33
20.0000
0
3DFACE
8
BODY
10
0.0000
20
0.0000
30
0.0000
11
60.0000
21
0.0000
31
0.0000
12
57.9555
22
15.5291
32
0.0000
13
57.9555
23
15.5291
33
0.0000
0
3DFACE
8
BODY
10
0.0000
20
0.0000
30
0.0000
11
57.9555
21
15.5291
31
0.0000
12
51.9615
22
30.0000
32
0.0000
13
51.9615
23
30.0000
33
0.0000
0
3DFACE
8
BODY
10
0.0000
20
0.0000
30
0.0000
11
51.9615
21
30.0000
31
0.0000
12
42.4264
22
42.4264
32
0.0000
13
42.4264
23
42.4264
33
0.0000
0
3DFACE
8
BODY
10
0.0000
20
0.0000
30
0.0000
11
42.4264
21
42.4264
31
0.0000
12
30.0000
22
51.9615
32
0.0000
13
30.0000
23
51.9615
33
0.0000
0
3DFACE
8
BODY
10
0.0000
20
0.0000
30
0.0000
11
30.0000
21
51.9615
31
0.0000
12
15.5291
22
57.9555
32
0.0000
13
15.5291
23
57.9555
33
0.0000
0
3DFACE
8
BODY
10
0.0000
20
0.0000
30
0.0000
11
15.5291
21
57.9555
31
0.0000
12
0.0000
22
60.0000
32
0.0000
13
0.0000
23
60.0000
33
0.0000
0
3DFACE
8
BODY
10
0.0000
20
0.0000
30
0.0000
11
0.0000
21
60.0000
31
0.0000
12
-15.5291
22
57.9555
32
0.0000
13
-15.5291
23
57.9555
33
0.0000
0
3DFACE
8
BODY
10
0.0000
20
0.0000
30
0.0000
11
-15.5291
21
57.9555
31
0.0000
12
-30.0000
22
51.9615
32
0.0000
13
-30.0000
23
51.9615
33
0.0000
0
3DFACE
8
BODY
10
0.0000
20
0.0000
30
0.0000
11
-30.0000
21
51.9615
31
0.0000
12
-42.4264
22
42.4264
32
0.0000
13
-42.4264
23
42.4264
33
0.0000
0
3DFACE
8
BODY
10
0.0000
20
0.0000
30
0.0000
11
-42.4264
21
42.4264
31
0.0000
12
-51.9615
22
30.0000
32
0.0000
13
-51.9615
23
30.0000
33
0.0000
0
3DFACE
8
BODY
10
0.0000
20
0.0000
30
0.0000
11
-51.9615
21
30.0000
31
0.0000
12
-57.9555
22
15.5291
32
0.0000
13
-57.9555
23
15.5291
33
0.0000
0
3DFACE
8
BODY
10
0.0000
20
0.0000
30
0.0000
11
-57.9555
21
15.5291
31
0.0000
12
-60.0000
22
0.0000
32
0.0000
13
-60.0000
23
0.0000
33
0.0000
0
3DFACE
8
BODY
10
0.0000
20
0.0000
30
0.0000
11
-60.0000
21
0.0000
31
0.0000
12
-57.9555
22
-15.5291
32
0.0000
13
-57.9555
23
-15.5291
33
0.0000
0
3DFACE
8
BODY
10
0.0000
20
0.0000
30
0.0000
11
-57.9555
21
-15.5291
31
0.0000
12
-51.9615
22
-30.0000
32
0.0000
13
-51.9615
23
-30.0000
33
0.0000
0
3DFACE
8
BODY
10
0.0000
20
0.0000
30
0.0000
11
-51.9615
21
-30.0000
31
0.0000
12
-42.4264
22
-42.4264
32
0.0000
13
-42.4264
23
-42.4264
33
0.0000
0
3DFACE
8
BODY
10
0.0000
20
0.0000
30
0.0000
11
-42.4264
21
-42.4264
31
0.0000
12
-30.0000
22
-51.9615
32
0.0000
13
-30.0000
23
-51.9615
33
0.0000
0
3DFACE
8
BODY
10
0.0000
20
0.0000
30
0.0000
11
-30.0000
21
-51.9615
31
0.0000
12
-15.5291
22
-57.9555
32
0.0000
13
-15.5291
23
-57.9555
33
0.0000
0
3DFACE
8
BODY
10
0.0000
20
0.0000
30
0.0000
11
-15.5291
21
-57.9555
31
0.0000
12
-0.0000
22
-60.0000
32
0.0000
13
-0.0000
23
-60.0000
33
0.0000
0
3DFACE
8
BODY
10
0.0000
20
0.0000
30
0.0000
11
-0.0000
21
-60.0000
31
0.0000
12
15.5291
22
-57.9555
32
0.0000
13
15.5291
23
-57.9555
33
0.0000
0
3DFACE
8
BODY
10
0.0000
20
0.0000
30
0.0000
11
15.5291
21
-57.9555
31
0.0000
12
30.0000
22
-51.9615
32
0.0000
13
30.0000
23
-51.9615
33
0.0000
0
3DFACE
8
BODY
10
0.0000
20
0.0000
30
0.0000
11
30.0000
21
-51.9615
31
0.0000
12
42.4264
22
-42.4264
32
0.0000
13
42.4264
23
-42.4264
33
0.0000
0
3DFACE
8
BODY
10
0.0000
20
0.0000
30
0.0000
11
42.4264
21
-42.4264
31
0.0000
12
51.9615
22
-30.0000
32
0.0000
13
51.9615
23
-30.0000
33
0.0000
0
3DFACE
8
BODY
10
0.0000
20
0.0000
30
0.0000
11
51.9615
21
-30.0000
31
0.0000
12
57.9555
22
-15.5291
32
0.0000
13
57.9555
23
-15.5291
33
0.0000
0
3DFACE
8
BODY
10
0.0000
20
0.0000
30
0.0000
11
57.9555
21
-15.5291
31
0.0000
12
60.0000
22
-0.0000
32
0.0000
13
60.0000
23
-0.0000
33
0.0000
0
LINE
8
EDGES
10
60.0000
20
0.0000
30
0.0000
11
57.9555
21
15.5291
31
0.0000
0
LINE
8
EDGES
10
57.9555
20
15.5291
30
0.0000
11
51.9615
21
30.0000
31
0.0000
0
LINE
8
EDGES
10
51.9615
20
30.0000
30
0.0000
11
42.4264
21
42.4264
31
0.0000
0
LINE
8
EDGES
10
42.4264
20
42.4264
30
0.0000
11
30.0000
21
51.9615
31
0.0000
0
LINE
8
EDGES
10
30.0000
20
51.9615
30
0.0000
11
15.5291
21
57.9555
31
0.0000
0
LINE
8
EDGES
10
15.5291
20
57.9555
30
0.0000
11
0.0000
21
60.0000
31
0.0000
0
LINE
8
EDGES
10
0.0000
20
60.0000
30
0.0000
11
-15.5291
21
57.9555
31
0.0000
0
LINE
8
EDGES
10
-15.5291
20
57.9555
30
0.0000
11
-30.0000
21
51.9615
31
0.0000
0
LINE
8
EDGES
10
-30.0000
20
51.9615
30
0.0000
11
-42.4264
21
42.4264
31
0.0000
0
LINE
8
EDGES
10
-42.4264
20
42.4264
30
0.0000
11
-51.9615
21
30.0000
31
0.0000
0
LINE
8
EDGES
10
-51.9615
20
30.0000
30
0.0000
11
-57.9555
21
15.5291
31
0.0000
0
LINE
8
EDGES
10
-57.9555
20
15.5291
30
0.0000
11
-60.0000
21
0.0000
31
0.0000
0
LINE
8
EDGES
10
-60.0000
20
0.0000
30
0.0000
11
-57.9555
21
-15.5291
31
0.0000
0
LINE
8
EDGES
10
-57.9555
20
-15.5291
30
0.0000
11
-51.9615
21
-30.0000
31
0.0000
0
LINE
8
EDGES
10
-51.9615
20
-30.0000
30
0.0000
11
-42.4264
21
-42.4264
31
0.0000
0
LINE
8
EDGES
10
-42.4264
20
-42.4264
30
0.0000
11
-30.0000
21
-51.9615
31
0.0000
0
LINE
8
EDGES
10
-30.0000
20
-51.9615
30
0.0000
11
-15.5291
21
-57.9555
31
0.0000
0
LINE
8
EDGES
10
-15.5291
20
-57.9555
30
0.0000
11
-0.0000
21
-60.0000
31
0.0000
0
LINE
8
EDGES
10
-0.0000
20
-60.0000
30
0.0000
11
15.5291
21
-57.9555
31
0.0000
0
LINE
8
EDGES
10
15.5291
20
-57.9555
30
0.0000
11
30.0000
21
-51.9615
31
0.0000
0
LINE
8
EDGES
10
30.0000
20
-51.9615
30
0.0000
11
42.4264
21
-42.4264
31
0.0000
0
LINE
8
EDGES
10
42.4264
20
-42.4264
30
0.0000
11
51.9615
21
-30.0000
31
0.0000
0
LINE
8
EDGES
10
51.9615
20
-30.0000
30
0.0000
11
57.9555
21
-15.5291
31
0.0000
0
LINE
8
EDGES
10
57.9555
20
-15.5291
30
0.0000
11
60.0000
21
-0.0000
31
0.0000
0
LINE
8
EDGES
10
60.0000
20
0.0000
30
20.0000
11
57.9555
21
15.5291
31
20.0000
0
LINE
8
EDGES
10
57.9555
20
15.5291
30
20.0000
11
51.9615
21
30.0000
31
20.0000
0
LINE
8
EDGES
10
51.9615
20
30.0000
30
20.0000
11
42.4264
21
42.4264
31
20.0000
0
LINE
8
EDGES
10
42.4264
20
42.4264
30
20.0000
11
30.0000
21
51.9615
31
20.0000
0
LINE
8
EDGES
10
30.0000
20
51.9615
30
20.0000
11
15.5291
21
57.9555
31
20.0000
0
LINE
8
EDGES
10
15.5291
20
57.9555
30
20.0000
11
0.0000
21
60.0000
31
20.0000
0
LINE
8
EDGES
10
0.0000
20
60.0000
30
20.0000
11
-15.5291
21
57.9555
31
20.0000
0
LINE
8
EDGES
10
-15.5291
20
57.9555
30
20.0000
11
-30.0000
21
51.9615
31
20.0000
0
LINE
8
EDGES
10
-30.0000
20
51.9615
30
20.0000
11
-42.4264
21
42.4264
31
20.0000
0
LINE
8
EDGES
10
-42.4264
20
42.4264
30
20.0000
11
-51.9615
21
30.0000
31
20.0000
0
LINE
8
EDGES
10
-51.9615
20
30.0000
30
20.0000
11
-57.9555
21
15.5291
31
20.0000
0
LINE
8
EDGES
10
-57.9555
20
15.5291
30
20.0000
11
-60.0000
21
0.0000
31
20.0000
0
LINE
8
EDGES
10
-60.0000
20
0.0000
30
20.0000
11
-57.9555
21
-15.5291
31
20.0000
0
LINE
8
EDGES
10
-57.9555
20
-15.5291
30
20.0000
11
-51.9615
21
-30.0000
31
20.0000
0
LINE
8
EDGES
10
-51.9615
20
-30.0000
30
20.0000
11
-42.4264
21
-42.4264
31
20.0000
0
LINE
8
EDGES
10
-42.4264
20
-42.4264
30
20.0000
11
-30.0000
21
-51.9615
31
20.0000
0
LINE
8
EDGES
10
-30.0000
20
-51.9615
30
20.0000
11
-15.5291
21
-57.9555
31
20.0000
0
LINE
8
EDGES
10
-15.5291
20
-57.9555
30
20.0000
11
-0.0000
21
-60.0000
31
20.0000
0
LINE
8
EDGES
10
-0.0000
20
-60.0000
30
20.0000
11
15.5291
21
-57.9555
31
20.0000
0
LINE
8
EDGES
10
15.5291
20
-57.9555
30
20.0000
11
30.0000
21
-51.9615
31
20.0000
0
LINE
8
EDGES
10
30.0000
20
-51.9615
30
20.0000
11
42.4264
21
-42.4264
31
20.0000
0
LINE
8
EDGES
10
42.4264
20
-42.4264
30
20.0000
11
51.9615
21
-30.0000
31
20.0000
0
LINE
8
EDGES
10
51.9615
20
-30.0000
30
20.0000
11
57.9555
21
-15.5291
31
20.0000
0
LINE
8
EDGES
10
57.9555
20
-15.5291
30
20.0000
11
60.0000
21
-0.0000
31
20.0000
0
LINE
8
EDGES
10
60.0000
20
0.0000
30
0.0000
11
60.0000
21
0.0000
31
20.0000
0
LINE
8
EDGES
10
42.4264
20
42.4264
30
0.0000
11
42.4264
21
42.4264
31
20.0000
0
LINE
8
EDGES
10
0.0000
20
60.0000
30
0.0000
11
0.0000
21
60.0000
31
20.0000
0
LINE
8
EDGES
10
-42.4264
20
42.4264
30
0.0000
11
-42.4264
21
42.4264
31
20.0000
0
LINE
8
EDGES
10
-60.0000
20
0.0000
30
0.0000
11
-60.0000
21
0.0000
31
20.0000
0
LINE
8
EDGES
10
-42.4264
20
-42.4264
30
0.0000
11
-42.4264
21
-42.4264
31
20.0000
0
LINE
8
EDGES
10
-0.0000
20
-60.0000
30
0.0000
11
-0.0000
21
-60.0000
31
20.0000
0
LINE
8
EDGES
10
42.4264
20
-42.4264
30
0.0000
11
42.4264
21
-42.4264
31
20.0000
0
3DFACE
8
BODY
10
30.0000
20
0.0000
30
20.0000
11
28.9778
21
7.7646
31
20.0000
12
28.9778
22
7.7646
32
100.0000
13
30.0000
23
0.0000
33
100.0000
0
3DFACE
8
BODY
10
28.9778
20
7.7646
30
20.0000
11
25.9808
21
15.0000
31
20.0000
12
25.9808
22
15.0000
32
100.0000
13
28.9778
23
7.7646
33
100.0000
0
3DFACE
8
BODY
10
25.9808
20
15.0000
30
20.0000
11
21.2132
21
21.2132
31
20.0000
12
21.2132
22
21.2132
32
100.0000
13
25.9808
23
15.0000
33
100.0000
0
3DFACE
8
BODY
10
21.2132
20
21.2132
30
20.0000
11
15.0000
21
25.9808
31
20.0000
12
15.0000
22
25.9808
32
100.0000
13
21.2132
23
21.2132
33
100.0000
0
3DFACE
8
BODY
10
15.0000
20
25.9808
30
20.0000
11
7.7646
21
28.9778
31
20.0000
12
7.7646
22
28.9778
32
100.0000
13
15.0000
23
25.9808
33
100.0000
0
3DFACE
8
BODY
10
7.7646
20
28.9778
30
20.0000
11
0.0000
21
30.0000
31
20.0000
12
0.0000
22
30.0000
32
100.0000
13
7.7646
23
28.9778
33
100.0000
0
3DFACE
8
BODY
10
0.0000
20
30.0000
30
20.0000
11
-7.7646
21
28.9778
31
20.0000
12
-7.7646
22
28.9778
32
100.0000
13
0.0000
23
30.0000
33
100.0000
0
3DFACE
8
BODY
10
-7.7646
20
28.9778
30
20.0000
11
-15.0000
21
25.9808
31
20.0000
12
-15.0000
22
25.9808
32
100.0000
13
-7.7646
23
28.9778
33
100.0000
0
3DFACE
8
BODY
10
-15.0000
20
25.9808
30
20.0000
11
-21.2132
21
21.2132
31
20.0000
12
-21.2132
22
21.2132
32
100.0000
13
-15.0000
23
25.9808
33
100.0000
0
3DFACE
8
BODY
10
-21.2132
20
21.2132
30
20.0000
11
-25.9808
21
15.0000
31
20.0000
12
-25.9808
22
15.0000
32
100.0000
13
-21.2132
23
21.2132
33
100.0000
0
3DFACE
8
BODY
10
-25.9808
20
15.0000
30
20.0000
11
-28.9778
21
7.7646
31
20.0000
12
-28.9778
22
7.7646
32
100.0000
13
-25.9808
23
15.0000
33
100.0000
0
3DFACE
8
BODY
10
-28.9778
20
7.7646
30
20.0000
11
-30.0000
21
0.0000
31
20.0000
12
-30.0000
22
0.0000
32
100.0000
13
-28.9778
23
7.7646
33
100.0000
0
3DFACE
8
BODY
10
-30.0000
20
0.0000
30
20.0000
11
-28.9778
21
-7.7646
31
20.0000
12
-28.9778
22
-7.7646
32
100.0000
13
-30.0000
23
0.0000
33
100.0000
0
3DFACE
8
BODY
10
-28.9778
20
-7.7646
30
20.0000
11
-25.9808
21
-15.0000
31
20.0000
12
-25.9808
22
-15.0000
32
100.0000
13
-28.9778
23
-7.7646
33
100.0000
0
3DFACE
8
BODY
10
-25.9808
20
-15.0000
30
20.0000
11
-21.2132
21
-21.2132
31
20.0000
12
-21.2132
22
-21.2132
32
100.0000
13
-25.9808
23
-15.0000
33
100.0000
0
3DFACE
8
BODY
10
-21.2132
20
-21.2132
30
20.0000
11
-15.0000
21
-25.9808
31
20.0000
12
-15.0000
22
-25.9808
32
100.0000
13
-21.2132
23
-21.2132
33
100.0000
0
3DFACE
8
BODY
10
-15.0000
20
-25.9808
30
20.0000
11
-7.7646
21
-28.9778
31
20.0000
12
-7.7646
22
-28.9778
32
100.0000
13
-15.0000
23
-25.9808
33
100.0000
0
3DFACE
8
BODY
10
-7.7646
20
-28.9778
30
20.0000
11
-0.0000
21
-30.0000
31
20.0000
12
-0.0000
22
-30.0000
32
100.0000
13
-7.7646
23
-28.9778
33
100.0000
0
3DFACE
8
BODY
10
-0.0000
20
-30.0000
30
20.0000
11
7.7646
21
-28.9778
31
20.0000
12
7.7646
22
-28.9778
32
100.0000
13
-0.0000
23
-30.0000
33
100.0000
0
3DFACE
8
BODY
10
7.7646
20
-28.9778
30
20.0000
11
15.0000
21
-25.9808
31
20.0000
12
15.0000
22
-25.9808
32
100.0000
13
7.7646
23
-28.9778
33
100.0000
0
3DFACE
8
BODY
10
15.0000
20
-25.9808
30
20.0000
11
21.2132
21
-21.2132
31
20.0000
12
21.2132
22
-21.2132
32
100.0000
13
15.0000
23
-25.9808
33
100.0000
0
3DFACE
8
BODY
10
21.2132
20
-21.2132
30
20.0000
11
25.9808
21
-15.0000
31
20.0000
12
25.9808
22
-15.0000
32
100.0000
13
21.2132
23
-21.2132
33
100.0000
0
3DFACE
8
BODY
10
25.9808
20
-15.0000
30
20.0000
11
28.9778
21
-7.7646
31
20.0000
12
28.9778
22
-7.7646
32
100.0000
13
25.9808
23
-15.0000
33
100.0000
0
3DFACE
8
BODY
10
28.9778
20
-7.7646
30
20.0000
11
30.0000
21
0.0000
31
20.0000
12
30.0000
22
0.0000
32
100.0000
13
28.9778
23
-7.7646
33
100.0000
0
3DFACE
8
BODY
10
0.0000
20
0.0000
30
20.0000
11
30.0000
21
0.0000
31
20.0000
12
28.9778
22
7.7646
32
20.0000
13
28.9778
23
7.7646
33
20.0000
0
3DFACE
8
BODY
10
0.0000
20
0.0000
30
20.0000
11
28.9778
21
7.7646
31
20.0000
12
25.9808
22
15.0000
32
20.0000
13
25.9808
23
15.0000
33
20.0000
0
3DFACE
8
BODY
10
0.0000
20
0.0000
30
20.0000
11
25.9808
21
15.0000
31
20.0000
12
21.2132
22
21.2132
32
20.0000
13
21.2132
23
21.2132
33
20.0000
0
3DFACE
8
BODY
10
0.0000
20
0.0000
30
20.0000
11
21.2132
21
21.2132
31
20.0000
12
15.0000
22
25.9808
32
20.0000
13
15.0000
23
25.9808
33
20.0000
0
3DFACE
8
BODY
10
0.0000
20
0.0000
30
20.0000
11
15.0000
21
25.9808
31
20.0000
12
7.7646
22
28.9778
32
20.0000
13
7.7646
23
28.9778
33
20.0000
0
3DFACE
8
BODY
10
0.0000
20
0.0000
30
20.0000
11
7.7646
21
28.9778
31
20.0000
12
0.0000
22
30.0000
32
20.0000
13
0.0000
23
30.0000
33
20.0000
0
3DFACE
8
BODY
10
0.0000
20
0.0000
30
20.0000
11
0.0000
21
30.0000
31
20.0000
12
-7.7646
22
28.9778
32
20.0000
13
-7.7646
23
28.9778
33
20.0000
0
3DFACE
8
BODY
10
0.0000
20
0.0000
30
20.0000
11
-7.7646
21
28.9778
31
20.0000
12
-15.0000
22
25.9808
32
20.0000
13
-15.0000
23
25.9808
33
20.0000
0
3DFACE
8
BODY
10
0.0000
20
0.0000
30
20.0000
11
-15.0000
21
25.9808
31
20.0000
12
-21.2132
22
21.2132
32
20.0000
13
-21.2132
23
21.2132
33
20.0000
0
3DFACE
8
BODY
10
0.0000
20
0.0000
30
20.0000
11
-21.2132
21
21.2132
31
20.0000
12
-25.9808
22
15.0000
32
20.0000
13
-25.9808
23
15.0000
33
20.0000
0
3DFACE
8
BODY
10
0.0000
20
0.0000
30
20.0000
11
-25.9808
21
15.0000
31
20.0000
12
-28.9778
22
7.7646
32
20.0000
13
-28.9778
23
7.7646
33
20.0000
0
3DFACE
8
BODY
10
0.0000
20
0.0000
30
20.0000
11
-28.9778
21
7.7646
31
20.0000
12
-30.0000
22
0.0000
32
20.0000
13
-30.0000
23
0.0000
33
20.0000
0
3DFACE
8
BODY
10
0.0000
20
0.0000
30
20.0000
11
-30.0000
21
0.0000
31
20.0000
12
-28.9778
22
-7.7646
32
20.0000
13
-28.9778
23
-7.7646
33
20.0000
0
3DFACE
8
BODY
10
0.0000
20
0.0000
30
20.0000
11
-28.9778
21
-7.7646
31
20.0000
12
-25.9808
22
-15.0000
32
20.0000
13
-25.9808
23
-15.0000
33
20.0000
0
3DFACE
8
BODY
10
0.0000
20
0.0000
30
20.0000
11
-25.9808
21
-15.0000
31
20.0000
12
-21.2132
22
-21.2132
32
20.0000
13
-21.2132
23
-21.2132
33
20.0000
0
3DFACE
8
BODY
10
0.0000
20
0.0000
30
20.0000
11
-21.2132
21
-21.2132
31
20.0000
12
-15.0000
22
-25.9808
32
20.0000
13
-15.0000
23
-25.9808
33
20.0000
0
3DFACE
8
BODY
10
0.0000
20
0.0000
30
20.0000
11
-15.0000
21
-25.9808
31
20.0000
12
-7.7646
22
-28.9778
32
20.0000
13
-7.7646
23
-28.9778
33
20.0000
0
3DFACE
8
BODY
10
0.0000
20
0.0000
30
20.0000
11
-7.7646
21
-28.9778
31
20.0000
12
-0.0000
22
-30.0000
32
20.0000
13
-0.0000
23
-30.0000
33
20.0000
0
3DFACE
8
BODY
10
0.0000
20
0.0000
30
20.0000
11
-0.0000
21
-30.0000
31
20.0000
12
7.7646
22
-28.9778
32
20.0000
13
7.7646
23
-28.9778
33
20.0000
0
3DFACE
8
BODY
10
0.0000
20
0.0000
30
20.0000
11
7.7646
21
-28.9778
31
20.0000
12
15.0000
22
-25.9808
32
20.0000
13
15.0000
23
-25.9808
33
20.0000
0
3DFACE
8
BODY
10
0.0000
20
0.0000
30
20.0000
11
15.0000
21
-25.9808
31
20.0000
12
21.2132
22
-21.2132
32
20.0000
13
21.2132
23
-21.2132
33
20.0000
0
3DFACE
8
BODY
10
0.0000
20
0.0000
30
20.0000
11
21.2132
21
-21.2132
31
20.0000
12
25.9808
22
-15.0000
32
20.0000
13
25.9808
23
-15.0000
33
20.0000
0
3DFACE
8
BODY
10
0.0000
20
0.0000
30
20.0000
11
25.9808
21
-15.0000
31
20.0000
12
28.9778
22
-7.7646
32
20.0000
13
28.9778
23
-7.7646
33
20.0000
0
3DFACE
8
BODY
10
0.0000
20
0.0000
30
20.0000
11
28.9778
21
-7.7646
31
20.0000
12
30.0000
22
-0.0000
32
20.0000
13
30.0000
23
-0.0000
33
20.0000
0
LINE
8
EDGES
10
30.0000
20
0.0000
30
20.0000
11
28.9778
21
7.7646
31
20.0000
0
LINE
8
EDGES
10
28.9778
20
7.7646
30
20.0000
11
25.9808
21
15.0000
31
20.0000
0
LINE
8
EDGES
10
25.9808
20
15.0000
30
20.0000
11
21.2132
21
21.2132
31
20.0000
0
LINE
8
EDGES
10
21.2132
20
21.2132
30
20.0000
11
15.0000
21
25.9808
31
20.0000
0
LINE
8
EDGES
10
15.0000
20
25.9808
30
20.0000
11
7.7646
21
28.9778
31
20.0000
0
LINE
8
EDGES
10
7.7646
20
28.9778
30
20.0000
11
0.0000
21
30.0000
31
20.0000
0
LINE
8
EDGES
10
0.0000
20
30.0000
30
20.0000
11
-7.7646
21
28.9778
31
20.0000
0
LINE
8
EDGES
10
-7.7646
20
28.9778
30
20.0000
11
-15.0000
21
25.9808
31
20.0000
0
LINE
8
EDGES
10
-15.0000
20
25.9808
30
20.0000
11
-21.2132
21
21.2132
31
20.0000
0
LINE
8
EDGES
10
-21.2132
20
21.2132
30
20.0000
11
-25.9808
21
15.0000
31
20.0000
0
LINE
8
EDGES
10
-25.9808
20
15.0000
30
20.0000
11
-28.9778
21
7.7646
31
20.0000
0
LINE
8
EDGES
10
-28.9778
20
7.7646
30
20.0000
11
-30.0000
21
0.0000
31
20.0000
0
LINE
8
EDGES
10
-30.0000
20
0.0000
30
20.0000
11
-28.9778
21
-7.7646
31
20.0000
0
LINE
8
EDGES
10
-28.9778
20
-7.7646
30
20.0000
11
-25.9808
21
-15.0000
31
20.0000
0
LINE
8
EDGES
10
-25.9808
20
-15.0000
30
20.0000
11
-21.2132
21
-21.2132
31
20.0000
0
LINE
8
EDGES
10
-21.2132
20
-21.2132
30
20.0000
11
-15.0000
21
-25.9808
31
20.0000
0
LINE
8
EDGES
10
-15.0000
20
-25.9808
30
20.0000
11
-7.7646
21
-28.9778
31
20.0000
0
LINE
8
EDGES
10
-7.7646
20
-28.9778
30
20.0000
11
-0.0000
21
-30.0000
31
20.0000
0
LINE
8
EDGES
10
-0.0000
20
-30.0000
30
20.0000
11
7.7646
21
-28.9778
31
20.0000
0
LINE
8
EDGES
10
7.7646
20
-28.9778
30
20.0000
11
15.0000
21
-25.9808
31
20.0000
0
LINE
8
EDGES
10
15.0000
20
-25.9808
30
20.0000
11
21.2132
21
-21.2132
31
20.0000
0
LINE
8
EDGES
10
21.2132
20
-21.2132
30
20.0000
11
25.9808
21
-15.0000
31
20.0000
0
LINE
8
EDGES
10
25.9808
20
-15.0000
30
20.0000
11
28.9778
21
-7.7646
31
20.0000
0
LINE
8
EDGES
10
28.9778
20
-7.7646
30
20.0000
11
30.0000
21
-0.0000
31
20.0000
0
LINE
8
EDGES
10
30.0000
20
0.0000
30
100.0000
11
28.9778
21
7.7646
31
100.0000
0
LINE
8
EDGES
10
28.9778
20
7.7646
30
100.0000
11
25.9808
21
15.0000
31
100.0000
0
LINE
8
EDGES
10
25.9808
20
15.0000
30
100.0000
11
21.2132
21
21.2132
31
100.0000
0
LINE
8
EDGES
10
21.2132
20
21.2132
30
100.0000
11
15.0000
21
25.9808
31
100.0000
0
LINE
8
EDGES
10
15.0000
20
25.9808
30
100.0000
11
7.7646
21
28.9778
31
100.0000
0
LINE
8
EDGES
10
7.7646
20
28.9778
30
100.0000
11
0.0000
21
30.0000
31
100.0000
0
LINE
8
EDGES
10
0.0000
20
30.0000
30
100.0000
11
-7.7646
21
28.9778
31
100.0000
0
LINE
8
EDGES
10
-7.7646
20
28.9778
30
100.0000
11
-15.0000
21
25.9808
31
100.0000
0
LINE
8
EDGES
10
-15.0000
20
25.9808
30
100.0000
11
-21.2132
21
21.2132
31
100.0000
0
LINE
8
EDGES
10
-21.2132
20
21.2132
30
100.0000
11
-25.9808
21
15.0000
31
100.0000
0
LINE
8
EDGES
10
-25.9808
20
15.0000
30
100.0000
11
-28.9778
21
7.7646
31
100.0000
0
LINE
8
EDGES
10
-28.9778
20
7.7646
30
100.0000
11
-30.0000
21
0.0000
31
100.0000
0
LINE
8
EDGES
10
-30.0000
20
0.0000
30
100.0000
11
-28.9778
21
-7.7646
31
100.0000
0
LINE
8
EDGES
10
-28.9778
20
-7.7646
30
100.0000
11
-25.9808
21
-15.0000
31
100.0000
0
LINE
8
EDGES
10
-25.9808
20
-15.0000
30
100.0000
11
-21.2132
21
-21.2132
31
100.0000
0
LINE
8
EDGES
10
-21.2132
20
-21.2132
30
100.0000
11
-15.0000
21
-25.9808
31
100.0000
0
LINE
8
EDGES
10
-15.0000
20
-25.9808
30
100.0000
11
-7.7646
21
-28.9778
31
100.0000
0
LINE
8
EDGES
10
-7.7646
20
-28.9778
30
100.0000
11
-0.0000
21
-30.0000
31
100.0000
0
LINE
8
EDGES
10
-0.0000
20
-30.0000
30
100.0000
11
7.7646
21
-28.9778
31
100.0000
0
LINE
8
EDGES
10
7.7646
20
-28.9778
30
100.0000
11
15.0000
21
-25.9808
31
100.0000
0
LINE
8
EDGES
10
15.0000
20
-25.9808
30
100.0000
11
21.2132
21
-21.2132
31
100.0000
0
LINE
8
EDGES
10
21.2132
20
-21.2132
30
100.0000
11
25.9808
21
-15.0000
31
100.0000
0
LINE
8
EDGES
10
25.9808
20
-15.0000
30
100.0000
11
28.9778
21
-7.7646
31
100.0000
0
LINE
8
EDGES
10
28.9778
20
-7.7646
30
100.0000
11
30.0000
21
-0.0000
31
100.0000
0
LINE
8
EDGES
10
30.0000
20
0.0000
30
20.0000
11
30.0000
21
0.0000
31
100.0000
0
LINE
8
EDGES
10
21.2132
20
21.2132
30
20.0000
11
21.2132
21
21.2132
31
100.0000
0
LINE
8
EDGES
10
0.0000
20
30.0000
30
20.0000
11
0.0000
21
30.0000
31
100.0000
0
LINE
8
EDGES
10
-21.2132
20
21.2132
30
20.0000
11
-21.2132
21
21.2132
31
100.0000
0
LINE
8
EDGES
10
-30.0000
20
0.0000
30
20.0000
11
-30.0000
21
0.0000
31
100.0000
0
LINE
8
EDGES
10
-21.2132
20
-21.2132
30
20.0000
11
-21.2132
21
-21.2132
31
100.0000
0
LINE
8
EDGES
10
-0.0000
20
-30.0000
30
20.0000
11
-0.0000
21
-30.0000
31
100.0000
0
LINE
8
EDGES
10
21.2132
20
-21.2132
30
20.0000
11
21.2132
21
-21.2132
31
100.0000
0
3DFACE
8
BODY
10
50.0000
20
0.0000
30
100.0000
11
48.2963
21
12.9410
31
100.0000
12
48.2963
22
12.9410
32
120.0000
13
50.0000
23
0.0000
33
120.0000
0
3DFACE
8
BODY
10
48.2963
20
12.9410
30
100.0000
11
43.3013
21
25.0000
31
100.0000
12
43.3013
22
25.0000
32
120.0000
13
48.2963
23
12.9410
33
120.0000
0
3DFACE
8
BODY
10
43.3013
20
25.0000
30
100.0000
11
35.3553
21
35.3553
31
100.0000
12
35.3553
22
35.3553
32
120.0000
13
43.3013
23
25.0000
33
120.0000
0
3DFACE
8
BODY
10
35.3553
20
35.3553
30
100.0000
11
25.0000
21
43.3013
31
100.0000
12
25.0000
22
43.3013
32
120.0000
13
35.3553
23
35.3553
33
120.0000
0
3DFACE
8
BODY
10
25.0000
20
43.3013
30
100.0000
11
12.9410
21
48.2963
31
100.0000
12
12.9410
22
48.2963
32
120.0000
13
25.0000
23
43.3013
33
120.0000
0
3DFACE
8
BODY
10
12.9410
20
48.2963
30
100.0000
11
0.0000
21
50.0000
31
100.0000
12
0.0000
22
50.0000
32
120.0000
13
12.9410
23
48.2963
33
120.0000
0
3DFACE
8
BODY
10
0.0000
20
50.0000
30
100.0000
11
-12.9410
21
48.2963
31
100.0000
12
-12.9410
22
48.2963
32
120.0000
13
0.0000
23
50.0000
33
120.0000
0
3DFACE
8
BODY
10
-12.9410
20
48.2963
30
100.0000
11
-25.0000
21
43.3013
31
100.0000
12
-25.0000
22
43.3013
32
120.0000
13
-12.9410
23
48.2963
33
120.0000
0
3DFACE
8
BODY
10
-25.0000
20
43.3013
30
100.0000
11
-35.3553
21
35.3553
31
100.0000
12
-35.3553
22
35.3553
32
120.0000
13
-25.0000
23
43.3013
33
120.0000
0
3DFACE
8
BODY
10
-35.3553
20
35.3553
30
100.0000
11
-43.3013
21
25.0000
31
100.0000
12
-43.3013
22
25.0000
32
120.0000
13
-35.3553
23
35.3553
33
120.0000
0
3DFACE
8
BODY
10
-43.3013
20
25.0000
30
100.0000
11
-48.2963
21
12.9410
31
100.0000
12
-48.2963
22
12.9410
32
120.0000
13
-43.3013
23
25.0000
33
120.0000
0
3DFACE
8
BODY
10
-48.2963
20
12.9410
30
100.0000
11
-50.0000
21
0.0000
31
100.0000
12
-50.0000
22
0.0000
32
120.0000
13
-48.2963
23
12.9410
33
120.0000
0
3DFACE
8
BODY
10
-50.0000
20
0.0000
30
100.0000
11
-48.2963
21
-12.9410
31
100.0000
12
-48.2963
22
-12.9410
32
120.0000
13
-50.0000
23
0.0000
33
120.0000
0
3DFACE
8
BODY
10
-48.2963
20
-12.9410
30
100.0000
11
-43.3013
21
-25.0000
31
100.0000
12
-43.3013
22
-25.0000
32
120.0000
13
-48.2963
23
-12.9410
33
120.0000
0
3DFACE
8
BODY
10
-43.3013
20
-25.0000
30
100.0000
11
-35.3553
21
-35.3553
31
100.0000
12
-35.3553
22
-35.3553
32
120.0000
13
-43.3013
23
-25.0000
33
120.0000
0
3DFACE
8
BODY
10
-35.3553
20
-35.3553
30
100.0000
11
-25.0000
21
-43.3013
31
100.0000
12
-25.0000
22
-43.3013
32
120.0000
13
-35.3553
23
-35.3553
33
120.0000
0
3DFACE
8
BODY
10
-25.0000
20
-43.3013
30
100.0000
11
-12.9410
21
-48.2963
31
100.0000
12
-12.9410
22
-48.2963
32
120.0000
13
-25.0000
23
-43.3013
33
120.0000
0
3DFACE
8
BODY
10
-12.9410
20
-48.2963
30
100.0000
11
-0.0000
21
-50.0000
31
100.0000
12
-0.0000
22
-50.0000
32
120.0000
13
-12.9410
23
-48.2963
33
120.0000
0
3DFACE
8
BODY
10
-0.0000
20
-50.0000
30
100.0000
11
12.9410
21
-48.2963
31
100.0000
12
12.9410
22
-48.2963
32
120.0000
13
-0.0000
23
-50.0000
33
120.0000
0
3DFACE
8
BODY
10
12.9410
20
-48.2963
30
100.0000
11
25.0000
21
-43.3013
31
100.0000
12
25.0000
22
-43.3013
32
120.0000
13
12.9410
23
-48.2963
33
120.0000
0
3DFACE
8
BODY
10
25.0000
20
-43.3013
30
100.0000
11
35.3553
21
-35.3553
31
100.0000
12
35.3553
22
-35.3553
32
120.0000
13
25.0000
23
-43.3013
33
120.0000
0
3DFACE
8
BODY
10
35.3553
20
-35.3553
30
100.0000
11
43.3013
21
-25.0000
31
100.0000
12
43.3013
22
-25.0000
32
120.0000
13
35.3553
23
-35.3553
33
120.0000
0
3DFACE
8
BODY
10
43.3013
20
-25.0000
30
100.0000
11
48.2963
21
-12.9410
31
100.0000
12
48.2963
22
-12.9410
32
120.0000
13
43.3013
23
-25.0000
33
120.0000
0
3DFACE
8
BODY
10
48.2963
20
-12.9410
30
100.0000
11
50.0000
21
0.0000
31
100.0000
12
50.0000
22
0.0000
32
120.0000
13
48.2963
23
-12.9410
33
120.0000
0
3DFACE
8
BODY
10
0.0000
20
0.0000
30
100.0000
11
50.0000
21
0.0000
31
100.0000
12
48.2963
22
12.9410
32
100.0000
13
48.2963
23
12.9410
33
100.0000
0
3DFACE
8
BODY
10
0.0000
20
0.0000
30
100.0000
11
48.2963
21
12.9410
31
100.0000
12
43.3013
22
25.0000
32
100.0000
13
43.3013
23
25.0000
33
100.0000
0
3DFACE
8
BODY
10
0.0000
20
0.0000
30
100.0000
11
43.3013
21
25.0000
31
100.0000
12
35.3553
22
35.3553
32
100.0000
13
35.3553
23
35.3553
33
100.0000
0
3DFACE
8
BODY
10
0.0000
20
0.0000
30
100.0000
11
35.3553
21
35.3553
31
100.0000
12
25.0000
22
43.3013
32
100.0000
13
25.0000
23
43.3013
33
100.0000
0
3DFACE
8
BODY
10
0.0000
20
0.0000
30
100.0000
11
25.0000
21
43.3013
31
100.0000
12
12.9410
22
48.2963
32
100.0000
13
12.9410
23
48.2963
33
100.0000
0
3DFACE
8
BODY
10
0.0000
20
0.0000
30
100.0000
11
12.9410
21
48.2963
31
100.0000
12
0.0000
22
50.0000
32
100.0000
13
0.0000
23
50.0000
33
100.0000
0
3DFACE
8
BODY
10
0.0000
20
0.0000
30
100.0000
11
0.0000
21
50.0000
31
100.0000
12
-12.9410
22
48.2963
32
100.0000
13
-12.9410
23
48.2963
33
100.0000
0
3DFACE
8
BODY
10
0.0000
20
0.0000
30
100.0000
11
-12.9410
21
48.2963
31
100.0000
12
-25.0000
22
43.3013
32
100.0000
13
-25.0000
23
43.3013
33
100.0000
0
3DFACE
8
BODY
10
0.0000
20
0.0000
30
100.0000
11
-25.0000
21
43.3013
31
100.0000
12
-35.3553
22
35.3553
32
100.0000
13
-35.3553
23
35.3553
33
100.0000
0
3DFACE
8
BODY
10
0.0000
20
0.0000
30
100.0000
11
-35.3553
21
35.3553
31
100.0000
12
-43.3013
22
25.0000
32
100.0000
13
-43.3013
23
25.0000
33
100.0000
0
3DFACE
8
BODY
10
0.0000
20
0.0000
30
100.0000
11
-43.3013
21
25.0000
31
100.0000
12
-48.2963
22
12.9410
32
100.0000
13
-48.2963
23
12.9410
33
100.0000
0
3DFACE
8
BODY
10
0.0000
20
0.0000
30
100.0000
11
-48.2963
21
12.9410
31
100.0000
12
-50.0000
22
0.0000
32
100.0000
13
-50.0000
23
0.0000
33
100.0000
0
3DFACE
8
BODY
10
0.0000
20
0.0000
30
100.0000
11
-50.0000
21
0.0000
31
100.0000
12
-48.2963
22
-12.9410
32
100.0000
13
-48.2963
23
-12.9410
33
100.0000
0
3DFACE
8
BODY
10
0.0000
20
0.0000
30
100.0000
11
-48.2963
21
-12.9410
31
100.0000
12
-43.3013
22
-25.0000
32
100.0000
13
-43.3013
23
-25.0000
33
100.0000
0
3DFACE
8
BODY
10
0.0000
20
0.0000
30
100.0000
11
-43.3013
21
-25.0000
31
100.0000
12
-35.3553
22
-35.3553
32
100.0000
13
-35.3553
23
-35.3553
33
100.0000
0
3DFACE
8
BODY
10
0.0000
20
0.0000
30
100.0000
11
-35.3553
21
-35.3553
31
100.0000
12
-25.0000
22
-43.3013
32
100.0000
13
-25.0000
23
-43.3013
33
100.0000
0
3DFACE
8
BODY
10
0.0000
20
0.0000
30
100.0000
11
-25.0000
21
-43.3013
31
100.0000
12
-12.9410
22
-48.2963
32
100.0000
13
-12.9410
23
-48.2963
33
100.0000
0
3DFACE
8
BODY
10
0.0000
20
0.0000
30
100.0000
11
-12.9410
21
-48.2963
31
100.0000
12
-0.0000
22
-50.0000
32
100.0000
13
-0.0000
23
-50.0000
33
100.0000
0
3DFACE
8
BODY
10
0.0000
20
0.0000
30
100.0000
11
-0.0000
21
-50.0000
31
100.0000
12
12.9410
22
-48.2963
32
100.0000
13
12.9410
23
-48.2963
33
100.0000
0
3DFACE
8
BODY
10
0.0000
20
0.0000
30
100.0000
11
12.9410
21
-48.2963
31
100.0000
12
25.0000
22
-43.3013
32
100.0000
13
25.0000
23
-43.3013
33
100.0000
0
3DFACE
8
BODY
10
0.0000
20
0.0000
30
100.0000
11
25.0000
21
-43.3013
31
100.0000
12
35.3553
22
-35.3553
32
100.0000
13
35.3553
23
-35.3553
33
100.0000
0
3DFACE
8
BODY
10
0.0000
20
0.0000
30
100.0000
11
35.3553
21
-35.3553
31
100.0000
12
43.3013
22
-25.0000
32
100.0000
13
43.3013
23
-25.0000
33
100.0000
0
3DFACE
8
BODY
10
0.0000
20
0.0000
30
100.0000
11
43.3013
21
-25.0000
31
100.0000
12
48.2963
22
-12.9410
32
100.0000
13
48.2963
23
-12.9410
33
100.0000
0
3DFACE
8
BODY
10
0.0000
20
0.0000
30
100.0000
11
48.2963
21
-12.9410
31
100.0000
12
50.0000
22
-0.0000
32
100.0000
13
50.0000
23
-0.0000
33
100.0000
0
LINE
8
EDGES
10
50.0000
20
0.0000
30
100.0000
11
48.2963
21
12.9410
31
100.0000
0
LINE
8
EDGES
10
48.2963
20
12.9410
30
100.0000
11
43.3013
21
25.0000
31
100.0000
0
LINE
8
EDGES
10
43.3013
20
25.0000
30
100.0000
11
35.3553
21
35.3553
31
100.0000
0
LINE
8
EDGES
10
35.3553
20
35.3553
30
100.0000
11
25.0000
21
43.3013
31
100.0000
0
LINE
8
EDGES
10
25.0000
20
43.3013
30
100.0000
11
12.9410
21
48.2963
31
100.0000
0
LINE
8
EDGES
10
12.9410
20
48.2963
30
100.0000
11
0.0000
21
50.0000
31
100.0000
0
LINE
8
EDGES
10
0.0000
20
50.0000
30
100.0000
11
-12.9410
21
48.2963
31
100.0000
0
LINE
8
EDGES
10
-12.9410
20
48.2963
30
100.0000
11
-25.0000
21
43.3013
31
100.0000
0
LINE
8
EDGES
10
-25.0000
20
43.3013
30
100.0000
11
-35.3553
21
35.3553
31
100.0000
0
LINE
8
EDGES
10
-35.3553
20
35.3553
30
100.0000
11
-43.3013
21
25.0000
31
100.0000
0
LINE
8
EDGES
10
-43.3013
20
25.0000
30
100.0000
11
-48.2963
21
12.9410
31
100.0000
0
LINE
8
EDGES
10
-48.2963
20
12.9410
30
100.0000
11
-50.0000
21
0.0000
31
100.0000
0
LINE
8
EDGES
10
-50.0000
20
0.0000
30
100.0000
11
-48.2963
21
-12.9410
31
100.0000
0
LINE
8
EDGES
10
-48.2963
20
-12.9410
30
100.0000
11
-43.3013
21
-25.0000
31
100.0000
0
LINE
8
EDGES
10
-43.3013
20
-25.0000
30
100.0000
11
-35.3553
21
-35.3553
31
100.0000
0
LINE
8
EDGES
10
-35.3553
20
-35.3553
30
100.0000
11
-25.0000
21
-43.3013
31
100.0000
0
LINE
8
EDGES
10
-25.0000
20
-43.3013
30
100.0000
11
-12.9410
21
-48.2963
31
100.0000
0
LINE
8
EDGES
10
-12.9410
20
-48.2963
30
100.0000
11
-0.0000
21
-50.0000
31
100.0000
0
LINE
8
EDGES
10
-0.0000
20
-50.0000
30
100.0000
11
12.9410
21
-48.2963
31
100.0000
0
LINE
8
EDGES
10
12.9410
20
-48.2963
30
100.0000
11
25.0000
21
-43.3013
31
100.0000
0
LINE
8
EDGES
10
25.0000
20
-43.3013
30
100.0000
11
35.3553
21
-35.3553
31
100.0000
0
LINE
8
EDGES
10
35.3553
20
-35.3553
30
100.0000
11
43.3013
21
-25.0000
31
100.0000
0
LINE
8
EDGES
10
43.3013
20
-25.0000
30
100.0000
11
48.2963
21
-12.9410
31
100.0000
0
LINE
8
EDGES
10
48.2963
20
-12.9410
30
100.0000
11
50.0000
21
-0.0000
31
100.0000
0
LINE
8
EDGES
10
50.0000
20
0.0000
30
120.0000
11
48.2963
21
12.9410
31
120.0000
0
LINE
8
EDGES
10
48.2963
20
12.9410
30
120.0000
11
43.3013
21
25.0000
31
120.0000
0
LINE
8
EDGES
10
43.3013
20
25.0000
30
120.0000
11
35.3553
21
35.3553
31
120.0000
0
LINE
8
EDGES
10
35.3553
20
35.3553
30
120.0000
11
25.0000
21
43.3013
31
120.0000
0
LINE
8
EDGES
10
25.0000
20
43.3013
30
120.0000
11
12.9410
21
48.2963
31
120.0000
0
LINE
8
EDGES
10
12.9410
20
48.2963
30
120.0000
11
0.0000
21
50.0000
31
120.0000
0
LINE
8
EDGES
10
0.0000
20
50.0000
30
120.0000
11
-12.9410
21
48.2963
31
120.0000
0
LINE
8
EDGES
10
-12.9410
20
48.2963
30
120.0000
11
-25.0000
21
43.3013
31
120.0000
0
LINE
8
EDGES
10
-25.0000
20
43.3013
30
120.0000
11
-35.3553
21
35.3553
31
120.0000
0
LINE
8
EDGES
10
-35.3553
20
35.3553
30
120.0000
11
-43.3013
21
25.0000
31
120.0000
0
LINE
8
EDGES
10
-43.3013
20
25.0000
30
120.0000
11
-48.2963
21
12.9410
31
120.0000
0
LINE
8
EDGES
10
-48.2963
20
12.9410
30
120.0000
11
-50.0000
21
0.0000
31
120.0000
0
LINE
8
EDGES
10
-50.0000
20
0.0000
30
120.0000
11
-48.2963
21
-12.9410
31
120.0000
0
LINE
8
EDGES
10
-48.2963
20
-12.9410
30
120.0000
11
-43.3013
21
-25.0000
31
120.0000
0
LINE
8
EDGES
10
-43.3013
20
-25.0000
30
120.0000
11
-35.3553
21
-35.3553
31
120.0000
0
LINE
8
EDGES
10
-35.3553
20
-35.3553
30
120.0000
11
-25.0000
21
-43.3013
31
120.0000
0
LINE
8
EDGES
10
-25.0000
20
-43.3013
30
120.0000
11
-12.9410
21
-48.2963
31
120.0000
0
LINE
8
EDGES
10
-12.9410
20
-48.2963
30
120.0000
11
-0.0000
21
-50.0000
31
120.0000
0
LINE
8
EDGES
10
-0.0000
20
-50.0000
30
120.0000
11
12.9410
21
-48.2963
31
120.0000
0
LINE
8
EDGES
10
12.9410
20
-48.2963
30
120.0000
11
25.0000
21
-43.3013
31
120.0000
0
LINE
8
EDGES
10
25.0000
20
-43.3013
30
120.0000
11
35.3553
21
-35.3553
31
120.0000
0
LINE
8
EDGES
10
35.3553
20
-35.3553
30
120.0000
11
43.3013
21
-25.0000
31
120.0000
0
LINE
8
EDGES
10
43.3013
20
-25.0000
30
120.0000
11
48.2963
21
-12.9410
31
120.0000
0
LINE
8
EDGES
10
48.2963
20
-12.9410
30
120.0000
11
50.0000
21
-0.0000
31
120.0000
0
LINE
8
EDGES
10
50.0000
20
0.0000
30
100.0000
11
50.0000
21
0.0000
31
120.0000
0
LINE
8
EDGES
10
35.3553
20
35.3553
30
100.0000
11
35.3553
21
35.3553
31
120.0000
0
LINE
8
EDGES
10
0.0000
20
50.0000
30
100.0000
11
0.0000
21
50.0000
31
120.0000
0
LINE
8
EDGES
10
-35.3553
20
35.3553
30
100.0000
11
-35.3553
21
35.3553
31
120.0000
0
LINE
8
EDGES
10
-50.0000
20
0.0000
30
100.0000
11
-50.0000
21
0.0000
31
120.0000
0
LINE
8
EDGES
10
-35.3553
20
-35.3553
30
100.0000
11
-35.3553
21
-35.3553
31
120.0000
0
LINE
8
EDGES
10
-0.0000
20
-50.0000
30
100.0000
11
-0.0000
21
-50.0000
31
120.0000
0
LINE
8
EDGES
10
35.3553
20
-35.3553
30
100.0000
11
35.3553
21
-35.3553
31
120.0000
0
3DFACE
8
BODY
10
20.0000
20
0.0000
30
120.0000
11
19.3185
21
5.1764
31
120.0000
12
19.3185
22
5.1764
32
180.0000
13
20.0000
23
0.0000
33
180.0000
0
3DFACE
8
BODY
10
19.3185
20
5.1764
30
120.0000
11
17.3205
21
10.0000
31
120.0000
12
17.3205
22
10.0000
32
180.0000
13
19.3185
23
5.1764
33
180.0000
0
3DFACE
8
BODY
10
17.3205
20
10.0000
30
120.0000
11
14.1421
21
14.1421
31
120.0000
12
14.1421
22
14.1421
32
180.0000
13
17.3205
23
10.0000
33
180.0000
0
3DFACE
8
BODY
10
14.1421
20
14.1421
30
120.0000
11
10.0000
21
17.3205
31
120.0000
12
10.0000
22
17.3205
32
180.0000
13
14.1421
23
14.1421
33
180.0000
0
3DFACE
8
BODY
10
10.0000
20
17.3205
30
120.0000
11
5.1764
21
19.3185
31
120.0000
12
5.1764
22
19.3185
32
180.0000
13
10.0000
23
17.3205
33
180.0000
0
3DFACE
8
BODY
10
5.1764
20
19.3185
30
120.0000
11
0.0000
21
20.0000
31
120.0000
12
0.0000
22
20.0000
32
180.0000
13
5.1764
23
19.3185
33
180.0000
0
3DFACE
8
BODY
10
0.0000
20
20.0000
30
120.0000
11
-5.1764
21
19.3185
31
120.0000
12
-5.1764
22
19.3185
32
180.0000
13
0.0000
23
20.0000
33
180.0000
0
3DFACE
8
BODY
10
-5.1764
20
19.3185
30
120.0000
11
-10.0000
21
17.3205
31
120.0000
12
-10.0000
22
17.3205
32
180.0000
13
-5.1764
23
19.3185
33
180.0000
0
3DFACE
8
BODY
10
-10.0000
20
17.3205
30
120.0000
11
-14.1421
21
14.1421
31
120.0000
12
-14.1421
22
14.1421
32
180.0000
13
-10.0000
23
17.3205
33
180.0000
0
3DFACE
8
BODY
10
-14.1421
20
14.1421
30
120.0000
11
-17.3205
21
10.0000
31
120.0000
12
-17.3205
22
10.0000
32
180.0000
13
-14.1421
23
14.1421
33
180.0000
0
3DFACE
8
BODY
10
-17.3205
20
10.0000
30
120.0000
11
-19.3185
21
5.1764
31
120.0000
12
-19.3185
22
5.1764
32
180.0000
13
-17.3205
23
10.0000
33
180.0000
0
3DFACE
8
BODY
10
-19.3185
20
5.1764
30
120.0000
11
-20.0000
21
0.0000
31
120.0000
12
-20.0000
22
0.0000
32
180.0000
13
-19.3185
23
5.1764
33
180.0000
0
3DFACE
8
BODY
10
-20.0000
20
0.0000
30
120.0000
11
-19.3185
21
-5.1764
31
120.0000
12
-19.3185
22
-5.1764
32
180.0000
13
-20.0000
23
0.0000
33
180.0000
0
3DFACE
8
BODY
10
-19.3185
20
-5.1764
30
120.0000
11
-17.3205
21
-10.0000
31
120.0000
12
-17.3205
22
-10.0000
32
180.0000
13
-19.3185
23
-5.1764
33
180.0000
0
3DFACE
8
BODY
10
-17.3205
20
-10.0000
30
120.0000
11
-14.1421
21
-14.1421
31
120.0000
12
-14.1421
22
-14.1421
32
180.0000
13
-17.3205
23
-10.0000
33
180.0000
0
3DFACE
8
BODY
10
-14.1421
20
-14.1421
30
120.0000
11
-10.0000
21
-17.3205
31
120.0000
12
-10.0000
22
-17.3205
32
180.0000
13
-14.1421
23
-14.1421
33
180.0000
0
3DFACE
8
BODY
10
-10.0000
20
-17.3205
30
120.0000
11
-5.1764
21
-19.3185
31
120.0000
12
-5.1764
22
-19.3185
32
180.0000
13
-10.0000
23
-17.3205
33
180.0000
0
3DFACE
8
BODY
10
-5.1764
20
-19.3185
30
120.0000
11
-0.0000
21
-20.0000
31
120.0000
12
-0.0000
22
-20.0000
32
180.0000
13
-5.1764
23
-19.3185
33
180.0000
0
3DFACE
8
BODY
10
-0.0000
20
-20.0000
30
120.0000
11
5.1764
21
-19.3185
31
120.0000
12
5.1764
22
-19.3185
32
180.0000
13
-0.0000
23
-20.0000
33
180.0000
0
3DFACE
8
BODY
10
5.1764
20
-19.3185
30
120.0000
11
10.0000
21
-17.3205
31
120.0000
12
10.0000
22
-17.3205
32
180.0000
13
5.1764
23
-19.3185
33
180.0000
0
3DFACE
8
BODY
10
10.0000
20
-17.3205
30
120.0000
11
14.1421
21
-14.1421
31
120.0000
12
14.1421
22
-14.1421
32
180.0000
13
10.0000
23
-17.3205
33
180.0000
0
3DFACE
8
BODY
10
14.1421
20
-14.1421
30
120.0000
11
17.3205
21
-10.0000
31
120.0000
12
17.3205
22
-10.0000
32
180.0000
13
14.1421
23
-14.1421
33
180.0000
0
3DFACE
8
BODY
10
17.3205
20
-10.0000
30
120.0000
11
19.3185
21
-5.1764
31
120.0000
12
19.3185
22
-5.1764
32
180.0000
13
17.3205
23
-10.0000
33
180.0000
0
3DFACE
8
BODY
10
19.3185
20
-5.1764
30
120.0000
11
20.0000
21
0.0000
31
120.0000
12
20.0000
22
0.0000
32
180.0000
13
19.3185
23
-5.1764
33
180.0000
0
3DFACE
8
BODY
10
0.0000
20
0.0000
30
120.0000
11
20.0000
21
0.0000
31
120.0000
12
19.3185
22
5.1764
32
120.0000
13
19.3185
23
5.1764
33
120.0000
0
3DFACE
8
BODY
10
0.0000
20
0.0000
30
120.0000
11
19.3185
21
5.1764
31
120.0000
12
17.3205
22
10.0000
32
120.0000
13
17.3205
23
10.0000
33
120.0000
0
3DFACE
8
BODY
10
0.0000
20
0.0000
30
120.0000
11
17.3205
21
10.0000
31
120.0000
12
14.1421
22
14.1421
32
120.0000
13
14.1421
23
14.1421
33
120.0000
0
3DFACE
8
BODY
10
0.0000
20
0.0000
30
120.0000
11
14.1421
21
14.1421
31
120.0000
12
10.0000
22
17.3205
32
120.0000
13
10.0000
23
17.3205
33
120.0000
0
3DFACE
8
BODY
10
0.0000
20
0.0000
30
120.0000
11
10.0000
21
17.3205
31
120.0000
12
5.1764
22
19.3185
32
120.0000
13
5.1764
23
19.3185
33
120.0000
0
3DFACE
8
BODY
10
0.0000
20
0.0000
30
120.0000
11
5.1764
21
19.3185
31
120.0000
12
0.0000
22
20.0000
32
120.0000
13
0.0000
23
20.0000
33
120.0000
0
3DFACE
8
BODY
10
0.0000
20
0.0000
30
120.0000
11
0.0000
21
20.0000
31
120.0000
12
-5.1764
22
19.3185
32
120.0000
13
-5.1764
23
19.3185
33
120.0000
0
3DFACE
8
BODY
10
0.0000
20
0.0000
30
120.0000
11
-5.1764
21
19.3185
31
120.0000
12
-10.0000
22
17.3205
32
120.0000
13
-10.0000
23
17.3205
33
120.0000
0
3DFACE
8
BODY
10
0.0000
20
0.0000
30
120.0000
11
-10.0000
21
17.3205
31
120.0000
12
-14.1421
22
14.1421
32
120.0000
13
-14.1421
23
14.1421
33
120.0000
0
3DFACE
8
BODY
10
0.0000
20
0.0000
30
120.0000
11
-14.1421
21
14.1421
31
120.0000
12
-17.3205
22
10.0000
32
120.0000
13
-17.3205
23
10.0000
33
120.0000
0
3DFACE
8
BODY
10
0.0000
20
0.0000
30
120.0000
11
-17.3205
21
10.0000
31
120.0000
12
-19.3185
22
5.1764
32
120.0000
13
-19.3185
23
5.1764
33
120.0000
0
3DFACE
8
BODY
10
0.0000
20
0.0000
30
120.0000
11
-19.3185
21
5.1764
31
120.0000
12
-20.0000
22
0.0000
32
120.0000
13
-20.0000
23
0.0000
33
120.0000
0
3DFACE
8
BODY
10
0.0000
20
0.0000
30
120.0000
11
-20.0000
21
0.0000
31
120.0000
12
-19.3185
22
-5.1764
32
120.0000
13
-19.3185
23
-5.1764
33
120.0000
0
3DFACE
8
BODY
10
0.0000
20
0.0000
30
120.0000
11
-19.3185
21
-5.1764
31
120.0000
12
-17.3205
22
-10.0000
32
120.0000
13
-17.3205
23
-10.0000
33
120.0000
0
3DFACE
8
BODY
10
0.0000
20
0.0000
30
120.0000
11
-17.3205
21
-10.0000
31
120.0000
12
-14.1421
22
-14.1421
32
120.0000
13
-14.1421
23
-14.1421
33
120.0000
0
3DFACE
8
BODY
10
0.0000
20
0.0000
30
120.0000
11
-14.1421
21
-14.1421
31
120.0000
12
-10.0000
22
-17.3205
32
120.0000
13
-10.0000
23
-17.3205
33
120.0000
0
3DFACE
8
BODY
10
0.0000
20
0.0000
30
120.0000
11
-10.0000
21
-17.3205
31
120.0000
12
-5.1764
22
-19.3185
32
120.0000
13
-5.1764
23
-19.3185
33
120.0000
0
3DFACE
8
BODY
10
0.0000
20
0.0000
30
120.0000
11
-5.1764
21
-19.3185
31
120.0000
12
-0.0000
22
-20.0000
32
120.0000
13
-0.0000
23
-20.0000
33
120.0000
0
3DFACE
8
BODY
10
0.0000
20
0.0000
30
120.0000
11
-0.0000
21
-20.0000
31
120.0000
12
5.1764
22
-19.3185
32
120.0000
13
5.1764
23
-19.3185
33
120.0000
0
3DFACE
8
BODY
10
0.0000
20
0.0000
30
120.0000
11
5.1764
21
-19.3185
31
120.0000
12
10.0000
22
-17.3205
32
120.0000
13
10.0000
23
-17.3205
33
120.0000
0
3DFACE
8
BODY
10
0.0000
20
0.0000
30
120.0000
11
10.0000
21
-17.3205
31
120.0000
12
14.1421
22
-14.1421
32
120.0000
13
14.1421
23
-14.1421
33
120.0000
0
3DFACE
8
BODY
10
0.0000
20
0.0000
30
120.0000
11
14.1421
21
-14.1421
31
120.0000
12
17.3205
22
-10.0000
32
120.0000
13
17.3205
23
-10.0000
33
120.0000
0
3DFACE
8
BODY
10
0.0000
20
0.0000
30
120.0000
11
17.3205
21
-10.0000
31
120.0000
12
19.3185
22
-5.1764
32
120.0000
13
19.3185
23
-5.1764
33
120.0000
0
3DFACE
8
BODY
10
0.0000
20
0.0000
30
120.0000
11
19.3185
21
-5.1764
31
120.0000
12
20.0000
22
-0.0000
32
120.0000
13
20.0000
23
-0.0000
33
120.0000
0
LINE
8
EDGES
10
20.0000
20
0.0000
30
120.0000
11
19.3185
21
5.1764
31
120.0000
0
LINE
8
EDGES
10
19.3185
20
5.1764
30
120.0000
11
17.3205
21
10.0000
31
120.0000
0
LINE
8
EDGES
10
17.3205
20
10.0000
30
120.0000
11
14.1421
21
14.1421
31
120.0000
0
LINE
8
EDGES
10
14.1421
20
14.1421
30
120.0000
11
10.0000
21
17.3205
31
120.0000
0
LINE
8
EDGES
10
10.0000
20
17.3205
30
120.0000
11
5.1764
21
19.3185
31
120.0000
0
LINE
8
EDGES
10
5.1764
20
19.3185
30
120.0000
11
0.0000
21
20.0000
31
120.0000
0
LINE
8
EDGES
10
0.0000
20
20.0000
30
120.0000
11
-5.1764
21
19.3185
31
120.0000
0
LINE
8
EDGES
10
-5.1764
20
19.3185
30
120.0000
11
-10.0000
21
17.3205
31
120.0000
0
LINE
8
EDGES
10
-10.0000
20
17.3205
30
120.0000
11
-14.1421
21
14.1421
31
120.0000
0
LINE
8
EDGES
10
-14.1421
20
14.1421
30
120.0000
11
-17.3205
21
10.0000
31
120.0000
0
LINE
8
EDGES
10
-17.3205
20
10.0000
30
120.0000
11
-19.3185
21
5.1764
31
120.0000
0
LINE
8
EDGES
10
-19.3185
20
5.1764
30
120.0000
11
-20.0000
21
0.0000
31
120.0000
0
LINE
8
EDGES
10
-20.0000
20
0.0000
30
120.0000
11
-19.3185
21
-5.1764
31
120.0000
0
LINE
8
EDGES
10
-19.3185
20
-5.1764
30
120.0000
11
-17.3205
21
-10.0000
31
120.0000
0
LINE
8
EDGES
10
-17.3205
20
-10.0000
30
120.0000
11
-14.1421
21
-14.1421
31
120.0000
0
LINE
8
EDGES
10
-14.1421
20
-14.1421
30
120.0000
11
-10.0000
21
-17.3205
31
120.0000
0
LINE
8
EDGES
10
-10.0000
20
-17.3205
30
120.0000
11
-5.1764
21
-19.3185
31
120.0000
0
LINE
8
EDGES
10
-5.1764
20
-19.3185
30
120.0000
11
-0.0000
21
-20.0000
31
120.0000
0
LINE
8
EDGES
10
-0.0000
20
-20.0000
30
120.0000
11
5.1764
21
-19.3185
31
120.0000
0
LINE
8
EDGES
10
5.1764
20
-19.3185
30
120.0000
11
10.0000
21
-17.3205
31
120.0000
0
LINE
8
EDGES
10
10.0000
20
-17.3205
30
120.0000
11
14.1421
21
-14.1421
31
120.0000
0
LINE
8
EDGES
10
14.1421
20
-14.1421
30
120.0000
11
17.3205
21
-10.0000
31
120.0000
0
LINE
8
EDGES
10
17.3205
20
-10.0000
30
120.0000
11
19.3185
21
-5.1764
31
120.0000
0
LINE
8
EDGES
10
19.3185
20
-5.1764
30
120.0000
11
20.0000
21
-0.0000
31
120.0000
0
LINE
8
EDGES
10
20.0000
20
0.0000
30
180.0000
11
19.3185
21
5.1764
31
180.0000
0
LINE
8
EDGES
10
19.3185
20
5.1764
30
180.0000
11
17.3205
21
10.0000
31
180.0000
0
LINE
8
EDGES
10
17.3205
20
10.0000
30
180.0000
11
14.1421
21
14.1421
31
180.0000
0
LINE
8
EDGES
10
14.1421
20
14.1421
30
180.0000
11
10.0000
21
17.3205
31
180.0000
0
LINE
8
EDGES
10
10.0000
20
17.3205
30
180.0000
11
5.1764
21
19.3185
31
180.0000
0
LINE
8
EDGES
10
5.1764
20
19.3185
30
180.0000
11
0.0000
21
20.0000
31
180.0000
0
LINE
8
EDGES
10
0.0000
20
20.0000
30
180.0000
11
-5.1764
21
19.3185
31
180.0000
0
LINE
8
EDGES
10
-5.1764
20
19.3185
30
180.0000
11
-10.0000
21
17.3205
31
180.0000
0
LINE
8
EDGES
10
-10.0000
20
17.3205
30
180.0000
11
-14.1421
21
14.1421
31
180.0000
0
LINE
8
EDGES
10
-14.1421
20
14.1421
30
180.0000
11
-17.3205
21
10.0000
31
180.0000
0
LINE
8
EDGES
10
-17.3205
20
10.0000
30
180.0000
11
-19.3185
21
5.1764
31
180.0000
0
LINE
8
EDGES
10
-19.3185
20
5.1764
30
180.0000
11
-20.0000
21
0.0000
31
180.0000
0
LINE
8
EDGES
10
-20.0000
20
0.0000
30
180.0000
11
-19.3185
21
-5.1764
31
180.0000
0
LINE
8
EDGES
10
-19.3185
20
-5.1764
30
180.0000
11
-17.3205
21
-10.0000
31
180.0000
0
LINE
8
EDGES
10
-17.3205
20
-10.0000
30
180.0000
11
-14.1421
21
-14.1421
31
180.0000
0
LINE
8
EDGES
10
-14.1421
20
-14.1421
30
180.0000
11
-10.0000
21
-17.3205
31
180.0000
0
LINE
8
EDGES
10
-10.0000
20
-17.3205
30
180.0000
11
-5.1764
21
-19.3185
31
180.0000
0
LINE
8
EDGES
10
-5.1764
20
-19.3185
30
180.0000
11
-0.0000
21
-20.0000
31
180.0000
0
LINE
8
EDGES
10
-0.0000
20
-20.0000
30
180.0000
11
5.1764
21
-19.3185
31
180.0000
0
LINE
8
EDGES
10
5.1764
20
-19.3185
30
180.0000
11
10.0000
21
-17.3205
31
180.0000
0
LINE
8
EDGES
10
10.0000
20
-17.3205
30
180.0000
11
14.1421
21
-14.1421
31
180.0000
0
LINE
8
EDGES
10
14.1421
20
-14.1421
30
180.0000
11
17.3205
21
-10.0000
31
180.0000
0
LINE
8
EDGES
10
17.3205
20
-10.0000
30
180.0000
11
19.3185
21
-5.1764
31
180.0000
0
LINE
8
EDGES
10
19.3185
20
-5.1764
30
180.0000
11
20.0000
21
-0.0000
31
180.0000
0
LINE
8
EDGES
10
20.0000
20
0.0000
30
120.0000
11
20.0000
21
0.0000
31
180.0000
0
LINE
8
EDGES
10
14.1421
20
14.1421
30
120.0000
11
14.1421
21
14.1421
31
180.0000
0
LINE
8
EDGES
10
0.0000
20
20.0000
30
120.0000
11
0.0000
21
20.0000
31
180.0000
0
LINE
8
EDGES
10
-14.1421
20
14.1421
30
120.0000
11
-14.1421
21
14.1421
31
180.0000
0
LINE
8
EDGES
10
-20.0000
20
0.0000
30
120.0000
11
-20.0000
21
0.0000
31
180.0000
0
LINE
8
EDGES
10
-14.1421
20
-14.1421
30
120.0000
11
-14.1421
21
-14.1421
31
180.0000
0
LINE
8
EDGES
10
-0.0000
20
-20.0000
30
120.0000
11
-0.0000
21
-20.0000
31
180.0000
0
LINE
8
EDGES
10
14.1421
20
-14.1421
30
120.0000
11
14.1421
21
-14.1421
31
180.0000
0
3DFACE
8
BODY
10
15.0000
20
0.0000
30
180.0000
11
14.4889
21
3.8823
31
180.0000
12
14.4889
22
3.8823
32
210.0000
13
15.0000
23
0.0000
33
210.0000
0
3DFACE
8
BODY
10
14.4889
20
3.8823
30
180.0000
11
12.9904
21
7.5000
31
180.0000
12
12.9904
22
7.5000
32
210.0000
13
14.4889
23
3.8823
33
210.0000
0
3DFACE
8
BODY
10
12.9904
20
7.5000
30
180.0000
11
10.6066
21
10.6066
31
180.0000
12
10.6066
22
10.6066
32
210.0000
13
12.9904
23
7.5000
33
210.0000
0
3DFACE
8
BODY
10
10.6066
20
10.6066
30
180.0000
11
7.5000
21
12.9904
31
180.0000
12
7.5000
22
12.9904
32
210.0000
13
10.6066
23
10.6066
33
210.0000
0
3DFACE
8
BODY
10
7.5000
20
12.9904
30
180.0000
11
3.8823
21
14.4889
31
180.0000
12
3.8823
22
14.4889
32
210.0000
13
7.5000
23
12.9904
33
210.0000
0
3DFACE
8
BODY
10
3.8823
20
14.4889
30
180.0000
11
0.0000
21
15.0000
31
180.0000
12
0.0000
22
15.0000
32
210.0000
13
3.8823
23
14.4889
33
210.0000
0
3DFACE
8
BODY
10
0.0000
20
15.0000
30
180.0000
11
-3.8823
21
14.4889
31
180.0000
12
-3.8823
22
14.4889
32
210.0000
13
0.0000
23
15.0000
33
210.0000
0
3DFACE
8
BODY
10
-3.8823
20
14.4889
30
180.0000
11
-7.5000
21
12.9904
31
180.0000
12
-7.5000
22
12.9904
32
210.0000
13
-3.8823
23
14.4889
33
210.0000
0
3DFACE
8
BODY
10
-7.5000
20
12.9904
30
180.0000
11
-10.6066
21
10.6066
31
180.0000
12
-10.6066
22
10.6066
32
210.0000
13
-7.5000
23
12.9904
33
210.0000
0
3DFACE
8
BODY
10
-10.6066
20
10.6066
30
180.0000
11
-12.9904
21
7.5000
31
180.0000
12
-12.9904
22
7.5000
32
210.0000
13
-10.6066
23
10.6066
33
210.0000
0
3DFACE
8
BODY
10
-12.9904
20
7.5000
30
180.0000
11
-14.4889
21
3.8823
31
180.0000
12
-14.4889
22
3.8823
32
210.0000
13
-12.9904
23
7.5000
33
210.0000
0
3DFACE
8
BODY
10
-14.4889
20
3.8823
30
180.0000
11
-15.0000
21
0.0000
31
180.0000
12
-15.0000
22
0.0000
32
210.0000
13
-14.4889
23
3.8823
33
210.0000
0
3DFACE
8
BODY
10
-15.0000
20
0.0000
30
180.0000
11
-14.4889
21
-3.8823
31
180.0000
12
-14.4889
22
-3.8823
32
210.0000
13
-15.0000
23
0.0000
33
210.0000
0
3DFACE
8
BODY
10
-14.4889
20
-3.8823
30
180.0000
11
-12.9904
21
-7.5000
31
180.0000
12
-12.9904
22
-7.5000
32
210.0000
13
-14.4889
23
-3.8823
33
210.0000
0
3DFACE
8
BODY
10
-12.9904
20
-7.5000
30
180.0000
11
-10.6066
21
-10.6066
31
180.0000
12
-10.6066
22
-10.6066
32
210.0000
13
-12.9904
23
-7.5000
33
210.0000
0
3DFACE
8
BODY
10
-10.6066
20
-10.6066
30
180.0000
11
-7.5000
21
-12.9904
31
180.0000
12
-7.5000
22
-12.9904
32
210.0000
13
-10.6066
23
-10.6066
33
210.0000
0
3DFACE
8
BODY
10
-7.5000
20
-12.9904
30
180.0000
11
-3.8823
21
-14.4889
31
180.0000
12
-3.8823
22
-14.4889
32
210.0000
13
-7.5000
23
-12.9904
33
210.0000
0
3DFACE
8
BODY
10
-3.8823
20
-14.4889
30
180.0000
11
-0.0000
21
-15.0000
31
180.0000
12
-0.0000
22
-15.0000
32
210.0000
13
-3.8823
23
-14.4889
33
210.0000
0
3DFACE
8
BODY
10
-0.0000
20
-15.0000
30
180.0000
11
3.8823
21
-14.4889
31
180.0000
12
3.8823
22
-14.4889
32
210.0000
13
-0.0000
23
-15.0000
33
210.0000
0
3DFACE
8
BODY
10
3.8823
20
-14.4889
30
180.0000
11
7.5000
21
-12.9904
31
180.0000
12
7.5000
22
-12.9904
32
210.0000
13
3.8823
23
-14.4889
33
210.0000
0
3DFACE
8
BODY
10
7.5000
20
-12.9904
30
180.0000
11
10.6066
21
-10.6066
31
180.0000
12
10.6066
22
-10.6066
32
210.0000
13
7.5000
23
-12.9904
33
210.0000
0
3DFACE
8
BODY
10
10.6066
20
-10.6066
30
180.0000
11
12.9904
21
-7.5000
31
180.0000
12
12.9904
22
-7.5000
32
210.0000
13
10.6066
23
-10.6066
33
210.0000
0
3DFACE
8
BODY
10
12.9904
20
-7.5000
30
180.0000
11
14.4889
21
-3.8823
31
180.0000
12
14.4889
22
-3.8823
32
210.0000
13
12.9904
23
-7.5000
33
210.0000
0
3DFACE
8
BODY
10
14.4889
20
-3.8823
30
180.0000
11
15.0000
21
0.0000
31
180.0000
12
15.0000
22
0.0000
32
210.0000
13
14.4889
23
-3.8823
33
210.0000
0
3DFACE
8
BODY
10
0.0000
20
0.0000
30
180.0000
11
15.0000
21
0.0000
31
180.0000
12
14.4889
22
3.8823
32
180.0000
13
14.4889
23
3.8823
33
180.0000
0
3DFACE
8
BODY
10
0.0000
20
0.0000
30
180.0000
11
14.4889
21
3.8823
31
180.0000
12
12.9904
22
7.5000
32
180.0000
13
12.9904
23
7.5000
33
180.0000
0
3DFACE
8
BODY
10
0.0000
20
0.0000
30
180.0000
11
12.9904
21
7.5000
31
180.0000
12
10.6066
22
10.6066
32
180.0000
13
10.6066
23
10.6066
33
180.0000
0
3DFACE
8
BODY
10
0.0000
20
0.0000
30
180.0000
11
10.6066
21
10.6066
31
180.0000
12
7.5000
22
12.9904
32
180.0000
13
7.5000
23
12.9904
33
180.0000
0
3DFACE
8
BODY
10
0.0000
20
0.0000
30
180.0000
11
7.5000
21
12.9904
31
180.0000
12
3.8823
22
14.4889
32
180.0000
13
3.8823
23
14.4889
33
180.0000
0
3DFACE
8
BODY
10
0.0000
20
0.0000
30
180.0000
11
3.8823
21
14.4889
31
180.0000
12
0.0000
22
15.0000
32
180.0000
13
0.0000
23
15.0000
33
180.0000
0
3DFACE
8
BODY
10
0.0000
20
0.0000
30
180.0000
11
0.0000
21
15.0000
31
180.0000
12
-3.8823
22
14.4889
32
180.0000
13
-3.8823
23
14.4889
33
180.0000
0
3DFACE
8
BODY
10
0.0000
20
0.0000
30
180.0000
11
-3.8823
21
14.4889
31
180.0000
12
-7.5000
22
12.9904
32
180.0000
13
-7.5000
23
12.9904
33
180.0000
0
3DFACE
8
BODY
10
0.0000
20
0.0000
30
180.0000
11
-7.5000
21
12.9904
31
180.0000
12
-10.6066
22
10.6066
32
180.0000
13
-10.6066
23
10.6066
33
180.0000
0
3DFACE
8
BODY
10
0.0000
20
0.0000
30
180.0000
11
-10.6066
21
10.6066
31
180.0000
12
-12.9904
22
7.5000
32
180.0000
13
-12.9904
23
7.5000
33
180.0000
0
3DFACE
8
BODY
10
0.0000
20
0.0000
30
180.0000
11
-12.9904
21
7.5000
31
180.0000
12
-14.4889
22
3.8823
32
180.0000
13
-14.4889
23
3.8823
33
180.0000
0
3DFACE
8
BODY
10
0.0000
20
0.0000
30
180.0000
11
-14.4889
21
3.8823
31
180.0000
12
-15.0000
22
0.0000
32
180.0000
13
-15.0000
23
0.0000
33
180.0000
0
3DFACE
8
BODY
10
0.0000
20
0.0000
30
180.0000
11
-15.0000
21
0.0000
31
180.0000
12
-14.4889
22
-3.8823
32
180.0000
13
-14.4889
23
-3.8823
33
180.0000
0
3DFACE
8
BODY
10
0.0000
20
0.0000
30
180.0000
11
-14.4889
21
-3.8823
31
180.0000
12
-12.9904
22
-7.5000
32
180.0000
13
-12.9904
23
-7.5000
33
180.0000
0
3DFACE
8
BODY
10
0.0000
20
0.0000
30
180.0000
11
-12.9904
21
-7.5000
31
180.0000
12
-10.6066
22
-10.6066
32
180.0000
13
-10.6066
23
-10.6066
33
180.0000
0
3DFACE
8
BODY
10
0.0000
20
0.0000
30
180.0000
11
-10.6066
21
-10.6066
31
180.0000
12
-7.5000
22
-12.9904
32
180.0000
13
-7.5000
23
-12.9904
33
180.0000
0
3DFACE
8
BODY
10
0.0000
20
0.0000
30
180.0000
11
-7.5000
21
-12.9904
31
180.0000
12
-3.8823
22
-14.4889
32
180.0000
13
-3.8823
23
-14.4889
33
180.0000
0
3DFACE
8
BODY
10
0.0000
20
0.0000
30
180.0000
11
-3.8823
21
-14.4889
31
180.0000
12
-0.0000
22
-15.0000
32
180.0000
13
-0.0000
23
-15.0000
33
180.0000
0
3DFACE
8
BODY
10
0.0000
20
0.0000
30
180.0000
11
-0.0000
21
-15.0000
31
180.0000
12
3.8823
22
-14.4889
32
180.0000
13
3.8823
23
-14.4889
33
180.0000
0
3DFACE
8
BODY
10
0.0000
20
0.0000
30
180.0000
11
3.8823
21
-14.4889
31
180.0000
12
7.5000
22
-12.9904
32
180.0000
13
7.5000
23
-12.9904
33
180.0000
0
3DFACE
8
BODY
10
0.0000
20
0.0000
30
180.0000
11
7.5000
21
-12.9904
31
180.0000
12
10.6066
22
-10.6066
32
180.0000
13
10.6066
23
-10.6066
33
180.0000
0
3DFACE
8
BODY
10
0.0000
20
0.0000
30
180.0000
11
10.6066
21
-10.6066
31
180.0000
12
12.9904
22
-7.5000
32
180.0000
13
12.9904
23
-7.5000
33
180.0000
0
3DFACE
8
BODY
10
0.0000
20
0.0000
30
180.0000
11
12.9904
21
-7.5000
31
180.0000
12
14.4889
22
-3.8823
32
180.0000
13
14.4889
23
-3.8823
33
180.0000
0
3DFACE
8
BODY
10
0.0000
20
0.0000
30
180.0000
11
14.4889
21
-3.8823
31
180.0000
12
15.0000
22
-0.0000
32
180.0000
13
15.0000
23
-0.0000
33
180.0000
0
LINE
8
EDGES
10
15.0000
20
0.0000
30
180.0000
11
14.4889
21
3.8823
31
180.0000
0
LINE
8
EDGES
10
14.4889
20
3.8823
30
180.0000
11
12.9904
21
7.5000
31
180.0000
0
LINE
8
EDGES
10
12.9904
20
7.5000
30
180.0000
11
10.6066
21
10.6066
31
180.0000
0
LINE
8
EDGES
10
10.6066
20
10.6066
30
180.0000
11
7.5000
21
12.9904
31
180.0000
0
LINE
8
EDGES
10
7.5000
20
12.9904
30
180.0000
11
3.8823
21
14.4889
31
180.0000
0
LINE
8
EDGES
10
3.8823
20
14.4889
30
180.0000
11
0.0000
21
15.0000
31
180.0000
0
LINE
8
EDGES
10
0.0000
20
15.0000
30
180.0000
11
-3.8823
21
14.4889
31
180.0000
0
LINE
8
EDGES
10
-3.8823
20
14.4889
30
180.0000
11
-7.5000
21
12.9904
31
180.0000
0
LINE
8
EDGES
10
-7.5000
20
12.9904
30
180.0000
11
-10.6066
21
10.6066
31
180.0000
0
LINE
8
EDGES
10
-10.6066
20
10.6066
30
180.0000
11
-12.9904
21
7.5000
31
180.0000
0
LINE
8
EDGES
10
-12.9904
20
7.5000
30
180.0000
11
-14.4889
21
3.8823
31
180.0000
0
LINE
8
EDGES
10
-14.4889
20
3.8823
30
180.0000
11
-15.0000
21
0.0000
31
180.0000
0
LINE
8
EDGES
10
-15.0000
20
0.0000
30
180.0000
11
-14.4889
21
-3.8823
31
180.0000
0
LINE
8
EDGES
10
-14.4889
20
-3.8823
30
180.0000
11
-12.9904
21
-7.5000
31
180.0000
0
LINE
8
EDGES
10
-12.9904
20
-7.5000
30
180.0000
11
-10.6066
21
-10.6066
31
180.0000
0
LINE
8
EDGES
10
-10.6066
20
-10.6066
30
180.0000
11
-7.5000
21
-12.9904
31
180.0000
0
LINE
8
EDGES
10
-7.5000
20
-12.9904
30
180.0000
11
-3.8823
21
-14.4889
31
180.0000
0
LINE
8
EDGES
10
-3.8823
20
-14.4889
30
180.0000
11
-0.0000
21
-15.0000
31
180.0000
0
LINE
8
EDGES
10
-0.0000
20
-15.0000
30
180.0000
11
3.8823
21
-14.4889
31
180.0000
0
LINE
8
EDGES
10
3.8823
20
-14.4889
30
180.0000
11
7.5000
21
-12.9904
31
180.0000
0
LINE
8
EDGES
10
7.5000
20
-12.9904
30
180.0000
11
10.6066
21
-10.6066
31
180.0000
0
LINE
8
EDGES
10
10.6066
20
-10.6066
30
180.0000
11
12.9904
21
-7.5000
31
180.0000
0
LINE
8
EDGES
10
12.9904
20
-7.5000
30
180.0000
11
14.4889
21
-3.8823
31
180.0000
0
LINE
8
EDGES
10
14.4889
20
-3.8823
30
180.0000
11
15.0000
21
-0.0000
31
180.0000
0
LINE
8
EDGES
10
15.0000
20
0.0000
30
210.0000
11
14.4889
21
3.8823
31
210.0000
0
LINE
8
EDGES
10
14.4889
20
3.8823
30
210.0000
11
12.9904
21
7.5000
31
210.0000
0
LINE
8
EDGES
10
12.9904
20
7.5000
30
210.0000
11
10.6066
21
10.6066
31
210.0000
0
LINE
8
EDGES
10
10.6066
20
10.6066
30
210.0000
11
7.5000
21
12.9904
31
210.0000
0
LINE
8
EDGES
10
7.5000
20
12.9904
30
210.0000
11
3.8823
21
14.4889
31
210.0000
0
LINE
8
EDGES
10
3.8823
20
14.4889
30
210.0000
11
0.0000
21
15.0000
31
210.0000
0
LINE
8
EDGES
10
0.0000
20
15.0000
30
210.0000
11
-3.8823
21
14.4889
31
210.0000
0
LINE
8
EDGES
10
-3.8823
20
14.4889
30
210.0000
11
-7.5000
21
12.9904
31
210.0000
0
LINE
8
EDGES
10
-7.5000
20
12.9904
30
210.0000
11
-10.6066
21
10.6066
31
210.0000
0
LINE
8
EDGES
10
-10.6066
20
10.6066
30
210.0000
11
-12.9904
21
7.5000
31
210.0000
0
LINE
8
EDGES
10
-12.9904
20
7.5000
30
210.0000
11
-14.4889
21
3.8823
31
210.0000
0
LINE
8
EDGES
10
-14.4889
20
3.8823
30
210.0000
11
-15.0000
21
0.0000
31
210.0000
0
LINE
8
EDGES
10
-15.0000
20
0.0000
30
210.0000
11
-14.4889
21
-3.8823
31
210.0000
0
LINE
8
EDGES
10
-14.4889
20
-3.8823
30
210.0000
11
-12.9904
21
-7.5000
31
210.0000
0
LINE
8
EDGES
10
-12.9904
20
-7.5000
30
210.0000
11
-10.6066
21
-10.6066
31
210.0000
0
LINE
8
EDGES
10
-10.6066
20
-10.6066
30
210.0000
11
-7.5000
21
-12.9904
31
210.0000
0
LINE
8
EDGES
10
-7.5000
20
-12.9904
30
210.0000
11
-3.8823
21
-14.4889
31
210.0000
0
LINE
8
EDGES
10
-3.8823
20
-14.4889
30
210.0000
11
-0.0000
21
-15.0000
31
210.0000
0
LINE
8
EDGES
10
-0.0000
20
-15.0000
30
210.0000
11
3.8823
21
-14.4889
31
210.0000
0
LINE
8
EDGES
10
3.8823
20
-14.4889
30
210.0000
11
7.5000
21
-12.9904
31
210.0000
0
LINE
8
EDGES
10
7.5000
20
-12.9904
30
210.0000
11
10.6066
21
-10.6066
31
210.0000
0
LINE
8
EDGES
10
10.6066
20
-10.6066
30
210.0000
11
12.9904
21
-7.5000
31
210.0000
0
LINE
8
EDGES
10
12.9904
20
-7.5000
30
210.0000
11
14.4889
21
-3.8823
31
210.0000
0
LINE
8
EDGES
10
14.4889
20
-3.8823
30
210.0000
11
15.0000
21
-0.0000
31
210.0000
0
LINE
8
EDGES
10
15.0000
20
0.0000
30
180.0000
11
15.0000
21
0.0000
31
210.0000
0
LINE
8
EDGES
10
10.6066
20
10.6066
30
180.0000
11
10.6066
21
10.6066
31
210.0000
0
LINE
8
EDGES
10
0.0000
20
15.0000
30
180.0000
11
0.0000
21
15.0000
31
210.0000
0
LINE
8
EDGES
10
-10.6066
20
10.6066
30
180.0000
11
-10.6066
21
10.6066
31
210.0000
0
LINE
8
EDGES
10
-15.0000
20
0.0000
30
180.0000
11
-15.0000
21
0.0000
31
210.0000
0
LINE
8
EDGES
10
-10.6066
20
-10.6066
30
180.0000
11
-10.6066
21
-10.6066
31
210.0000
0
LINE
8
EDGES
10
-0.0000
20
-15.0000
30
180.0000
11
-0.0000
21
-15.0000
31
210.0000
0
LINE
8
EDGES
10
10.6066
20
-10.6066
30
180.0000
11
10.6066
21
-10.6066
31
210.0000
0
3DFACE
8
BODY
10
0.0000
20
0.0000
30
210.0000
11
15.0000
21
0.0000
31
210.0000
12
14.4889
22
3.8823
32
210.0000
13
14.4889
23
3.8823
33
210.0000
0
3DFACE
8
BODY
10
0.0000
20
0.0000
30
210.0000
11
14.4889
21
3.8823
31
210.0000
12
12.9904
22
7.5000
32
210.0000
13
12.9904
23
7.5000
33
210.0000
0
3DFACE
8
BODY
10
0.0000
20
0.0000
30
210.0000
11
12.9904
21
7.5000
31
210.0000
12
10.6066
22
10.6066
32
210.0000
13
10.6066
23
10.6066
33
210.0000
0
3DFACE
8
BODY
10
0.0000
20
0.0000
30
210.0000
11
10.6066
21
10.6066
31
210.0000
12
7.5000
22
12.9904
32
210.0000
13
7.5000
23
12.9904
33
210.0000
0
3DFACE
8
BODY
10
0.0000
20
0.0000
30
210.0000
11
7.5000
21
12.9904
31
210.0000
12
3.8823
22
14.4889
32
210.0000
13
3.8823
23
14.4889
33
210.0000
0
3DFACE
8
BODY
10
0.0000
20
0.0000
30
210.0000
11
3.8823
21
14.4889
31
210.0000
12
0.0000
22
15.0000
32
210.0000
13
0.0000
23
15.0000
33
210.0000
0
3DFACE
8
BODY
10
0.0000
20
0.0000
30
210.0000
11
0.0000
21
15.0000
31
210.0000
12
-3.8823
22
14.4889
32
210.0000
13
-3.8823
23
14.4889
33
210.0000
0
3DFACE
8
BODY
10
0.0000
20
0.0000
30
210.0000
11
-3.8823
21
14.4889
31
210.0000
12
-7.5000
22
12.9904
32
210.0000
13
-7.5000
23
12.9904
33
210.0000
0
3DFACE
8
BODY
10
0.0000
20
0.0000
30
210.0000
11
-7.5000
21
12.9904
31
210.0000
12
-10.6066
22
10.6066
32
210.0000
13
-10.6066
23
10.6066
33
210.0000
0
3DFACE
8
BODY
10
0.0000
20
0.0000
30
210.0000
11
-10.6066
21
10.6066
31
210.0000
12
-12.9904
22
7.5000
32
210.0000
13
-12.9904
23
7.5000
33
210.0000
0
3DFACE
8
BODY
10
0.0000
20
0.0000
30
210.0000
11
-12.9904
21
7.5000
31
210.0000
12
-14.4889
22
3.8823
32
210.0000
13
-14.4889
23
3.8823
33
210.0000
0
3DFACE
8
BODY
10
0.0000
20
0.0000
30
210.0000
11
-14.4889
21
3.8823
31
210.0000
12
-15.0000
22
0.0000
32
210.0000
13
-15.0000
23
0.0000
33
210.0000
0
3DFACE
8
BODY
10
0.0000
20
0.0000
30
210.0000
11
-15.0000
21
0.0000
31
210.0000
12
-14.4889
22
-3.8823
32
210.0000
13
-14.4889
23
-3.8823
33
210.0000
0
3DFACE
8
BODY
10
0.0000
20
0.0000
30
210.0000
11
-14.4889
21
-3.8823
31
210.0000
12
-12.9904
22
-7.5000
32
210.0000
13
-12.9904
23
-7.5000
33
210.0000
0
3DFACE
8
BODY
10
0.0000
20
0.0000
30
210.0000
11
-12.9904
21
-7.5000
31
210.0000
12
-10.6066
22
-10.6066
32
210.0000
13
-10.6066
23
-10.6066
33
210.0000
0
3DFACE
8
BODY
10
0.0000
20
0.0000
30
210.0000
11
-10.6066
21
-10.6066
31
210.0000
12
-7.5000
22
-12.9904
32
210.0000
13
-7.5000
23
-12.9904
33
210.0000
0
3DFACE
8
BODY
10
0.0000
20
0.0000
30
210.0000
11
-7.5000
21
-12.9904
31
210.0000
12
-3.8823
22
-14.4889
32
210.0000
13
-3.8823
23
-14.4889
33
210.0000
0
3DFACE
8
BODY
10
0.0000
20
0.0000
30
210.0000
11
-3.8823
21
-14.4889
31
210.0000
12
-0.0000
22
-15.0000
32
210.0000
13
-0.0000
23
-15.0000
33
210.0000
0
3DFACE
8
BODY
10
0.0000
20
0.0000
30
210.0000
11
-0.0000
21
-15.0000
31
210.0000
12
3.8823
22
-14.4889
32
210.0000
13
3.8823
23
-14.4889
33
210.0000
0
3DFACE
8
BODY
10
0.0000
20
0.0000
30
210.0000
11
3.8823
21
-14.4889
31
210.0000
12
7.5000
22
-12.9904
32
210.0000
13
7.5000
23
-12.9904
33
210.0000
0
3DFACE
8
BODY
10
0.0000
20
0.0000
30
210.0000
11
7.5000
21
-12.9904
31
210.0000
12
10.6066
22
-10.6066
32
210.0000
13
10.6066
23
-10.6066
33
210.0000
0
3DFACE
8
BODY
10
0.0000
20
0.0000
30
210.0000
11
10.6066
21
-10.6066
31
210.0000
12
12.9904
22
-7.5000
32
210.0000
13
12.9904
23
-7.5000
33
210.0000
0
3DFACE
8
BODY
10
0.0000
20
0.0000
30
210.0000
11
12.9904
21
-7.5000
31
210.0000
12
14.4889
22
-3.8823
32
210.0000
13
14.4889
23
-3.8823
33
210.0000
0
3DFACE
8
BODY
10
0.0000
20
0.0000
30
210.0000
11
14.4889
21
-3.8823
31
210.0000
12
15.0000
22
-0.0000
32
210.0000
13
15.0000
23
-0.0000
33
210.0000
0
3DFACE
8
BODY
10
60.0000
20
0.0000
30
20.0000
11
57.9555
21
15.5291
31
20.0000
12
28.9778
22
7.7646
32
20.0000
13
30.0000
23
0.0000
33
20.0000
0
3DFACE
8
BODY
10
57.9555
20
15.5291
30
20.0000
11
51.9615
21
30.0000
31
20.0000
12
25.9808
22
15.0000
32
20.0000
13
28.9778
23
7.7646
33
20.0000
0
3DFACE
8
BODY
10
51.9615
20
30.0000
30
20.0000
11
42.4264
21
42.4264
31
20.0000
12
21.2132
22
21.2132
32
20.0000
13
25.9808
23
15.0000
33
20.0000
0
3DFACE
8
BODY
10
42.4264
20
42.4264
30
20.0000
11
30.0000
21
51.9615
31
20.0000
12
15.0000
22
25.9808
32
20.0000
13
21.2132
23
21.2132
33
20.0000
0
3DFACE
8
BODY
10
30.0000
20
51.9615
30
20.0000
11
15.5291
21
57.9555
31
20.0000
12
7.7646
22
28.9778
32
20.0000
13
15.0000
23
25.9808
33
20.0000
0
3DFACE
8
BODY
10
15.5291
20
57.9555
30
20.0000
11
0.0000
21
60.0000
31
20.0000
12
0.0000
22
30.0000
32
20.0000
13
7.7646
23
28.9778
33
20.0000
0
3DFACE
8
BODY
10
0.0000
20
60.0000
30
20.0000
11
-15.5291
21
57.9555
31
20.0000
12
-7.7646
22
28.9778
32
20.0000
13
0.0000
23
30.0000
33
20.0000
0
3DFACE
8
BODY
10
-15.5291
20
57.9555
30
20.0000
11
-30.0000
21
51.9615
31
20.0000
12
-15.0000
22
25.9808
32
20.0000
13
-7.7646
23
28.9778
33
20.0000
0
3DFACE
8
BODY
10
-30.0000
20
51.9615
30
20.0000
11
-42.4264
21
42.4264
31
20.0000
12
-21.2132
22
21.2132
32
20.0000
13
-15.0000
23
25.9808
33
20.0000
0
3DFACE
8
BODY
10
-42.4264
20
42.4264
30
20.0000
11
-51.9615
21
30.0000
31
20.0000
12
-25.9808
22
15.0000
32
20.0000
13
-21.2132
23
21.2132
33
20.0000
0
3DFACE
8
BODY
10
-51.9615
20
30.0000
30
20.0000
11
-57.9555
21
15.5291
31
20.0000
12
-28.9778
22
7.7646
32
20.0000
13
-25.9808
23
15.0000
33
20.0000
0
3DFACE
8
BODY
10
-57.9555
20
15.5291
30
20.0000
11
-60.0000
21
0.0000
31
20.0000
12
-30.0000
22
0.0000
32
20.0000
13
-28.9778
23
7.7646
33
20.0000
0
3DFACE
8
BODY
10
-60.0000
20
0.0000
30
20.0000
11
-57.9555
21
-15.5291
31
20.0000
12
-28.9778
22
-7.7646
32
20.0000
13
-30.0000
23
0.0000
33
20.0000
0
3DFACE
8
BODY
10
-57.9555
20
-15.5291
30
20.0000
11
-51.9615
21
-30.0000
31
20.0000
12
-25.9808
22
-15.0000
32
20.0000
13
-28.9778
23
-7.7646
33
20.0000
0
3DFACE
8
BODY
10
-51.9615
20
-30.0000
30
20.0000
11
-42.4264
21
-42.4264
31
20.0000
12
-21.2132
22
-21.2132
32
20.0000
13
-25.9808
23
-15.0000
33
20.0000
0
3DFACE
8
BODY
10
-42.4264
20
-42.4264
30
20.0000
11
-30.0000
21
-51.9615
31
20.0000
12
-15.0000
22
-25.9808
32
20.0000
13
-21.2132
23
-21.2132
33
20.0000
0
3DFACE
8
BODY
10
-30.0000
20
-51.9615
30
20.0000
11
-15.5291
21
-57.9555
31
20.0000
12
-7.7646
22
-28.9778
32
20.0000
13
-15.0000
23
-25.9808
33
20.0000
0
3DFACE
8
BODY
10
-15.5291
20
-57.9555
30
20.0000
11
-0.0000
21
-60.0000
31
20.0000
12
-0.0000
22
-30.0000
32
20.0000
13
-7.7646
23
-28.9778
33
20.0000
0
3DFACE
8
BODY
10
-0.0000
20
-60.0000
30
20.0000
11
15.5291
21
-57.9555
31
20.0000
12
7.7646
22
-28.9778
32
20.0000
13
-0.0000
23
-30.0000
33
20.0000
0
3DFACE
8
BODY
10
15.5291
20
-57.9555
30
20.0000
11
30.0000
21
-51.9615
31
20.0000
12
15.0000
22
-25.9808
32
20.0000
13
7.7646
23
-28.9778
33
20.0000
0
3DFACE
8
BODY
10
30.0000
20
-51.9615
30
20.0000
11
42.4264
21
-42.4264
31
20.0000
12
21.2132
22
-21.2132
32
20.0000
13
15.0000
23
-25.9808
33
20.0000
0
3DFACE
8
BODY
10
42.4264
20
-42.4264
30
20.0000
11
51.9615
21
-30.0000
31
20.0000
12
25.9808
22
-15.0000
32
20.0000
13
21.2132
23
-21.2132
33
20.0000
0
3DFACE
8
BODY
10
51.9615
20
-30.0000
30
20.0000
11
57.9555
21
-15.5291
31
20.0000
12
28.9778
22
-7.7646
32
20.0000
13
25.9808
23
-15.0000
33
20.0000
0
3DFACE
8
BODY
10
57.9555
20
-15.5291
30
20.0000
11
60.0000
21
0.0000
31
20.0000
12
30.0000
22
0.0000
32
20.0000
13
28.9778
23
-7.7646
33
20.0000
0
3DFACE
8
BODY
10
30.0000
20
0.0000
30
100.0000
11
28.9778
21
7.7646
31
100.0000
12
48.2963
22
12.9410
32
100.0000
13
50.0000
23
0.0000
33
100.0000
0
3DFACE
8
BODY
10
28.9778
20
7.7646
30
100.0000
11
25.9808
21
15.0000
31
100.0000
12
43.3013
22
25.0000
32
100.0000
13
48.2963
23
12.9410
33
100.0000
0
3DFACE
8
BODY
10
25.9808
20
15.0000
30
100.0000
11
21.2132
21
21.2132
31
100.0000
12
35.3553
22
35.3553
32
100.0000
13
43.3013
23
25.0000
33
100.0000
0
3DFACE
8
BODY
10
21.2132
20
21.2132
30
100.0000
11
15.0000
21
25.9808
31
100.0000
12
25.0000
22
43.3013
32
100.0000
13
35.3553
23
35.3553
33
100.0000
0
3DFACE
8
BODY
10
15.0000
20
25.9808
30
100.0000
11
7.7646
21
28.9778
31
100.0000
12
12.9410
22
48.2963
32
100.0000
13
25.0000
23
43.3013
33
100.0000
0
3DFACE
8
BODY
10
7.7646
20
28.9778
30
100.0000
11
0.0000
21
30.0000
31
100.0000
12
0.0000
22
50.0000
32
100.0000
13
12.9410
23
48.2963
33
100.0000
0
3DFACE
8
BODY
10
0.0000
20
30.0000
30
100.0000
11
-7.7646
21
28.9778
31
100.0000
12
-12.9410
22
48.2963
32
100.0000
13
0.0000
23
50.0000
33
100.0000
0
3DFACE
8
BODY
10
-7.7646
20
28.9778
30
100.0000
11
-15.0000
21
25.9808
31
100.0000
12
-25.0000
22
43.3013
32
100.0000
13
-12.9410
23
48.2963
33
100.0000
0
3DFACE
8
BODY
10
-15.0000
20
25.9808
30
100.0000
11
-21.2132
21
21.2132
31
100.0000
12
-35.3553
22
35.3553
32
100.0000
13
-25.0000
23
43.3013
33
100.0000
0
3DFACE
8
BODY
10
-21.2132
20
21.2132
30
100.0000
11
-25.9808
21
15.0000
31
100.0000
12
-43.3013
22
25.0000
32
100.0000
13
-35.3553
23
35.3553
33
100.0000
0
3DFACE
8
BODY
10
-25.9808
20
15.0000
30
100.0000
11
-28.9778
21
7.7646
31
100.0000
12
-48.2963
22
12.9410
32
100.0000
13
-43.3013
23
25.0000
33
100.0000
0
3DFACE
8
BODY
10
-28.9778
20
7.7646
30
100.0000
11
-30.0000
21
0.0000
31
100.0000
12
-50.0000
22
0.0000
32
100.0000
13
-48.2963
23
12.9410
33
100.0000
0
3DFACE
8
BODY
10
-30.0000
20
0.0000
30
100.0000
11
-28.9778
21
-7.7646
31
100.0000
12
-48.2963
22
-12.9410
32
100.0000
13
-50.0000
23
0.0000
33
100.0000
0
3DFACE
8
BODY
10
-28.9778
20
-7.7646
30
100.0000
11
-25.9808
21
-15.0000
31
100.0000
12
-43.3013
22
-25.0000
32
100.0000
13
-48.2963
23
-12.9410
33
100.0000
0
3DFACE
8
BODY
10
-25.9808
20
-15.0000
30
100.0000
11
-21.2132
21
-21.2132
31
100.0000
12
-35.3553
22
-35.3553
32
100.0000
13
-43.3013
23
-25.0000
33
100.0000
0
3DFACE
8
BODY
10
-21.2132
20
-21.2132
30
100.0000
11
-15.0000
21
-25.9808
31
100.0000
12
-25.0000
22
-43.3013
32
100.0000
13
-35.3553
23
-35.3553
33
100.0000
0
3DFACE
8
BODY
10
-15.0000
20
-25.9808
30
100.0000
11
-7.7646
21
-28.9778
31
100.0000
12
-12.9410
22
-48.2963
32
100.0000
13
-25.0000
23
-43.3013
33
100.0000
0
3DFACE
8
BODY
10
-7.7646
20
-28.9778
30
100.0000
11
-0.0000
21
-30.0000
31
100.0000
12
-0.0000
22
-50.0000
32
100.0000
13
-12.9410
23
-48.2963
33
100.0000
0
3DFACE
8
BODY
10
-0.0000
20
-30.0000
30
100.0000
11
7.7646
21
-28.9778
31
100.0000
12
12.9410
22
-48.2963
32
100.0000
13
-0.0000
23
-50.0000
33
100.0000
0
3DFACE
8
BODY
10
7.7646
20
-28.9778
30
100.0000
11
15.0000
21
-25.9808
31
100.0000
12
25.0000
22
-43.3013
32
100.0000
13
12.9410
23
-48.2963
33
100.0000
0
3DFACE
8
BODY
10
15.0000
20
-25.9808
30
100.0000
11
21.2132
21
-21.2132
31
100.0000
12
35.3553
22
-35.3553
32
100.0000
13
25.0000
23
-43.3013
33
100.0000
0
3DFACE
8
BODY
10
21.2132
20
-21.2132
30
100.0000
11
25.9808
21
-15.0000
31
100.0000
12
43.3013
22
-25.0000
32
100.0000
13
35.3553
23
-35.3553
33
100.0000
0
3DFACE
8
BODY
10
25.9808
20
-15.0000
30
100.0000
11
28.9778
21
-7.7646
31
100.0000
12
48.2963
22
-12.9410
32
100.0000
13
43.3013
23
-25.0000
33
100.0000
0
3DFACE
8
BODY
10
28.9778
20
-7.7646
30
100.0000
11
30.0000
21
0.0000
31
100.0000
12
50.0000
22
0.0000
32
100.0000
13
48.2963
23
-12.9410
33
100.0000
0
3DFACE
8
BODY
10
50.0000
20
0.0000
30
120.0000
11
48.2963
21
12.9410
31
120.0000
12
19.3185
22
5.1764
32
120.0000
13
20.0000
23
0.0000
33
120.0000
0
3DFACE
8
BODY
10
48.2963
20
12.9410
30
120.0000
11
43.3013
21
25.0000
31
120.0000
12
17.3205
22
10.0000
32
120.0000
13
19.3185
23
5.1764
33
120.0000
0
3DFACE
8
BODY
10
43.3013
20
25.0000
30
120.0000
11
35.3553
21
35.3553
31
120.0000
12
14.1421
22
14.1421
32
120.0000
13
17.3205
23
10.0000
33
120.0000
0
3DFACE
8
BODY
10
35.3553
20
35.3553
30
120.0000
11
25.0000
21
43.3013
31
120.0000
12
10.0000
22
17.3205
32
120.0000
13
14.1421
23
14.1421
33
120.0000
0
3DFACE
8
BODY
10
25.0000
20
43.3013
30
120.0000
11
12.9410
21
48.2963
31
120.0000
12
5.1764
22
19.3185
32
120.0000
13
10.0000
23
17.3205
33
120.0000
0
3DFACE
8
BODY
10
12.9410
20
48.2963
30
120.0000
11
0.0000
21
50.0000
31
120.0000
12
0.0000
22
20.0000
32
120.0000
13
5.1764
23
19.3185
33
120.0000
0
3DFACE
8
BODY
10
0.0000
20
50.0000
30
120.0000
11
-12.9410
21
48.2963
31
120.0000
12
-5.1764
22
19.3185
32
120.0000
13
0.0000
23
20.0000
33
120.0000
0
3DFACE
8
BODY
10
-12.9410
20
48.2963
30
120.0000
11
-25.0000
21
43.3013
31
120.0000
12
-10.0000
22
17.3205
32
120.0000
13
-5.1764
23
19.3185
33
120.0000
0
3DFACE
8
BODY
10
-25.0000
20
43.3013
30
120.0000
11
-35.3553
21
35.3553
31
120.0000
12
-14.1421
22
14.1421
32
120.0000
13
-10.0000
23
17.3205
33
120.0000
0
3DFACE
8
BODY
10
-35.3553
20
35.3553
30
120.0000
11
-43.3013
21
25.0000
31
120.0000
12
-17.3205
22
10.0000
32
120.0000
13
-14.1421
23
14.1421
33
120.0000
0
3DFACE
8
BODY
10
-43.3013
20
25.0000
30
120.0000
11
-48.2963
21
12.9410
31
120.0000
12
-19.3185
22
5.1764
32
120.0000
13
-17.3205
23
10.0000
33
120.0000
0
3DFACE
8
BODY
10
-48.2963
20
12.9410
30
120.0000
11
-50.0000
21
0.0000
31
120.0000
12
-20.0000
22
0.0000
32
120.0000
13
-19.3185
23
5.1764
33
120.0000
0
3DFACE
8
BODY
10
-50.0000
20
0.0000
30
120.0000
11
-48.2963
21
-12.9410
31
120.0000
12
-19.3185
22
-5.1764
32
120.0000
13
-20.0000
23
0.0000
33
120.0000
0
3DFACE
8
BODY
10
-48.2963
20
-12.9410
30
120.0000
11
-43.3013
21
-25.0000
31
120.0000
12
-17.3205
22
-10.0000
32
120.0000
13
-19.3185
23
-5.1764
33
120.0000
0
3DFACE
8
BODY
10
-43.3013
20
-25.0000
30
120.0000
11
-35.3553
21
-35.3553
31
120.0000
12
-14.1421
22
-14.1421
32
120.0000
13
-17.3205
23
-10.0000
33
120.0000
0
3DFACE
8
BODY
10
-35.3553
20
-35.3553
30
120.0000
11
-25.0000
21
-43.3013
31
120.0000
12
-10.0000
22
-17.3205
32
120.0000
13
-14.1421
23
-14.1421
33
120.0000
0
3DFACE
8
BODY
10
-25.0000
20
-43.3013
30
120.0000
11
-12.9410
21
-48.2963
31
120.0000
12
-5.1764
22
-19.3185
32
120.0000
13
-10.0000
23
-17.3205
33
120.0000
0
3DFACE
8
BODY
10
-12.9410
20
-48.2963
30
120.0000
11
-0.0000
21
-50.0000
31
120.0000
12
-0.0000
22
-20.0000
32
120.0000
13
-5.1764
23
-19.3185
33
120.0000
0
3DFACE
8
BODY
10
-0.0000
20
-50.0000
30
120.0000
11
12.9410
21
-48.2963
31
120.0000
12
5.1764
22
-19.3185
32
120.0000
13
-0.0000
23
-20.0000
33
120.0000
0
3DFACE
8
BODY
10
12.9410
20
-48.2963
30
120.0000
11
25.0000
21
-43.3013
31
120.0000
12
10.0000
22
-17.3205
32
120.0000
13
5.1764
23
-19.3185
33
120.0000
0
3DFACE
8
BODY
10
25.0000
20
-43.3013
30
120.0000
11
35.3553
21
-35.3553
31
120.0000
12
14.1421
22
-14.1421
32
120.0000
13
10.0000
23
-17.3205
33
120.0000
0
3DFACE
8
BODY
10
35.3553
20
-35.3553
30
120.0000
11
43.3013
21
-25.0000
31
120.0000
12
17.3205
22
-10.0000
32
120.0000
13
14.1421
23
-14.1421
33
120.0000
0
3DFACE
8
BODY
10
43.3013
20
-25.0000
30
120.0000
11
48.2963
21
-12.9410
31
120.0000
12
19.3185
22
-5.1764
32
120.0000
13
17.3205
23
-10.0000
33
120.0000
0
3DFACE
8
BODY
10
48.2963
20
-12.9410
30
120.0000
11
50.0000
21
0.0000
31
120.0000
12
20.0000
22
0.0000
32
120.0000
13
19.3185
23
-5.1764
33
120.0000
0
3DFACE
8
BODY
10
20.0000
20
0.0000
30
180.0000
11
19.3185
21
5.1764
31
180.0000
12
14.4889
22
3.8823
32
180.0000
13
15.0000
23
0.0000
33
180.0000
0
3DFACE
8
BODY
10
19.3185
20
5.1764
30
180.0000
11
17.3205
21
10.0000
31
180.0000
12
12.9904
22
7.5000
32
180.0000
13
14.4889
23
3.8823
33
180.0000
0
3DFACE
8
BODY
10
17.3205
20
10.0000
30
180.0000
11
14.1421
21
14.1421
31
180.0000
12
10.6066
22
10.6066
32
180.0000
13
12.9904
23
7.5000
33
180.0000
0
3DFACE
8
BODY
10
14.1421
20
14.1421
30
180.0000
11
10.0000
21
17.3205
31
180.0000
12
7.5000
22
12.9904
32
180.0000
13
10.6066
23
10.6066
33
180.0000
0
3DFACE
8
BODY
10
10.0000
20
17.3205
30
180.0000
11
5.1764
21
19.3185
31
180.0000
12
3.8823
22
14.4889
32
180.0000
13
7.5000
23
12.9904
33
180.0000
0
3DFACE
8
BODY
10
5.1764
20
19.3185
30
180.0000
11
0.0000
21
20.0000
31
180.0000
12
0.0000
22
15.0000
32
180.0000
13
3.8823
23
14.4889
33
180.0000
0
3DFACE
8
BODY
10
0.0000
20
20.0000
30
180.0000
11
-5.1764
21
19.3185
31
180.0000
12
-3.8823
22
14.4889
32
180.0000
13
0.0000
23
15.0000
33
180.0000
0
3DFACE
8
BODY
10
-5.1764
20
19.3185
30
180.0000
11
-10.0000
21
17.3205
31
180.0000
12
-7.5000
22
12.9904
32
180.0000
13
-3.8823
23
14.4889
33
180.0000
0
3DFACE
8
BODY
10
-10.0000
20
17.3205
30
180.0000
11
-14.1421
21
14.1421
31
180.0000
12
-10.6066
22
10.6066
32
180.0000
13
-7.5000
23
12.9904
33
180.0000
0
3DFACE
8
BODY
10
-14.1421
20
14.1421
30
180.0000
11
-17.3205
21
10.0000
31
180.0000
12
-12.9904
22
7.5000
32
180.0000
13
-10.6066
23
10.6066
33
180.0000
0
3DFACE
8
BODY
10
-17.3205
20
10.0000
30
180.0000
11
-19.3185
21
5.1764
31
180.0000
12
-14.4889
22
3.8823
32
180.0000
13
-12.9904
23
7.5000
33
180.0000
0
3DFACE
8
BODY
10
-19.3185
20
5.1764
30
180.0000
11
-20.0000
21
0.0000
31
180.0000
12
-15.0000
22
0.0000
32
180.0000
13
-14.4889
23
3.8823
33
180.0000
0
3DFACE
8
BODY
10
-20.0000
20
0.0000
30
180.0000
11
-19.3185
21
-5.1764
31
180.0000
12
-14.4889
22
-3.8823
32
180.0000
13
-15.0000
23
0.0000
33
180.0000
0
3DFACE
8
BODY
10
-19.3185
20
-5.1764
30
180.0000
11
-17.3205
21
-10.0000
31
180.0000
12
-12.9904
22
-7.5000
32
180.0000
13
-14.4889
23
-3.8823
33
180.0000
0
3DFACE
8
BODY
10
-17.3205
20
-10.0000
30
180.0000
11
-14.1421
21
-14.1421
31
180.0000
12
-10.6066
22
-10.6066
32
180.0000
13
-12.9904
23
-7.5000
33
180.0000
0
3DFACE
8
BODY
10
-14.1421
20
-14.1421
30
180.0000
11
-10.0000
21
-17.3205
31
180.0000
12
-7.5000
22
-12.9904
32
180.0000
13
-10.6066
23
-10.6066
33
180.0000
0
3DFACE
8
BODY
10
-10.0000
20
-17.3205
30
180.0000
11
-5.1764
21
-19.3185
31
180.0000
12
-3.8823
22
-14.4889
32
180.0000
13
-7.5000
23
-12.9904
33
180.0000
0
3DFACE
8
BODY
10
-5.1764
20
-19.3185
30
180.0000
11
-0.0000
21
-20.0000
31
180.0000
12
-0.0000
22
-15.0000
32
180.0000
13
-3.8823
23
-14.4889
33
180.0000
0
3DFACE
8
BODY
10
-0.0000
20
-20.0000
30
180.0000
11
5.1764
21
-19.3185
31
180.0000
12
3.8823
22
-14.4889
32
180.0000
13
-0.0000
23
-15.0000
33
180.0000
0
3DFACE
8
BODY
10
5.1764
20
-19.3185
30
180.0000
11
10.0000
21
-17.3205
31
180.0000
12
7.5000
22
-12.9904
32
180.0000
13
3.8823
23
-14.4889
33
180.0000
0
3DFACE
8
BODY
10
10.0000
20
-17.3205
30
180.0000
11
14.1421
21
-14.1421
31
180.0000
12
10.6066
22
-10.6066
32
180.0000
13
7.5000
23
-12.9904
33
180.0000
0
3DFACE
8
BODY
10
14.1421
20
-14.1421
30
180.0000
11
17.3205
21
-10.0000
31
180.0000
12
12.9904
22
-7.5000
32
180.0000
13
10.6066
23
-10.6066
33
180.0000
0
3DFACE
8
BODY
10
17.3205
20
-10.0000
30
180.0000
11
19.3185
21
-5.1764
31
180.0000
12
14.4889
22
-3.8823
32
180.0000
13
12.9904
23
-7.5000
33
180.0000
0
3DFACE
8
BODY
10
19.3185
20
-5.1764
30
180.0000
11
20.0000
21
0.0000
31
180.0000
12
15.0000
22
0.0000
32
180.0000
13
14.4889
23
-3.8823
33
180.0000
0
LINE
8
HOLES
10
8.0000
20
0.0000
30
0.0000
11
6.9282
21
4.0000
31
0.0000
0
LINE
8
HOLES
10
6.9282
20
4.0000
30
0.0000
11
4.0000
21
6.9282
31
0.0000
0
LINE
8
HOLES
10
4.0000
20
6.9282
30
0.0000
11
0.0000
21
8.0000
31
0.0000
0
LINE
8
HOLES
10
0.0000
20
8.0000
30
0.0000
11
-4.0000
21
6.9282
31
0.0000
0
LINE
8
HOLES
10
-4.0000
20
6.9282
30
0.0000
11
-6.9282
21
4.0000
31
0.0000
0
LINE
8
HOLES
10
-6.9282
20
4.0000
30
0.0000
11
-8.0000
21
0.0000
31
0.0000
0
LINE
8
HOLES
10
-8.0000
20
0.0000
30
0.0000
11
-6.9282
21
-4.0000
31
0.0000
0
LINE
8
HOLES
10
-6.9282
20
-4.0000
30
0.0000
11
-4.0000
21
-6.9282
31
0.0000
0
LINE
8
HOLES
10
-4.0000
20
-6.9282
30
0.0000
11
-0.0000
21
-8.0000
31
0.0000
0
LINE
8
HOLES
10
-0.0000
20
-8.0000
30
0.0000
11
4.0000
21
-6.9282
31
0.0000
0
LINE
8
HOLES
10
4.0000
20
-6.9282
30
0.0000
11
6.9282
21
-4.0000
31
0.0000
0
LINE
8
HOLES
10
6.9282
20
-4.0000
30
0.0000
11
8.0000
21
-0.0000
31
0.0000
0
LINE
8
HOLES
10
8.0000
20
0.0000
30
210.0000
11
6.9282
21
4.0000
31
210.0000
0
LINE
8
HOLES
10
6.9282
20
4.0000
30
210.0000
11
4.0000
21
6.9282
31
210.0000
0
LINE
8
HOLES
10
4.0000
20
6.9282
30
210.0000
11
0.0000
21
8.0000
31
210.0000
0
LINE
8
HOLES
10
0.0000
20
8.0000
30
210.0000
11
-4.0000
21
6.9282
31
210.0000
0
LINE
8
HOLES
10
-4.0000
20
6.9282
30
210.0000
11
-6.9282
21
4.0000
31
210.0000
0
LINE
8
HOLES
10
-6.9282
20
4.0000
30
210.0000
11
-8.0000
21
0.0000
31
210.0000
0
LINE
8
HOLES
10
-8.0000
20
0.0000
30
210.0000
11
-6.9282
21
-4.0000
31
210.0000
0
LINE
8
HOLES
10
-6.9282
20
-4.0000
30
210.0000
11
-4.0000
21
-6.9282
31
210.0000
0
LINE
8
HOLES
10
-4.0000
20
-6.9282
30
210.0000
11
-0.0000
21
-8.0000
31
210.0000
0
LINE
8
HOLES
10
-0.0000
20
-8.0000
30
210.0000
11
4.0000
21
-6.9282
31
210.0000
0
LINE
8
HOLES
10
4.0000
20
-6.9282
30
210.0000
11
6.9282
21
-4.0000
31
210.0000
0
LINE
8
HOLES
10
6.9282
20
-4.0000
30
210.0000
11
8.0000
21
-0.0000
31
210.0000
0
LINE
8
HOLES
10
8.0000
20
0.0000
30
0.0000
11
8.0000
21
0.0000
31
210.0000
0
LINE
8
HOLES
10
5.6569
20
5.6569
30
0.0000
11
5.6569
21
5.6569
31
210.0000
0
LINE
8
HOLES
10
0.0000
20
8.0000
30
0.0000
11
0.0000
21
8.0000
31
210.0000
0
LINE
8
HOLES
10
-5.6569
20
5.6569
30
0.0000
11
-5.6569
21
5.6569
31
210.0000
0
LINE
8
HOLES
10
-8.0000
20
0.0000
30
0.0000
11
-8.0000
21
0.0000
31
210.0000
0
LINE
8
HOLES
10
-5.6569
20
-5.6569
30
0.0000
11
-5.6569
21
-5.6569
31
210.0000
0
LINE
8
HOLES
10
-0.0000
20
-8.0000
30
0.0000
11
-0.0000
21
-8.0000
31
210.0000
0
LINE
8
HOLES
10
5.6569
20
-5.6569
30
0.0000
11
5.6569
21
-5.6569
31
210.0000
0
3DFACE
8
HOLES
10
8.0000
20
0.0000
30
0.0000
11
6.9282
21
4.0000
31
0.0000
12
6.9282
22
4.0000
32
210.0000
13
8.0000
23
0.0000
33
210.0000
0
3DFACE
8
HOLES
10
6.9282
20
4.0000
30
0.0000
11
4.0000
21
6.9282
31
0.0000
12
4.0000
22
6.9282
32
210.0000
13
6.9282
23
4.0000
33
210.0000
0
3DFACE
8
HOLES
10
4.0000
20
6.9282
30
0.0000
11
0.0000
21
8.0000
31
0.0000
12
0.0000
22
8.0000
32
210.0000
13
4.0000
23
6.9282
33
210.0000
0
3DFACE
8
HOLES
10
0.0000
20
8.0000
30
0.0000
11
-4.0000
21
6.9282
31
0.0000
12
-4.0000
22
6.9282
32
210.0000
13
0.0000
23
8.0000
33
210.0000
0
3DFACE
8
HOLES
10
-4.0000
20
6.9282
30
0.0000
11
-6.9282
21
4.0000
31
0.0000
12
-6.9282
22
4.0000
32
210.0000
13
-4.0000
23
6.9282
33
210.0000
0
3DFACE
8
HOLES
10
-6.9282
20
4.0000
30
0.0000
11
-8.0000
21
0.0000
31
0.0000
12
-8.0000
22
0.0000
32
210.0000
13
-6.9282
23
4.0000
33
210.0000
0
3DFACE
8
HOLES
10
-8.0000
20
0.0000
30
0.0000
11
-6.9282
21
-4.0000
31
0.0000
12
-6.9282
22
-4.0000
32
210.0000
13
-8.0000
23
0.0000
33
210.0000
0
3DFACE
8
HOLES
10
-6.9282
20
-4.0000
30
0.0000
11
-4.0000
21
-6.9282
31
0.0000
12
-4.0000
22
-6.9282
32
210.0000
13
-6.9282
23
-4.0000
33
210.0000
0
3DFACE
8
HOLES
10
-4.0000
20
-6.9282
30
0.0000
11
-0.0000
21
-8.0000
31
0.0000
12
-0.0000
22
-8.0000
32
210.0000
13
-4.0000
23
-6.9282
33
210.0000
0
3DFACE
8
HOLES
10
-0.0000
20
-8.0000
30
0.0000
11
4.0000
21
-6.9282
31
0.0000
12
4.0000
22
-6.9282
32
210.0000
13
-0.0000
23
-8.0000
33
210.0000
0
3DFACE
8
HOLES
10
4.0000
20
-6.9282
30
0.0000
11
6.9282
21
-4.0000
31
0.0000
12
6.9282
22
-4.0000
32
210.0000
13
4.0000
23
-6.9282
33
210.0000
0
3DFACE
8
HOLES
10
6.9282
20
-4.0000
30
0.0000
11
8.0000
21
0.0000
31
0.0000
12
8.0000
22
0.0000
32
210.0000
13
6.9282
23
-4.0000
33
210.0000
0
LINE
8
HOLES
10
37.8198
20
31.8198
30
0.0000
11
37.0160
21
34.8198
31
0.0000
0
LINE
8
HOLES
10
37.0160
20
34.8198
30
0.0000
11
34.8198
21
37.0160
31
0.0000
0
LINE
8
HOLES
10
34.8198
20
37.0160
30
0.0000
11
31.8198
21
37.8198
31
0.0000
0
LINE
8
HOLES
10
31.8198
20
37.8198
30
0.0000
11
28.8198
21
37.0160
31
0.0000
0
LINE
8
HOLES
10
28.8198
20
37.0160
30
0.0000
11
26.6237
21
34.8198
31
0.0000
0
LINE
8
HOLES
10
26.6237
20
34.8198
30
0.0000
11
25.8198
21
31.8198
31
0.0000
0
LINE
8
HOLES
10
25.8198
20
31.8198
30
0.0000
11
26.6237
21
28.8198
31
0.0000
0
LINE
8
HOLES
10
26.6237
20
28.8198
30
0.0000
11
28.8198
21
26.6237
31
0.0000
0
LINE
8
HOLES
10
28.8198
20
26.6237
30
0.0000
11
31.8198
21
25.8198
31
0.0000
0
LINE
8
HOLES
10
31.8198
20
25.8198
30
0.0000
11
34.8198
21
26.6237
31
0.0000
0
LINE
8
HOLES
10
34.8198
20
26.6237
30
0.0000
11
37.0160
21
28.8198
31
0.0000
0
LINE
8
HOLES
10
37.0160
20
28.8198
30
0.0000
11
37.8198
21
31.8198
31
0.0000
0
LINE
8
HOLES
10
37.8198
20
31.8198
30
20.0000
11
37.0160
21
34.8198
31
20.0000
0
LINE
8
HOLES
10
37.0160
20
34.8198
30
20.0000
11
34.8198
21
37.0160
31
20.0000
0
LINE
8
HOLES
10
34.8198
20
37.0160
30
20.0000
11
31.8198
21
37.8198
31
20.0000
0
LINE
8
HOLES
10
31.8198
20
37.8198
30
20.0000
11
28.8198
21
37.0160
31
20.0000
0
LINE
8
HOLES
10
28.8198
20
37.0160
30
20.0000
11
26.6237
21
34.8198
31
20.0000
0
LINE
8
HOLES
10
26.6237
20
34.8198
30
20.0000
11
25.8198
21
31.8198
31
20.0000
0
LINE
8
HOLES
10
25.8198
20
31.8198
30
20.0000
11
26.6237
21
28.8198
31
20.0000
0
LINE
8
HOLES
10
26.6237
20
28.8198
30
20.0000
11
28.8198
21
26.6237
31
20.0000
0
LINE
8
HOLES
10
28.8198
20
26.6237
30
20.0000
11
31.8198
21
25.8198
31
20.0000
0
LINE
8
HOLES
10
31.8198
20
25.8198
30
20.0000
11
34.8198
21
26.6237
31
20.0000
0
LINE
8
HOLES
10
34.8198
20
26.6237
30
20.0000
11
37.0160
21
28.8198
31
20.0000
0
LINE
8
HOLES
10
37.0160
20
28.8198
30
20.0000
11
37.8198
21
31.8198
31
20.0000
0
LINE
8
HOLES
10
37.8198
20
31.8198
30
0.0000
11
37.8198
21
31.8198
31
20.0000
0
LINE
8
HOLES
10
36.0624
20
36.0624
30
0.0000
11
36.0624
21
36.0624
31
20.0000
0
LINE
8
HOLES
10
31.8198
20
37.8198
30
0.0000
11
31.8198
21
37.8198
31
20.0000
0
LINE
8
HOLES
10
27.5772
20
36.0624
30
0.0000
11
27.5772
21
36.0624
31
20.0000
0
LINE
8
HOLES
10
25.8198
20
31.8198
30
0.0000
11
25.8198
21
31.8198
31
20.0000
0
LINE
8
HOLES
10
27.5772
20
27.5772
30
0.0000
11
27.5772
21
27.5772
31
20.0000
0
LINE
8
HOLES
10
31.8198
20
25.8198
30
0.0000
11
31.8198
21
25.8198
31
20.0000
0
LINE
8
HOLES
10
36.0624
20
27.5772
30
0.0000
11
36.0624
21
27.5772
31
20.0000
0
LINE
8
HOLES
10
-25.8198
20
31.8198
30
0.0000
11
-26.6237
21
34.8198
31
0.0000
0
LINE
8
HOLES
10
-26.6237
20
34.8198
30
0.0000
11
-28.8198
21
37.0160
31
0.0000
0
LINE
8
HOLES
10
-28.8198
20
37.0160
30
0.0000
11
-31.8198
21
37.8198
31
0.0000
0
LINE
8
HOLES
10
-31.8198
20
37.8198
30
0.0000
11
-34.8198
21
37.0160
31
0.0000
0
LINE
8
HOLES
10
-34.8198
20
37.0160
30
0.0000
11
-37.0160
21
34.8198
31
0.0000
0
LINE
8
HOLES
10
-37.0160
20
34.8198
30
0.0000
11
-37.8198
21
31.8198
31
0.0000
0
LINE
8
HOLES
10
-37.8198
20
31.8198
30
0.0000
11
-37.0160
21
28.8198
31
0.0000
0
LINE
8
HOLES
10
-37.0160
20
28.8198
30
0.0000
11
-34.8198
21
26.6237
31
0.0000
0
LINE
8
HOLES
10
-34.8198
20
26.6237
30
0.0000
11
-31.8198
21
25.8198
31
0.0000
0
LINE
8
HOLES
10
-31.8198
20
25.8198
30
0.0000
11
-28.8198
21
26.6237
31
0.0000
0
LINE
8
HOLES
10
-28.8198
20
26.6237
30
0.0000
11
-26.6237
21
28.8198
31
0.0000
0
LINE
8
HOLES
10
-26.6237
20
28.8198
30
0.0000
11
-25.8198
21
31.8198
31
0.0000
0
LINE
8
HOLES
10
-25.8198
20
31.8198
30
20.0000
11
-26.6237
21
34.8198
31
20.0000
0
LINE
8
HOLES
10
-26.6237
20
34.8198
30
20.0000
11
-28.8198
21
37.0160
31
20.0000
0
LINE
8
HOLES
10
-28.8198
20
37.0160
30
20.0000
11
-31.8198
21
37.8198
31
20.0000
0
LINE
8
HOLES
10
-31.8198
20
37.8198
30
20.0000
11
-34.8198
21
37.0160
31
20.0000
0
LINE
8
HOLES
10
-34.8198
20
37.0160
30
20.0000
11
-37.0160
21
34.8198
31
20.0000
0
LINE
8
HOLES
10
-37.0160
20
34.8198
30
20.0000
11
-37.8198
21
31.8198
31
20.0000
0
LINE
8
HOLES
10
-37.8198
20
31.8198
30
20.0000
11
-37.0160
21
28.8198
31
20.0000
0
LINE
8
HOLES
10
-37.0160
20
28.8198
30
20.0000
11
-34.8198
21
26.6237
31
20.0000
0
LINE
8
HOLES
10
-34.8198
20
26.6237
30
20.0000
11
-31.8198
21
25.8198
31
20.0000
0
LINE
8
HOLES
10
-31.8198
20
25.8198
30
20.0000
11
-28.8198
21
26.6237
31
20.0000
0
LINE
8
HOLES
10
-28.8198
20
26.6237
30
20.0000
11
-26.6237
21
28.8198
31
20.0000
0
LINE
8
HOLES
10
-26.6237
20
28.8198
30
20.0000
11
-25.8198
21
31.8198
31
20.0000
0
LINE
8
HOLES
10
-25.8198
20
31.8198
30
0.0000
11
-25.8198
21
31.8198
31
20.0000
0
LINE
8
HOLES
10
-27.5772
20
36.0624
30
0.0000
11
-27.5772
21
36.0624
31
20.0000
0
LINE
8
HOLES
10
-31.8198
20
37.8198
30
0.0000
11
-31.8198
21
37.8198
31
20.0000
0
LINE
8
HOLES
10
-36.0624
20
36.0624
30
0.0000
11
-36.0624
21
36.0624
31
20.0000
0
LINE
8
HOLES
10
-37.8198
20
31.8198
30
0.0000
11
-37.8198
21
31.8198
31
20.0000
0
LINE
8
HOLES
10
-36.0624
20
27.5772
30
0.0000
11
-36.0624
21
27.5772
31
20.0000
0
LINE
8
HOLES
10
-31.8198
20
25.8198
30
0.0000
11
-31.8198
21
25.8198
31
20.0000
0
LINE
8
HOLES
10
-27.5772
20
27.5772
30
0.0000
11
-27.5772
21
27.5772
31
20.0000
0
LINE
8
HOLES
10
-25.8198
20
-31.8198
30
0.0000
11
-26.6237
21
-28.8198
31
0.0000
0
LINE
8
HOLES
10
-26.6237
20
-28.8198
30
0.0000
11
-28.8198
21
-26.6237
31
0.0000
0
LINE
8
HOLES
10
-28.8198
20
-26.6237
30
0.0000
11
-31.8198
21
-25.8198
31
0.0000
0
LINE
8
HOLES
10
-31.8198
20
-25.8198
30
0.0000
11
-34.8198
21
-26.6237
31
0.0000
0
LINE
8
HOLES
10
-34.8198
20
-26.6237
30
0.0000
11
-37.0160
21
-28.8198
31
0.0000
0
LINE
8
HOLES
10
-37.0160
20
-28.8198
30
0.0000
11
-37.8198
21
-31.8198
31
0.0000
0
LINE
8
HOLES
10
-37.8198
20
-31.8198
30
0.0000
11
-37.0160
21
-34.8198
31
0.0000
0
LINE
8
HOLES
10
-37.0160
20
-34.8198
30
0.0000
11
-34.8198
21
-37.0160
31
0.0000
0
LINE
8
HOLES
10
-34.8198
20
-37.0160
30
0.0000
11
-31.8198
21
-37.8198
31
0.0000
0
LINE
8
HOLES
10
-31.8198
20
-37.8198
30
0.0000
11
-28.8198
21
-37.0160
31
0.0000
0
LINE
8
HOLES
10
-28.8198
20
-37.0160
30
0.0000
11
-26.6237
21
-34.8198
31
0.0000
0
LINE
8
HOLES
10
-26.6237
20
-34.8198
30
0.0000
11
-25.8198
21
-31.8198
31
0.0000
0
LINE
8
HOLES
10
-25.8198
20
-31.8198
30
20.0000
11
-26.6237
21
-28.8198
31
20.0000
0
LINE
8
HOLES
10
-26.6237
20
-28.8198
30
20.0000
11
-28.8198
21
-26.6237
31
20.0000
0
LINE
8
HOLES
10
-28.8198
20
-26.6237
30
20.0000
11
-31.8198
21
-25.8198
31
20.0000
0
LINE
8
HOLES
10
-31.8198
20
-25.8198
30
20.0000
11
-34.8198
21
-26.6237
31
20.0000
0
LINE
8
HOLES
10
-34.8198
20
-26.6237
30
20.0000
11
-37.0160
21
-28.8198
31
20.0000
0
LINE
8
HOLES
10
-37.0160
20
-28.8198
30
20.0000
11
-37.8198
21
-31.8198
31
20.0000
0
LINE
8
HOLES
10
-37.8198
20
-31.8198
30
20.0000
11
-37.0160
21
-34.8198
31
20.0000
0
LINE
8
HOLES
10
-37.0160
20
-34.8198
30
20.0000
11
-34.8198
21
-37.0160
31
20.0000
0
LINE
8
HOLES
10
-34.8198
20
-37.0160
30
20.0000
11
-31.8198
21
-37.8198
31
20.0000
0
LINE
8
HOLES
10
-31.8198
20
-37.8198
30
20.0000
11
-28.8198
21
-37.0160
31
20.0000
0
LINE
8
HOLES
10
-28.8198
20
-37.0160
30
20.0000
11
-26.6237
21
-34.8198
31
20.0000
0
LINE
8
HOLES
10
-26.6237
20
-34.8198
30
20.0000
11
-25.8198
21
-31.8198
31
20.0000
0
LINE
8
HOLES
10
-25.8198
20
-31.8198
30
0.0000
11
-25.8198
21
-31.8198
31
20.0000
0
LINE
8
HOLES
10
-27.5772
20
-27.5772
30
0.0000
11
-27.5772
21
-27.5772
31
20.0000
0
LINE
8
HOLES
10
-31.8198
20
-25.8198
30
0.0000
11
-31.8198
21
-25.8198
31
20.0000
0
LINE
8
HOLES
10
-36.0624
20
-27.5772
30
0.0000
11
-36.0624
21
-27.5772
31
20.0000
0
LINE
8
HOLES
10
-37.8198
20
-31.8198
30
0.0000
11
-37.8198
21
-31.8198
31
20.0000
0
LINE
8
HOLES
10
-36.0624
20
-36.0624
30
0.0000
11
-36.0624
21
-36.0624
31
20.0000
0
LINE
8
HOLES
10
-31.8198
20
-37.8198
30
0.0000
11
-31.8198
21
-37.8198
31
20.0000
0
LINE
8
HOLES
10
-27.5772
20
-36.0624
30
0.0000
11
-27.5772
21
-36.0624
31
20.0000
0
LINE
8
HOLES
10
37.8198
20
-31.8198
30
0.0000
11
37.0160
21
-28.8198
31
0.0000
0
LINE
8
HOLES
10
37.0160
20
-28.8198
30
0.0000
11
34.8198
21
-26.6237
31
0.0000
0
LINE
8
HOLES
10
34.8198
20
-26.6237
30
0.0000
11
31.8198
21
-25.8198
31
0.0000
0
LINE
8
HOLES
10
31.8198
20
-25.8198
30
0.0000
11
28.8198
21
-26.6237
31
0.0000
0
LINE
8
HOLES
10
28.8198
20
-26.6237
30
0.0000
11
26.6237
21
-28.8198
31
0.0000
0
LINE
8
HOLES
10
26.6237
20
-28.8198
30
0.0000
11
25.8198
21
-31.8198
31
0.0000
0
LINE
8
HOLES
10
25.8198
20
-31.8198
30
0.0000
11
26.6237
21
-34.8198
31
0.0000
0
LINE
8
HOLES
10
26.6237
20
-34.8198
30
0.0000
11
28.8198
21
-37.0160
31
0.0000
0
LINE
8
HOLES
10
28.8198
20
-37.0160
30
0.0000
11
31.8198
21
-37.8198
31
0.0000
0
LINE
8
HOLES
10
31.8198
20
-37.8198
30
0.0000
11
34.8198
21
-37.0160
31
0.0000
0
LINE
8
HOLES
10
34.8198
20
-37.0160
30
0.0000
11
37.0160
21
-34.8198
31
0.0000
0
LINE
8
HOLES
10
37.0160
20
-34.8198
30
0.0000
11
37.8198
21
-31.8198
31
0.0000
0
LINE
8
HOLES
10
37.8198
20
-31.8198
30
20.0000
11
37.0160
21
-28.8198
31
20.0000
0
LINE
8
HOLES
10
37.0160
20
-28.8198
30
20.0000
11
34.8198
21
-26.6237
31
20.0000
0
LINE
8
HOLES
10
34.8198
20
-26.6237
30
20.0000
11
31.8198
21
-25.8198
31
20.0000
0
LINE
8
HOLES
10
31.8198
20
-25.8198
30
20.0000
11
28.8198
21
-26.6237
31
20.0000
0
LINE
8
HOLES
10
28.8198
20
-26.6237
30
20.0000
11
26.6237
21
-28.8198
31
20.0000
0
LINE
8
HOLES
10
26.6237
20
-28.8198
30
20.0000
11
25.8198
21
-31.8198
31
20.0000
0
LINE
8
HOLES
10
25.8198
20
-31.8198
30
20.0000
11
26.6237
21
-34.8198
31
20.0000
0
LINE
8
HOLES
10
26.6237
20
-34.8198
30
20.0000
11
28.8198
21
-37.0160
31
20.0000
0
LINE
8
HOLES
10
28.8198
20
-37.0160
30
20.0000
11
31.8198
21
-37.8198
31
20.0000
0
LINE
8
HOLES
10
31.8198
20
-37.8198
30
20.0000
11
34.8198
21
-37.0160
31
20.0000
0
LINE
8
HOLES
10
34.8198
20
-37.0160
30
20.0000
11
37.0160
21
-34.8198
31
20.0000
0
LINE
8
HOLES
10
37.0160
20
-34.8198
30
20.0000
11
37.8198
21
-31.8198
31
20.0000
0
LINE
8
HOLES
10
37.8198
20
-31.8198
30
0.0000
11
37.8198
21
-31.8198
31
20.0000
0
LINE
8
HOLES
10
36.0624
20
-27.5772
30
0.0000
11
36.0624
21
-27.5772
31
20.0000
0
LINE
8
HOLES
10
31.8198
20
-25.8198
30
0.0000
11
31.8198
21
-25.8198
31
20.0000
0
LINE
8
HOLES
10
27.5772
20
-27.5772
30
0.0000
11
27.5772
21
-27.5772
31
20.0000
0
LINE
8
HOLES
10
25.8198
20
-31.8198
30
0.0000
11
25.8198
21
-31.8198
31
20.0000
0
LINE
8
HOLES
10
27.5772
20
-36.0624
30
0.0000
11
27.5772
21
-36.0624
31
20.0000
0
LINE
8
HOLES
10
31.8198
20
-37.8198
30
0.0000
11
31.8198
21
-37.8198
31
20.0000
0
LINE
8
HOLES
10
36.0624
20
-36.0624
30
0.0000
11
36.0624
21
-36.0624
31
20.0000
0
LINE
8
HOLES
10
29.7487
20
24.7487
30
100.0000
11
29.0789
21
27.2487
31
100.0000
0
LINE
8
HOLES
10
29.0789
20
27.2487
30
100.0000
11
27.2487
21
29.0789
31
100.0000
0
LINE
8
HOLES
10
27.2487
20
29.0789
30
100.0000
11
24.7487
21
29.7487
31
100.0000
0
LINE
8
HOLES
10
24.7487
20
29.7487
30
100.0000
11
22.2487
21
29.0789
31
100.0000
0
LINE
8
HOLES
10
22.2487
20
29.0789
30
100.0000
11
20.4186
21
27.2487
31
100.0000
0
LINE
8
HOLES
10
20.4186
20
27.2487
30
100.0000
11
19.7487
21
24.7487
31
100.0000
0
LINE
8
HOLES
10
19.7487
20
24.7487
30
100.0000
11
20.4186
21
22.2487
31
100.0000
0
LINE
8
HOLES
10
20.4186
20
22.2487
30
100.0000
11
22.2487
21
20.4186
31
100.0000
0
LINE
8
HOLES
10
22.2487
20
20.4186
30
100.0000
11
24.7487
21
19.7487
31
100.0000
0
LINE
8
HOLES
10
24.7487
20
19.7487
30
100.0000
11
27.2487
21
20.4186
31
100.0000
0
LINE
8
HOLES
10
27.2487
20
20.4186
30
100.0000
11
29.0789
21
22.2487
31
100.0000
0
LINE
8
HOLES
10
29.0789
20
22.2487
30
100.0000
11
29.7487
21
24.7487
31
100.0000
0
LINE
8
HOLES
10
29.7487
20
24.7487
30
120.0000
11
29.0789
21
27.2487
31
120.0000
0
LINE
8
HOLES
10
29.0789
20
27.2487
30
120.0000
11
27.2487
21
29.0789
31
120.0000
0
LINE
8
HOLES
10
27.2487
20
29.0789
30
120.0000
11
24.7487
21
29.7487
31
120.0000
0
LINE
8
HOLES
10
24.7487
20
29.7487
30
120.0000
11
22.2487
21
29.0789
31
120.0000
0
LINE
8
HOLES
10
22.2487
20
29.0789
30
120.0000
11
20.4186
21
27.2487
31
120.0000
0
LINE
8
HOLES
10
20.4186
20
27.2487
30
120.0000
11
19.7487
21
24.7487
31
120.0000
0
LINE
8
HOLES
10
19.7487
20
24.7487
30
120.0000
11
20.4186
21
22.2487
31
120.0000
0
LINE
8
HOLES
10
20.4186
20
22.2487
30
120.0000
11
22.2487
21
20.4186
31
120.0000
0
LINE
8
HOLES
10
22.2487
20
20.4186
30
120.0000
11
24.7487
21
19.7487
31
120.0000
0
LINE
8
HOLES
10
24.7487
20
19.7487
30
120.0000
11
27.2487
21
20.4186
31
120.0000
0
LINE
8
HOLES
10
27.2487
20
20.4186
30
120.0000
11
29.0789
21
22.2487
31
120.0000
0
LINE
8
HOLES
10
29.0789
20
22.2487
30
120.0000
11
29.7487
21
24.7487
31
120.0000
0
LINE
8
HOLES
10
29.7487
20
24.7487
30
100.0000
11
29.7487
21
24.7487
31
120.0000
0
LINE
8
HOLES
10
28.2843
20
28.2843
30
100.0000
11
28.2843
21
28.2843
31
120.0000
0
LINE
8
HOLES
10
24.7487
20
29.7487
30
100.0000
11
24.7487
21
29.7487
31
120.0000
0
LINE
8
HOLES
10
21.2132
20
28.2843
30
100.0000
11
21.2132
21
28.2843
31
120.0000
0
LINE
8
HOLES
10
19.7487
20
24.7487
30
100.0000
11
19.7487
21
24.7487
31
120.0000
0
LINE
8
HOLES
10
21.2132
20
21.2132
30
100.0000
11
21.2132
21
21.2132
31
120.0000
0
LINE
8
HOLES
10
24.7487
20
19.7487
30
100.0000
11
24.7487
21
19.7487
31
120.0000
0
LINE
8
HOLES
10
28.2843
20
21.2132
30
100.0000
11
28.2843
21
21.2132
31
120.0000
0
LINE
8
HOLES
10
-19.7487
20
24.7487
30
100.0000
11
-20.4186
21
27.2487
31
100.0000
0
LINE
8
HOLES
10
-20.4186
20
27.2487
30
100.0000
11
-22.2487
21
29.0789
31
100.0000
0
LINE
8
HOLES
10
-22.2487
20
29.0789
30
100.0000
11
-24.7487
21
29.7487
31
100.0000
0
LINE
8
HOLES
10
-24.7487
20
29.7487
30
100.0000
11
-27.2487
21
29.0789
31
100.0000
0
LINE
8
HOLES
10
-27.2487
20
29.0789
30
100.0000
11
-29.0789
21
27.2487
31
100.0000
0
LINE
8
HOLES
10
-29.0789
20
27.2487
30
100.0000
11
-29.7487
21
24.7487
31
100.0000
0
LINE
8
HOLES
10
-29.7487
20
24.7487
30
100.0000
11
-29.0789
21
22.2487
31
100.0000
0
LINE
8
HOLES
10
-29.0789
20
22.2487
30
100.0000
11
-27.2487
21
20.4186
31
100.0000
0
LINE
8
HOLES
10
-27.2487
20
20.4186
30
100.0000
11
-24.7487
21
19.7487
31
100.0000
0
LINE
8
HOLES
10
-24.7487
20
19.7487
30
100.0000
11
-22.2487
21
20.4186
31
100.0000
0
LINE
8
HOLES
10
-22.2487
20
20.4186
30
100.0000
11
-20.4186
21
22.2487
31
100.0000
0
LINE
8
HOLES
10
-20.4186
20
22.2487
30
100.0000
11
-19.7487
21
24.7487
31
100.0000
0
LINE
8
HOLES
10
-19.7487
20
24.7487
30
120.0000
11
-20.4186
21
27.2487
31
120.0000
0
LINE
8
HOLES
10
-20.4186
20
27.2487
30
120.0000
11
-22.2487
21
29.0789
31
120.0000
0
LINE
8
HOLES
10
-22.2487
20
29.0789
30
120.0000
11
-24.7487
21
29.7487
31
120.0000
0
LINE
8
HOLES
10
-24.7487
20
29.7487
30
120.0000
11
-27.2487
21
29.0789
31
120.0000
0
LINE
8
HOLES
10
-27.2487
20
29.0789
30
120.0000
11
-29.0789
21
27.2487
31
120.0000
0
LINE
8
HOLES
10
-29.0789
20
27.2487
30
120.0000
11
-29.7487
21
24.7487
31
120.0000
0
LINE
8
HOLES
10
-29.7487
20
24.7487
30
120.0000
11
-29.0789
21
22.2487
31
120.0000
0
LINE
8
HOLES
10
-29.0789
20
22.2487
30
120.0000
11
-27.2487
21
20.4186
31
120.0000
0
LINE
8
HOLES
10
-27.2487
20
20.4186
30
120.0000
11
-24.7487
21
19.7487
31
120.0000
0
LINE
8
HOLES
10
-24.7487
20
19.7487
30
120.0000
11
-22.2487
21
20.4186
31
120.0000
0
LINE
8
HOLES
10
-22.2487
20
20.4186
30
120.0000
11
-20.4186
21
22.2487
31
120.0000
0
LINE
8
HOLES
10
-20.4186
20
22.2487
30
120.0000
11
-19.7487
21
24.7487
31
120.0000
0
LINE
8
HOLES
10
-19.7487
20
24.7487
30
100.0000
11
-19.7487
21
24.7487
31
120.0000
0
LINE
8
HOLES
10
-21.2132
20
28.2843
30
100.0000
11
-21.2132
21
28.2843
31
120.0000
0
LINE
8
HOLES
10
-24.7487
20
29.7487
30
100.0000
11
-24.7487
21
29.7487
31
120.0000
0
LINE
8
HOLES
10
-28.2843
20
28.2843
30
100.0000
11
-28.2843
21
28.2843
31
120.0000
0
LINE
8
HOLES
10
-29.7487
20
24.7487
30
100.0000
11
-29.7487
21
24.7487
31
120.0000
0
LINE
8
HOLES
10
-28.2843
20
21.2132
30
100.0000
11
-28.2843
21
21.2132
31
120.0000
0
LINE
8
HOLES
10
-24.7487
20
19.7487
30
100.0000
11
-24.7487
21
19.7487
31
120.0000
0
LINE
8
HOLES
10
-21.2132
20
21.2132
30
100.0000
11
-21.2132
21
21.2132
31
120.0000
0
LINE
8
HOLES
10
-19.7487
20
-24.7487
30
100.0000
11
-20.4186
21
-22.2487
31
100.0000
0
LINE
8
HOLES
10
-20.4186
20
-22.2487
30
100.0000
11
-22.2487
21
-20.4186
31
100.0000
0
LINE
8
HOLES
10
-22.2487
20
-20.4186
30
100.0000
11
-24.7487
21
-19.7487
31
100.0000
0
LINE
8
HOLES
10
-24.7487
20
-19.7487
30
100.0000
11
-27.2487
21
-20.4186
31
100.0000
0
LINE
8
HOLES
10
-27.2487
20
-20.4186
30
100.0000
11
-29.0789
21
-22.2487
31
100.0000
0
LINE
8
HOLES
10
-29.0789
20
-22.2487
30
100.0000
11
-29.7487
21
-24.7487
31
100.0000
0
LINE
8
HOLES
10
-29.7487
20
-24.7487
30
100.0000
11
-29.0789
21
-27.2487
31
100.0000
0
LINE
8
HOLES
10
-29.0789
20
-27.2487
30
100.0000
11
-27.2487
21
-29.0789
31
100.0000
0
LINE
8
HOLES
10
-27.2487
20
-29.0789
30
100.0000
11
-24.7487
21
-29.7487
31
100.0000
0
LINE
8
HOLES
10
-24.7487
20
-29.7487
30
100.0000
11
-22.2487
21
-29.0789
31
100.0000
0
LINE
8
HOLES
10
-22.2487
20
-29.0789
30
100.0000
11
-20.4186
21
-27.2487
31
100.0000
0
LINE
8
HOLES
10
-20.4186
20
-27.2487
30
100.0000
11
-19.7487
21
-24.7487
31
100.0000
0
LINE
8
HOLES
10
-19.7487
20
-24.7487
30
120.0000
11
-20.4186
21
-22.2487
31
120.0000
0
LINE
8
HOLES
10
-20.4186
20
-22.2487
30
120.0000
11
-22.2487
21
-20.4186
31
120.0000
0
LINE
8
HOLES
10
-22.2487
20
-20.4186
30
120.0000
11
-24.7487
21
-19.7487
31
120.0000
0
LINE
8
HOLES
10
-24.7487
20
-19.7487
30
120.0000
11
-27.2487
21
-20.4186
31
120.0000
0
LINE
8
HOLES
10
-27.2487
20
-20.4186
30
120.0000
11
-29.0789
21
-22.2487
31
120.0000
0
LINE
8
HOLES
10
-29.0789
20
-22.2487
30
120.0000
11
-29.7487
21
-24.7487
31
120.0000
0
LINE
8
HOLES
10
-29.7487
20
-24.7487
30
120.0000
11
-29.0789
21
-27.2487
31
120.0000
0
LINE
8
HOLES
10
-29.0789
20
-27.2487
30
120.0000
11
-27.2487
21
-29.0789
31
120.0000
0
LINE
8
HOLES
10
-27.2487
20
-29.0789
30
120.0000
11
-24.7487
21
-29.7487
31
120.0000
0
LINE
8
HOLES
10
-24.7487
20
-29.7487
30
120.0000
11
-22.2487
21
-29.0789
31
120.0000
0
LINE
8
HOLES
10
-22.2487
20
-29.0789
30
120.0000
11
-20.4186
21
-27.2487
31
120.0000
0
LINE
8
HOLES
10
-20.4186
20
-27.2487
30
120.0000
11
-19.7487
21
-24.7487
31
120.0000
0
LINE
8
HOLES
10
-19.7487
20
-24.7487
30
100.0000
11
-19.7487
21
-24.7487
31
120.0000
0
LINE
8
HOLES
10
-21.2132
20
-21.2132
30
100.0000
11
-21.2132
21
-21.2132
31
120.0000
0
LINE
8
HOLES
10
-24.7487
20
-19.7487
30
100.0000
11
-24.7487
21
-19.7487
31
120.0000
0
LINE
8
HOLES
10
-28.2843
20
-21.2132
30
100.0000
11
-28.2843
21
-21.2132
31
120.0000
0
LINE
8
HOLES
10
-29.7487
20
-24.7487
30
100.0000
11
-29.7487
21
-24.7487
31
120.0000
0
LINE
8
HOLES
10
-28.2843
20
-28.2843
30
100.0000
11
-28.2843
21
-28.2843
31
120.0000
0
LINE
8
HOLES
10
-24.7487
20
-29.7487
30
100.0000
11
-24.7487
21
-29.7487
31
120.0000
0
LINE
8
HOLES
10
-21.2132
20
-28.2843
30
100.0000
11
-21.2132
21
-28.2843
31
120.0000
0
LINE
8
HOLES
10
29.7487
20
-24.7487
30
100.0000
11
29.0789
21
-22.2487
31
100.0000
0
LINE
8
HOLES
10
29.0789
20
-22.2487
30
100.0000
11
27.2487
21
-20.4186
31
100.0000
0
LINE
8
HOLES
10
27.2487
20
-20.4186
30
100.0000
11
24.7487
21
-19.7487
31
100.0000
0
LINE
8
HOLES
10
24.7487
20
-19.7487
30
100.0000
11
22.2487
21
-20.4186
31
100.0000
0
LINE
8
HOLES
10
22.2487
20
-20.4186
30
100.0000
11
20.4186
21
-22.2487
31
100.0000
0
LINE
8
HOLES
10
20.4186
20
-22.2487
30
100.0000
11
19.7487
21
-24.7487
31
100.0000
0
LINE
8
HOLES
10
19.7487
20
-24.7487
30
100.0000
11
20.4186
21
-27.2487
31
100.0000
0
LINE
8
HOLES
10
20.4186
20
-27.2487
30
100.0000
11
22.2487
21
-29.0789
31
100.0000
0
LINE
8
HOLES
10
22.2487
20
-29.0789
30
100.0000
11
24.7487
21
-29.7487
31
100.0000
0
LINE
8
HOLES
10
24.7487
20
-29.7487
30
100.0000
11
27.2487
21
-29.0789
31
100.0000
0
LINE
8
HOLES
10
27.2487
20
-29.0789
30
100.0000
11
29.0789
21
-27.2487
31
100.0000
0
LINE
8
HOLES
10
29.0789
20
-27.2487
30
100.0000
11
29.7487
21
-24.7487
31
100.0000
0
LINE
8
HOLES
10
29.7487
20
-24.7487
30
120.0000
11
29.0789
21
-22.2487
31
120.0000
0
LINE
8
HOLES
10
29.0789
20
-22.2487
30
120.0000
11
27.2487
21
-20.4186
31
120.0000
0
LINE
8
HOLES
10
27.2487
20
-20.4186
30
120.0000
11
24.7487
21
-19.7487
31
120.0000
0
LINE
8
HOLES
10
24.7487
20
-19.7487
30
120.0000
11
22.2487
21
-20.4186
31
120.0000
0
LINE
8
HOLES
10
22.2487
20
-20.4186
30
120.0000
11
20.4186
21
-22.2487
31
120.0000
0
LINE
8
HOLES
10
20.4186
20
-22.2487
30
120.0000
11
19.7487
21
-24.7487
31
120.0000
0
LINE
8
HOLES
10
19.7487
20
-24.7487
30
120.0000
11
20.4186
21
-27.2487
31
120.0000
0
LINE
8
HOLES
10
20.4186
20
-27.2487
30
120.0000
11
22.2487
21
-29.0789
31
120.0000
0
LINE
8
HOLES
10
22.2487
20
-29.0789
30
120.0000
11
24.7487
21
-29.7487
31
120.0000
0
LINE
8
HOLES
10
24.7487
20
-29.7487
30
120.0000
11
27.2487
21
-29.0789
31
120.0000
0
LINE
8
HOLES
10
27.2487
20
-29.0789
30
120.0000
11
29.0789
21
-27.2487
31
120.0000
0
LINE
8
HOLES
10
29.0789
20
-27.2487
30
120.0000
11
29.7487
21
-24.7487
31
120.0000
0
LINE
8
HOLES
10
29.7487
20
-24.7487
30
100.0000
11
29.7487
21
-24.7487
31
120.0000
0
LINE
8
HOLES
10
28.2843
20
-21.2132
30
100.0000
11
28.2843
21
-21.2132
31
120.0000
0
LINE
8
HOLES
10
24.7487
20
-19.7487
30
100.0000
11
24.7487
21
-19.7487
31
120.0000
0
LINE
8
HOLES
10
21.2132
20
-21.2132
30
100.0000
11
21.2132
21
-21.2132
31
120.0000
0
LINE
8
HOLES
10
19.7487
20
-24.7487
30
100.0000
11
19.7487
21
-24.7487
31
120.0000
0
LINE
8
HOLES
10
21.2132
20
-28.2843
30
100.0000
11
21.2132
21
-28.2843
31
120.0000
0
LINE
8
HOLES
10
24.7487
20
-29.7487
30
100.0000
11
24.7487
21
-29.7487
31
120.0000
0
LINE
8
HOLES
10
28.2843
20
-28.2843
30
100.0000
11
28.2843
21
-28.2843
31
120.0000
0
LINE
8
EDGES
10
-5.0000
20
20.0000
30
120.0000
11
-5.0000
21
20.0000
31
180.0000
0
LINE
8
EDGES
10
5.0000
20
20.0000
30
120.0000
11
5.0000
21
20.0000
31
180.0000
0
LINE
8
EDGES
10
-5.0000
20
28.0000
30
120.0000
11
5.0000
21
28.0000
31
120.0000
0
LINE
8
EDGES
10
-5.0000
20
28.0000
30
180.0000
11
5.0000
21
28.0000
31
180.0000
0
LINE
8
EDGES
10
-5.0000
20
20.0000
30
120.0000
11
-5.0000
21
28.0000
31
120.0000
0
LINE
8
EDGES
10
5.0000
20
20.0000
30
120.0000
11
5.0000
21
28.0000
31
120.0000
0
LINE
8
EDGES
10
-5.0000
20
20.0000
30
180.0000
11
-5.0000
21
28.0000
31
180.0000
0
LINE
8
EDGES
10
5.0000
20
20.0000
30
180.0000
11
5.0000
21
28.0000
31
180.0000
0
LINE
8
CENTERLINE
10
0.0000
20
0.0000
30
-30.0000
11
0.0000
21
0.0000
31
250.0000
0
CIRCLE
8
CENTERLINE
10
0.0000
20
0.0000
30
10.0000
40
45.0000
0
CIRCLE
8
CENTERLINE
10
0.0000
20
0.0000
30
110.0000
40
35.0000
0
ENDSEC
0
EOF
