0
SECTION
2
HEADER
9
$ACADVER
1
AC1015
9
$INSUNITS
70
4
0
ENDSEC
0
SECTION
2
TABLES
0
TABLE
2
LAYER
70
6
0
LAYER
2
BUS
70
0
62
7
0
LAYER
2
WIRING
70
0
62
2
0
LAYER
2
BREAKERS
70
0
62
3
0
LAYER
2
LOADS
70
0
62
4
0
LAYER
2
GROUND
70
0
62
5
0
LAYER
2
ANNOTATION
70
0
62
1
0
ENDTAB
0
ENDSEC
0
SECTION
2
BLOCKS
0
ENDSEC
0
SECTION
2
ENTITIES
0
LINE
8
BUS
10
500.0000
20
5000.0000
30
0.0000
11
8500.0000
21
5000.0000
31
0.0000
0
LINE
8
BUS
10
500.0000
20
5030.0000
30
0.0000
11
8500.0000
21
5030.0000
31
0.0000
0
LINE
8
BUS
10
500.0000
20
4970.0000
30
0.0000
11
8500.0000
21
4970.0000
31
0.0000
0
LINE
8
WIRING
10
700.0000
20
5000.0000
30
0.0000
11
700.0000
21
6800.0000
31
0.0000
0
CIRCLE
8
WIRING
10
700.0000
20
7300.0000
30
0.0000
40
300.0000
0
CIRCLE
8
WIRING
10
700.0000
20
7900.0000
30
0.0000
40
300.0000
0
LINE
8
WIRING
10
700.0000
20
8200.0000
30
0.0000
11
700.0000
21
9000.0000
31
0.0000
0
LWPOLYLINE
8
WIRING
90
4
70
1
10
500.0000
20
8700.0000
10
900.0000
20
8700.0000
10
900.0000
20
9200.0000
10
500.0000
20
9200.0000
0
CIRCLE
8
WIRING
10
700.0000
20
8950.0000
30
0.0000
40
150.0000
0
LINE
8
BREAKERS
10
700.0000
20
6800.0000
30
0.0000
11
700.0000
21
6420.0000
31
0.0000
0
ARC
8
BREAKERS
10
700.0000
20
6500.0000
30
0.0000
40
80.0000
50
270.0000
51
90.0000
0
LINE
8
BREAKERS
10
620.0000
20
6580.0000
30
0.0000
11
780.0000
21
6420.0000
31
0.0000
0
LINE
8
BREAKERS
10
700.0000
20
6580.0000
30
0.0000
11
700.0000
21
6200.0000
31
0.0000
0
LINE
8
BREAKERS
10
700.0000
20
5000.0000
30
0.0000
11
700.0000
21
5070.0000
31
0.0000
0
ARC
8
BREAKERS
10
700.0000
20
5150.0000
30
0.0000
40
80.0000
50
270.0000
51
90.0000
0
LINE
8
BREAKERS
10
620.0000
20
5230.0000
30
0.0000
11
780.0000
21
5070.0000
31
0.0000
0
LINE
8
BREAKERS
10
700.0000
20
5230.0000
30
0.0000
11
700.0000
21
5300.0000
31
0.0000
0
LINE
8
WIRING
10
1200.0000
20
4970.0000
30
0.0000
11
1200.0000
21
4400.0000
31
0.0000
0
LINE
8
BREAKERS
10
1200.0000
20
4400.0000
30
0.0000
11
1200.0000
21
4020.0000
31
0.0000
0
ARC
8
BREAKERS
10
1200.0000
20
4100.0000
30
0.0000
40
80.0000
50
270.0000
51
90.0000
0
LINE
8
BREAKERS
10
1120.0000
20
4180.0000
30
0.0000
11
1280.0000
21
4020.0000
31
0.0000
0
LINE
8
BREAKERS
10
1200.0000
20
4180.0000
30
0.0000
11
1200.0000
21
3800.0000
31
0.0000
0
LINE
8
WIRING
10
1200.0000
20
3640.0000
30
0.0000
11
1200.0000
21
3400.0000
31
0.0000
0
CIRCLE
8
LOADS
10
1200.0000
20
3200.0000
30
0.0000
40
120.0000
0
LINE
8
LOADS
10
1080.0000
20
3200.0000
30
0.0000
11
1320.0000
21
3200.0000
31
0.0000
0
LINE
8
LOADS
10
1200.0000
20
3080.0000
30
0.0000
11
1200.0000
21
3320.0000
31
0.0000
0
LINE
8
WIRING
10
2100.0000
20
4970.0000
30
0.0000
11
2100.0000
21
4400.0000
31
0.0000
0
LINE
8
BREAKERS
10
2100.0000
20
4400.0000
30
0.0000
11
2100.0000
21
4020.0000
31
0.0000
0
ARC
8
BREAKERS
10
2100.0000
20
4100.0000
30
0.0000
40
80.0000
50
270.0000
51
90.0000
0
LINE
8
BREAKERS
10
2020.0000
20
4180.0000
30
0.0000
11
2180.0000
21
4020.0000
31
0.0000
0
LINE
8
BREAKERS
10
2100.0000
20
4180.0000
30
0.0000
11
2100.0000
21
3800.0000
31
0.0000
0
LINE
8
WIRING
10
2100.0000
20
3640.0000
30
0.0000
11
2100.0000
21
3400.0000
31
0.0000
0
CIRCLE
8
LOADS
10
2100.0000
20
3200.0000
30
0.0000
40
120.0000
0
LINE
8
LOADS
10
1980.0000
20
3200.0000
30
0.0000
11
2220.0000
21
3200.0000
31
0.0000
0
LINE
8
LOADS
10
2100.0000
20
3080.0000
30
0.0000
11
2100.0000
21
3320.0000
31
0.0000
0
LINE
8
WIRING
10
3000.0000
20
4970.0000
30
0.0000
11
3000.0000
21
4400.0000
31
0.0000
0
LINE
8
BREAKERS
10
3000.0000
20
4400.0000
30
0.0000
11
3000.0000
21
4020.0000
31
0.0000
0
ARC
8
BREAKERS
10
3000.0000
20
4100.0000
30
0.0000
40
80.0000
50
270.0000
51
90.0000
0
LINE
8
BREAKERS
10
2920.0000
20
4180.0000
30
0.0000
11
3080.0000
21
4020.0000
31
0.0000
0
LINE
8
BREAKERS
10
3000.0000
20
4180.0000
30
0.0000
11
3000.0000
21
3800.0000
31
0.0000
0
LINE
8
WIRING
10
3000.0000
20
3640.0000
30
0.0000
11
3000.0000
21
3400.0000
31
0.0000
0
CIRCLE
8
LOADS
10
3000.0000
20
3200.0000
30
0.0000
40
120.0000
0
ARC
8
LOADS
10
2940.0000
20
3200.0000
30
0.0000
40
60.0000
50
90.0000
51
270.0000
0
ARC
8
LOADS
10
3060.0000
20
3200.0000
30
0.0000
40
60.0000
50
270.0000
51
90.0000
0
LINE
8
WIRING
10
4000.0000
20
4970.0000
30
0.0000
11
4000.0000
21
4400.0000
31
0.0000
0
LINE
8
BREAKERS
10
4000.0000
20
4400.0000
30
0.0000
11
4000.0000
21
4020.0000
31
0.0000
0
ARC
8
BREAKERS
10
4000.0000
20
4100.0000
30
0.0000
40
80.0000
50
270.0000
51
90.0000
0
LINE
8
BREAKERS
10
3920.0000
20
4180.0000
30
0.0000
11
4080.0000
21
4020.0000
31
0.0000
0
LINE
8
BREAKERS
10
4000.0000
20
4180.0000
30
0.0000
11
4000.0000
21
3800.0000
31
0.0000
0
LINE
8
WIRING
10
4000.0000
20
3640.0000
30
0.0000
11
4000.0000
21
3400.0000
31
0.0000
0
CIRCLE
8
LOADS
10
4000.0000
20
3200.0000
30
0.0000
40
120.0000
0
ARC
8
LOADS
10
3940.0000
20
3200.0000
30
0.0000
40
60.0000
50
90.0000
51
270.0000
0
ARC
8
LOADS
10
4060.0000
20
3200.0000
30
0.0000
40
60.0000
50
270.0000
51
90.0000
0
LINE
8
WIRING
10
5200.0000
20
4970.0000
30
0.0000
11
5200.0000
21
4400.0000
31
0.0000
0
LINE
8
BREAKERS
10
5200.0000
20
4400.0000
30
0.0000
11
5200.0000
21
4020.0000
31
0.0000
0
ARC
8
BREAKERS
10
5200.0000
20
4100.0000
30
0.0000
40
80.0000
50
270.0000
51
90.0000
0
LINE
8
BREAKERS
10
5120.0000
20
4180.0000
30
0.0000
11
5280.0000
21
4020.0000
31
0.0000
0
LINE
8
BREAKERS
10
5200.0000
20
4180.0000
30
0.0000
11
5200.0000
21
3800.0000
31
0.0000
0
LINE
8
WIRING
10
5200.0000
20
3640.0000
30
0.0000
11
5200.0000
21
3400.0000
31
0.0000
0
CIRCLE
8
LOADS
10
5200.0000
20
3200.0000
30
0.0000
40
150.0000
0
LINE
8
LOADS
10
5120.0000
20
3120.0000
30
0.0000
11
5120.0000
21
3280.0000
31
0.0000
0
LINE
8
LOADS
10
5120.0000
20
3280.0000
30
0.0000
11
5200.0000
21
3200.0000
31
0.0000
0
LINE
8
LOADS
10
5200.0000
20
3200.0000
30
0.0000
11
5280.0000
21
3280.0000
31
0.0000
0
LINE
8
LOADS
10
5280.0000
20
3280.0000
30
0.0000
11
5280.0000
21
3120.0000
31
0.0000
0
LINE
8
WIRING
10
6400.0000
20
4970.0000
30
0.0000
11
6400.0000
21
4400.0000
31
0.0000
0
LINE
8
BREAKERS
10
6400.0000
20
4400.0000
30
0.0000
11
6400.0000
21
4020.0000
31
0.0000
0
ARC
8
BREAKERS
10
6400.0000
20
4100.0000
30
0.0000
40
80.0000
50
270.0000
51
90.0000
0
LINE
8
BREAKERS
10
6320.0000
20
4180.0000
30
0.0000
11
6480.0000
21
4020.0000
31
0.0000
0
LINE
8
BREAKERS
10
6400.0000
20
4180.0000
30
0.0000
11
6400.0000
21
3800.0000
31
0.0000
0
LINE
8
WIRING
10
6400.0000
20
3640.0000
30
0.0000
11
6400.0000
21
3400.0000
31
0.0000
0
LWPOLYLINE
8
LOADS
90
4
70
1
10
6300.0000
20
3120.0000
10
6500.0000
20
3120.0000
10
6500.0000
20
3280.0000
10
6300.0000
20
3280.0000
0
LINE
8
WIRING
10
7500.0000
20
4970.0000
30
0.0000
11
7500.0000
21
4400.0000
31
0.0000
0
LINE
8
BREAKERS
10
7500.0000
20
4400.0000
30
0.0000
11
7500.0000
21
4020.0000
31
0.0000
0
ARC
8
BREAKERS
10
7500.0000
20
4100.0000
30
0.0000
40
80.0000
50
270.0000
51
90.0000
0
LINE
8
BREAKERS
10
7420.0000
20
4180.0000
30
0.0000
11
7580.0000
21
4020.0000
31
0.0000
0
LINE
8
BREAKERS
10
7500.0000
20
4180.0000
30
0.0000
11
7500.0000
21
3800.0000
31
0.0000
0
LINE
8
WIRING
10
7500.0000
20
3640.0000
30
0.0000
11
7500.0000
21
3400.0000
31
0.0000
0
CIRCLE
8
LOADS
10
7500.0000
20
3200.0000
30
0.0000
40
150.0000
0
LINE
8
LOADS
10
7420.0000
20
3120.0000
30
0.0000
11
7420.0000
21
3280.0000
31
0.0000
0
LINE
8
LOADS
10
7420.0000
20
3280.0000
30
0.0000
11
7500.0000
21
3200.0000
31
0.0000
0
LINE
8
LOADS
10
7500.0000
20
3200.0000
30
0.0000
11
7580.0000
21
3280.0000
31
0.0000
0
LINE
8
LOADS
10
7580.0000
20
3280.0000
30
0.0000
11
7580.0000
21
3120.0000
31
0.0000
0
LINE
8
GROUND
10
600.0000
20
1500.0000
30
0.0000
11
8000.0000
21
1500.0000
31
0.0000
0
LINE
8
GROUND
10
700.0000
20
1500.0000
30
0.0000
11
700.0000
21
1300.0000
31
0.0000
0
LINE
8
GROUND
10
550.0000
20
1250.0000
30
0.0000
11
850.0000
21
1250.0000
31
0.0000
0
LINE
8
GROUND
10
590.0000
20
1150.0000
30
0.0000
11
810.0000
21
1150.0000
31
0.0000
0
LINE
8
GROUND
10
630.0000
20
1050.0000
30
0.0000
11
770.0000
21
1050.0000
31
0.0000
0
LINE
8
GROUND
10
1800.0000
20
1500.0000
30
0.0000
11
1800.0000
21
1300.0000
31
0.0000
0
LINE
8
GROUND
10
1650.0000
20
1250.0000
30
0.0000
11
1950.0000
21
1250.0000
31
0.0000
0
LINE
8
GROUND
10
1690.0000
20
1150.0000
30
0.0000
11
1910.0000
21
1150.0000
31
0.0000
0
LINE
8
GROUND
10
1730.0000
20
1050.0000
30
0.0000
11
1870.0000
21
1050.0000
31
0.0000
0
LINE
8
GROUND
10
3500.0000
20
1500.0000
30
0.0000
11
3500.0000
21
1300.0000
31
0.0000
0
LINE
8
GROUND
10
3350.0000
20
1250.0000
30
0.0000
11
3650.0000
21
1250.0000
31
0.0000
0
LINE
8
GROUND
10
3390.0000
20
1150.0000
30
0.0000
11
3610.0000
21
1150.0000
31
0.0000
0
LINE
8
GROUND
10
3430.0000
20
1050.0000
30
0.0000
11
3570.0000
21
1050.0000
31
0.0000
0
LINE
8
GROUND
10
6000.0000
20
1500.0000
30
0.0000
11
6000.0000
21
1300.0000
31
0.0000
0
LINE
8
GROUND
10
5850.0000
20
1250.0000
30
0.0000
11
6150.0000
21
1250.0000
31
0.0000
0
LINE
8
GROUND
10
5890.0000
20
1150.0000
30
0.0000
11
6110.0000
21
1150.0000
31
0.0000
0
LINE
8
GROUND
10
5930.0000
20
1050.0000
30
0.0000
11
6070.0000
21
1050.0000
31
0.0000
0
LINE
8
GROUND
10
7500.0000
20
1500.0000
30
0.0000
11
7500.0000
21
1300.0000
31
0.0000
0
LINE
8
GROUND
10
7350.0000
20
1250.0000
30
0.0000
11
7650.0000
21
1250.0000
31
0.0000
0
LINE
8
GROUND
10
7390.0000
20
1150.0000
30
0.0000
11
7610.0000
21
1150.0000
31
0.0000
0
LINE
8
GROUND
10
7430.0000
20
1050.0000
30
0.0000
11
7570.0000
21
1050.0000
31
0.0000
0
LINE
8
GROUND
10
1200.0000
20
4400.0000
30
0.0000
11
1200.0000
21
1500.0000
31
0.0000
0
LINE
8
GROUND
10
2100.0000
20
4400.0000
30
0.0000
11
2100.0000
21
1500.0000
31
0.0000
0
LINE
8
GROUND
10
3000.0000
20
4400.0000
30
0.0000
11
3000.0000
21
1500.0000
31
0.0000
0
LINE
8
GROUND
10
4000.0000
20
4400.0000
30
0.0000
11
4000.0000
21
1500.0000
31
0.0000
0
LINE
8
GROUND
10
5200.0000
20
4400.0000
30
0.0000
11
5200.0000
21
1500.0000
31
0.0000
0
LINE
8
GROUND
10
6400.0000
20
4400.0000
30
0.0000
11
6400.0000
21
1500.0000
31
0.0000
0
LINE
8
GROUND
10
7500.0000
20
4400.0000
30
0.0000
11
7500.0000
21
1500.0000
31
0.0000
0
LWPOLYLINE
8
ANNOTATION
90
4
70
1
10
-200.0000
20
1100.0000
10
9000.0000
20
1100.0000
10
9000.0000
20
9500.0000
10
-200.0000
20
9500.0000
0
LWPOLYLINE
8
ANNOTATION
90
4
70
1
10
-200.0000
20
9200.0000
10
9000.0000
20
9200.0000
10
9000.0000
20
9800.0000
10
-200.0000
20
9800.0000
0
LINE
8
ANNOTATION
10
4400.0000
20
9200.0000
30
0.0000
11
4400.0000
21
9800.0000
31
0.0000
0
LINE
8
ANNOTATION
10
7200.0000
20
9200.0000
30
0.0000
11
7200.0000
21
9800.0000
31
0.0000
0
ENDSEC
0
EOF
