0
SECTION
2
HEADER
9
$ACADVER
1
AC1015
9
$INSUNITS
70
4
0
ENDSEC
0
SECTION
2
TABLES
0
TABLE
2
LAYER
70
7
0
LAYER
2
OUTLINE
70
0
62
7
0
LAYER
2
CENTERLINE
70
0
62
1
0
LAYER
2
HIDDEN
70
0
62
8
0
LAYER
2
HOLES
70
0
62
5
0
LAYER
2
DIMENSION
70
0
62
6
0
LAYER
2
SECTION
70
0
62
3
0
LAYER
2
HATCH
70
0
62
8
0
ENDTAB
0
ENDSEC
0
SECTION
2
BLOCKS
0
ENDSEC
0
SECTION
2
ENTITIES
0
LINE
8
OUTLINE
10
25.0000
20
0.0000
30
0.0000
11
295.0000
21
0.0000
31
0.0000
0
LINE
8
OUTLINE
10
25.0000
20
220.0000
30
0.0000
11
295.0000
21
220.0000
31
0.0000
0
LINE
8
OUTLINE
10
0.0000
20
25.0000
30
0.0000
11
0.0000
21
195.0000
31
0.0000
0
LINE
8
OUTLINE
10
320.0000
20
25.0000
30
0.0000
11
320.0000
21
195.0000
31
0.0000
0
ARC
8
OUTLINE
10
25.0000
20
25.0000
30
0.0000
40
25.0000
50
180.0000
51
270.0000
0
ARC
8
OUTLINE
10
295.0000
20
25.0000
30
0.0000
40
25.0000
50
270.0000
51
360.0000
0
ARC
8
OUTLINE
10
295.0000
20
195.0000
30
0.0000
40
25.0000
50
0.0000
51
90.0000
0
ARC
8
OUTLINE
10
25.0000
20
195.0000
30
0.0000
40
25.0000
50
90.0000
51
180.0000
0
CIRCLE
8
OUTLINE
10
160.0000
20
110.0000
30
0.0000
40
40.0000
0
LINE
8
OUTLINE
10
150.0000
20
150.0000
30
0.0000
11
150.0000
21
180.0000
31
0.0000
0
LINE
8
OUTLINE
10
170.0000
20
150.0000
30
0.0000
11
170.0000
21
180.0000
31
0.0000
0
LINE
8
OUTLINE
10
150.0000
20
180.0000
30
0.0000
11
170.0000
21
180.0000
31
0.0000
0
CIRCLE
8
CENTERLINE
10
160.0000
20
110.0000
30
0.0000
40
130.0000
0
CIRCLE
8
HOLES
10
290.0000
20
110.0000
30
0.0000
40
9.0000
0
CIRCLE
8
HIDDEN
10
290.0000
20
110.0000
30
0.0000
40
14.0000
0
CIRCLE
8
HOLES
10
225.0000
20
222.5833
30
0.0000
40
9.0000
0
CIRCLE
8
HIDDEN
10
225.0000
20
222.5833
30
0.0000
40
14.0000
0
CIRCLE
8
HOLES
10
95.0000
20
222.5833
30
0.0000
40
9.0000
0
CIRCLE
8
HIDDEN
10
95.0000
20
222.5833
30
0.0000
40
14.0000
0
CIRCLE
8
HOLES
10
30.0000
20
110.0000
30
0.0000
40
9.0000
0
CIRCLE
8
HIDDEN
10
30.0000
20
110.0000
30
0.0000
40
14.0000
0
CIRCLE
8
HOLES
10
95.0000
20
-2.5833
30
0.0000
40
9.0000
0
CIRCLE
8
HIDDEN
10
95.0000
20
-2.5833
30
0.0000
40
14.0000
0
CIRCLE
8
HOLES
10
225.0000
20
-2.5833
30
0.0000
40
9.0000
0
CIRCLE
8
HIDDEN
10
225.0000
20
-2.5833
30
0.0000
40
14.0000
0
CIRCLE
8
HOLES
10
198.8909
20
148.8909
30
0.0000
40
4.0000
0
CIRCLE
8
HOLES
10
121.1091
20
148.8909
30
0.0000
40
4.0000
0
CIRCLE
8
HOLES
10
121.1091
20
71.1091
30
0.0000
40
4.0000
0
CIRCLE
8
HOLES
10
198.8909
20
71.1091
30
0.0000
40
4.0000
0
CIRCLE
8
OUTLINE
10
160.0000
20
110.0000
30
0.0000
40
60.0000
0
LINE
8
CENTERLINE
10
160.0000
20
-130.0000
30
0.0000
11
160.0000
21
350.0000
31
0.0000
0
LINE
8
CENTERLINE
10
-130.0000
20
110.0000
30
0.0000
11
450.0000
21
110.0000
31
0.0000
0
LINE
8
CENTERLINE
10
278.0000
20
110.0000
30
0.0000
11
302.0000
21
110.0000
31
0.0000
0
LINE
8
CENTERLINE
10
290.0000
20
98.0000
30
0.0000
11
290.0000
21
122.0000
31
0.0000
0
LINE
8
CENTERLINE
10
213.0000
20
222.5833
30
0.0000
11
237.0000
21
222.5833
31
0.0000
0
LINE
8
CENTERLINE
10
225.0000
20
210.5833
30
0.0000
11
225.0000
21
234.5833
31
0.0000
0
LINE
8
CENTERLINE
10
83.0000
20
222.5833
30
0.0000
11
107.0000
21
222.5833
31
0.0000
0
LINE
8
CENTERLINE
10
95.0000
20
210.5833
30
0.0000
11
95.0000
21
234.5833
31
0.0000
0
LINE
8
CENTERLINE
10
18.0000
20
110.0000
30
0.0000
11
42.0000
21
110.0000
31
0.0000
0
LINE
8
CENTERLINE
10
30.0000
20
98.0000
30
0.0000
11
30.0000
21
122.0000
31
0.0000
0
LINE
8
CENTERLINE
10
83.0000
20
-2.5833
30
0.0000
11
107.0000
21
-2.5833
31
0.0000
0
LINE
8
CENTERLINE
10
95.0000
20
-14.5833
30
0.0000
11
95.0000
21
9.4167
31
0.0000
0
LINE
8
CENTERLINE
10
213.0000
20
-2.5833
30
0.0000
11
237.0000
21
-2.5833
31
0.0000
0
LINE
8
CENTERLINE
10
225.0000
20
-14.5833
30
0.0000
11
225.0000
21
9.4167
31
0.0000
0
LINE
8
OUTLINE
10
420.0000
20
0.0000
30
0.0000
11
450.0000
21
0.0000
31
0.0000
0
LINE
8
OUTLINE
10
450.0000
20
0.0000
30
0.0000
11
450.0000
21
220.0000
31
0.0000
0
LINE
8
OUTLINE
10
420.0000
20
220.0000
30
0.0000
11
450.0000
21
220.0000
31
0.0000
0
LINE
8
OUTLINE
10
420.0000
20
0.0000
30
0.0000
11
420.0000
21
220.0000
31
0.0000
0
LINE
8
OUTLINE
10
450.0000
20
50.0000
30
0.0000
11
510.0000
21
50.0000
31
0.0000
0
LINE
8
OUTLINE
10
450.0000
20
170.0000
30
0.0000
11
510.0000
21
170.0000
31
0.0000
0
LINE
8
OUTLINE
10
510.0000
20
50.0000
30
0.0000
11
510.0000
21
170.0000
31
0.0000
0
LINE
8
HIDDEN
10
420.0000
20
70.0000
30
0.0000
11
510.0000
21
70.0000
31
0.0000
0
LINE
8
HIDDEN
10
420.0000
20
150.0000
30
0.0000
11
510.0000
21
150.0000
31
0.0000
0
LINE
8
HATCH
10
435.0000
20
0.0000
30
0.0000
11
420.0000
21
15.0000
31
0.0000
0
LINE
8
HATCH
10
450.0000
20
0.0000
30
0.0000
11
420.0000
21
30.0000
31
0.0000
0
LINE
8
HATCH
10
450.0000
20
15.0000
30
0.0000
11
420.0000
21
45.0000
31
0.0000
0
LINE
8
HATCH
10
450.0000
20
30.0000
30
0.0000
11
430.0000
21
50.0000
31
0.0000
0
LINE
8
HATCH
10
450.0000
20
45.0000
30
0.0000
11
445.0000
21
50.0000
31
0.0000
0
LINE
8
HATCH
10
435.0000
20
170.0000
30
0.0000
11
420.0000
21
185.0000
31
0.0000
0
LINE
8
HATCH
10
450.0000
20
170.0000
30
0.0000
11
420.0000
21
200.0000
31
0.0000
0
LINE
8
HATCH
10
450.0000
20
185.0000
30
0.0000
11
420.0000
21
215.0000
31
0.0000
0
LINE
8
HATCH
10
450.0000
20
200.0000
30
0.0000
11
430.0000
21
220.0000
31
0.0000
0
LINE
8
HATCH
10
450.0000
20
215.0000
30
0.0000
11
445.0000
21
220.0000
31
0.0000
0
LINE
8
HATCH
10
465.0000
20
50.0000
30
0.0000
11
450.0000
21
65.0000
31
0.0000
0
LINE
8
HATCH
10
480.0000
20
50.0000
30
0.0000
11
460.0000
21
70.0000
31
0.0000
0
LINE
8
HATCH
10
495.0000
20
50.0000
30
0.0000
11
475.0000
21
70.0000
31
0.0000
0
LINE
8
HATCH
10
510.0000
20
50.0000
30
0.0000
11
490.0000
21
70.0000
31
0.0000
0
LINE
8
HATCH
10
510.0000
20
65.0000
30
0.0000
11
505.0000
21
70.0000
31
0.0000
0
LINE
8
HATCH
10
465.0000
20
150.0000
30
0.0000
11
450.0000
21
165.0000
31
0.0000
0
LINE
8
HATCH
10
480.0000
20
150.0000
30
0.0000
11
460.0000
21
170.0000
31
0.0000
0
LINE
8
HATCH
10
495.0000
20
150.0000
30
0.0000
11
475.0000
21
170.0000
31
0.0000
0
LINE
8
HATCH
10
510.0000
20
150.0000
30
0.0000
11
490.0000
21
170.0000
31
0.0000
0
LINE
8
HATCH
10
510.0000
20
165.0000
30
0.0000
11
505.0000
21
170.0000
31
0.0000
0
LINE
8
HATCH
10
435.0000
20
0.0000
30
0.0000
11
420.0000
21
15.0000
31
0.0000
0
LINE
8
HATCH
10
450.0000
20
0.0000
30
0.0000
11
420.0000
21
30.0000
31
0.0000
0
LINE
8
HATCH
10
450.0000
20
15.0000
30
0.0000
11
425.0000
21
40.0000
31
0.0000
0
LINE
8
HATCH
10
450.0000
20
30.0000
30
0.0000
11
440.0000
21
40.0000
31
0.0000
0
LINE
8
DIMENSION
10
0.0000
20
-60.0000
30
0.0000
11
320.0000
21
-60.0000
31
0.0000
0
LINE
8
DIMENSION
10
0.0000
20
-110.0000
30
0.0000
11
0.0000
21
-10.0000
31
0.0000
0
LINE
8
DIMENSION
10
320.0000
20
-110.0000
30
0.0000
11
320.0000
21
-10.0000
31
0.0000
0
LINE
8
DIMENSION
10
-60.0000
20
0.0000
30
0.0000
11
-60.0000
21
220.0000
31
0.0000
0
LINE
8
DIMENSION
10
-10.0000
20
0.0000
30
0.0000
11
-110.0000
21
0.0000
31
0.0000
0
LINE
8
DIMENSION
10
-10.0000
20
220.0000
30
0.0000
11
-110.0000
21
220.0000
31
0.0000
0
LINE
8
DIMENSION
10
30.0000
20
110.0000
30
0.0000
11
290.0000
21
110.0000
31
0.0000
0
LINE
8
DIMENSION
10
30.0000
20
60.0000
30
0.0000
11
30.0000
21
160.0000
31
0.0000
0
LINE
8
DIMENSION
10
290.0000
20
60.0000
30
0.0000
11
290.0000
21
160.0000
31
0.0000
0
LINE
8
DIMENSION
10
160.0000
20
70.0000
30
0.0000
11
160.0000
21
150.0000
31
0.0000
0
LINE
8
DIMENSION
10
210.0000
20
70.0000
30
0.0000
11
110.0000
21
70.0000
31
0.0000
0
LINE
8
DIMENSION
10
210.0000
20
150.0000
30
0.0000
11
110.0000
21
150.0000
31
0.0000
0
LINE
8
DIMENSION
10
420.0000
20
-60.0000
30
0.0000
11
450.0000
21
-60.0000
31
0.0000
0
LINE
8
DIMENSION
10
420.0000
20
-110.0000
30
0.0000
11
420.0000
21
-10.0000
31
0.0000
0
LINE
8
DIMENSION
10
450.0000
20
-110.0000
30
0.0000
11
450.0000
21
-10.0000
31
0.0000
0
LINE
8
DIMENSION
10
450.0000
20
-60.0000
30
0.0000
11
510.0000
21
-60.0000
31
0.0000
0
LINE
8
DIMENSION
10
450.0000
20
-110.0000
30
0.0000
11
450.0000
21
-10.0000
31
0.0000
0
LINE
8
DIMENSION
10
510.0000
20
-110.0000
30
0.0000
11
510.0000
21
-10.0000
31
0.0000
0
ENDSEC
0
EOF
